<svg xmlns="http://www.w3.org/2000/svg" width="22.357" height="19.013" viewBox="0 0 22.357 19.013"><defs><style>.a{fill:none;stroke:#fff;stroke-width:2px;}.b{fill:#fff;}</style></defs><g transform="translate(1 1)"><path class="a" d="M942.227,220H925.94a1.963,1.963,0,0,0-2.026,1.883l-.008,13.792a1.43,1.43,0,0,0,2.413.925l1.243-1.15a1.475,1.475,0,0,1,1-.383h13.666a1.97,1.97,0,0,0,2.036-1.884v-11.3A1.97,1.97,0,0,0,942.227,220Z" transform="translate(-923.906 -220)"/><circle class="b" cx="1.096" cy="1.096" r="1.096" transform="translate(4.472 7.062)"/><circle class="b" cx="1.096" cy="1.096" r="1.096" transform="translate(9.567 7.062)"/><circle class="b" cx="1.096" cy="1.096" r="1.096" transform="translate(14.661 7.062)"/></g></svg>