<svg xmlns="http://www.w3.org/2000/svg" width="21.82" height="22.432" viewBox="0 0 21.82 22.432"><defs><style>.a{fill:#fff;}</style></defs><path class="a" d="M22.652,15.315a8.741,8.741,0,0,0,.079-1.1,8.741,8.741,0,0,0-.079-1.1l2.367-1.851a.566.566,0,0,0,.135-.718L22.91,6.668a.564.564,0,0,0-.684-.247L19.433,7.542a8.194,8.194,0,0,0-1.9-1.1l-.426-2.972A.547.547,0,0,0,16.561,3H12.075a.547.547,0,0,0-.55.471L11.1,6.443a8.617,8.617,0,0,0-1.9,1.1L6.411,6.421a.547.547,0,0,0-.684.247L3.484,10.548a.553.553,0,0,0,.135.718l2.367,1.851a8.9,8.9,0,0,0-.079,1.1,8.9,8.9,0,0,0,.079,1.1L3.618,17.166a.566.566,0,0,0-.135.718l2.243,3.881a.564.564,0,0,0,.684.247L9.2,20.889a8.194,8.194,0,0,0,1.9,1.1l.426,2.972a.547.547,0,0,0,.55.471h4.486a.547.547,0,0,0,.55-.471l.426-2.972a8.617,8.617,0,0,0,1.9-1.1l2.793,1.122a.547.547,0,0,0,.684-.247l2.243-3.881a.566.566,0,0,0-.135-.718l-2.367-1.851Zm-8.333,2.826a3.926,3.926,0,1,1,3.926-3.926A3.93,3.93,0,0,1,14.318,18.141Z" transform="translate(-3.406 -3)"/></svg>