<svg xmlns="http://www.w3.org/2000/svg" width="30" height="15.625" viewBox="0 0 30 15.625"><g transform="translate(0 -6.5)"><g transform="translate(22.5 8.375)"><path d="M20.5,13A2.5,2.5,0,1,1,23,10.5,2.507,2.507,0,0,1,20.5,13Zm0-3.75a1.181,1.181,0,0,0-1.25,1.25,1.25,1.25,0,1,0,2.5,0A1.181,1.181,0,0,0,20.5,9.25Z" transform="translate(-18 -8)"/></g><g transform="translate(22.5 14.625)"><path d="M24.875,18a.59.59,0,0,1-.625-.625v-1.25a1.922,1.922,0,0,0-1.875-1.875h-3.75a.625.625,0,0,1,0-1.25h3.75A3.1,3.1,0,0,1,25.5,16.125v1.25A.59.59,0,0,1,24.875,18Z" transform="translate(-18 -13)"/></g><g transform="translate(2.5 8.375)"><path d="M4.5,13A2.5,2.5,0,1,1,7,10.5,2.507,2.507,0,0,1,4.5,13Zm0-3.75A1.181,1.181,0,0,0,3.25,10.5,1.181,1.181,0,0,0,4.5,11.75,1.181,1.181,0,0,0,5.75,10.5,1.181,1.181,0,0,0,4.5,9.25Z" transform="translate(-2 -8)"/></g><g transform="translate(0 14.625)"><path d="M.625,18A.59.59,0,0,1,0,17.375v-1.25A3.1,3.1,0,0,1,3.125,13h3.75a.625.625,0,0,1,0,1.25H3.125A1.922,1.922,0,0,0,1.25,16.125v1.25A.59.59,0,0,1,.625,18Z" transform="translate(0 -13)"/></g><g transform="translate(11.25 6.5)"><path d="M12.75,14A3.683,3.683,0,0,1,9,10.25,3.683,3.683,0,0,1,12.75,6.5a3.683,3.683,0,0,1,3.75,3.75A3.683,3.683,0,0,1,12.75,14Zm0-6.25a2.5,2.5,0,1,0,2.5,2.5A2.507,2.507,0,0,0,12.75,7.75Z" transform="translate(-9 -6.5)"/></g><g transform="translate(8.125 15.875)"><path d="M19.625,20.25A.59.59,0,0,1,19,19.625v-2.5a1.922,1.922,0,0,0-1.875-1.875h-7.5A1.922,1.922,0,0,0,7.75,17.125v2.5a.625.625,0,1,1-1.25,0v-2.5A3.1,3.1,0,0,1,9.625,14h7.5a3.1,3.1,0,0,1,3.125,3.125v2.5A.59.59,0,0,1,19.625,20.25Z" transform="translate(-6.5 -14)"/></g></g></svg>