<svg xmlns="http://www.w3.org/2000/svg" width="23.328" height="23.331" viewBox="0 0 23.328 23.331"><path d="M22.7,10.147l0,0L13.183.629a2.147,2.147,0,0,0-3.038,0L.633,10.14l-.01.01A2.147,2.147,0,0,0,2.053,13.81q.033,0,.066,0H2.5v7A2.517,2.517,0,0,0,5.012,23.33H8.736a.684.684,0,0,0,.684-.684V17.156a1.148,1.148,0,0,1,1.147-1.147h2.2a1.148,1.148,0,0,1,1.147,1.147v5.491a.683.683,0,0,0,.684.684h3.723a2.517,2.517,0,0,0,2.514-2.514v-7h.352a2.148,2.148,0,0,0,1.52-3.666Zm0,0" transform="translate(0 0.001)"/></svg>