<svg xmlns="http://www.w3.org/2000/svg" width="73.757" height="76.93" viewBox="0 0 73.757 76.93"><defs><style>.a{fill:#875b7c;stroke:#000;stroke-miterlimit:10;opacity:0.5;}</style></defs><g transform="translate(1260.5 4609)"><g transform="translate(-1260 -4609)"><path d="M232.9,476.578a9.995,9.995,0,0,0-.524-1.12,1.988,1.988,0,0,0-1.1-.994c.383-2.176-.848-4.756-.979-4.031-.49,2.7-5.913.548-10.663-.246-7.3-1.221-9.856.168-9.8,3.6a2.727,2.727,0,0,0-3.069.322,10.365,10.365,0,0,0-1.9,2.781,36.4,36.4,0,0,1,28.038-.313Z" transform="translate(-182.885 -469.751)"/><path class="a" d="M236.2,487.985c1.062-.176,1.8.316,1.574,1.766-.314,2.034-.782,7.508-1.878,8.445a3.756,3.756,0,0,1-1.284.77,19.866,19.866,0,0,1-1.577,6.368,12.544,12.544,0,0,1-1.766,2.562c-.031,1.113,0,2.252.071,3.34l3.18,4.795,18.569,7.722a14.839,14.839,0,0,1,2.214,1.049,36.386,36.386,0,0,0-20.014-47.545A20.05,20.05,0,0,1,236.2,487.985Z" transform="translate(-185.275 -470.431)"/><path class="a" d="M204.7,516l2.734-4.549c.045-1.2.052-2.435.024-3.631a14.175,14.175,0,0,1-1.986-3.159,30.637,30.637,0,0,1-1.522-4.824c-.613.264-1.4-.077-2.185-.753-1.095-.938-1.564-6.413-1.877-8.445-.236-1.528.589-2,1.743-1.737-.989-5.321-.064-9,1.05-11.3a36.383,36.383,0,0,0-19.337,47.027,14.994,14.994,0,0,1,2.972-1.642Z" transform="translate(-180.697 -470.462)"/><path d="M217.339,547.1a36.384,36.384,0,0,0,33.654-22.558,14.834,14.834,0,0,0-2.214-1.049l-18.569-7.722-3.18-4.795c-.069-1.089-.1-2.227-.071-3.34a12.545,12.545,0,0,0,1.766-2.562A19.867,19.867,0,0,0,230.3,498.7a3.756,3.756,0,0,0,1.284-.77c1.1-.938,1.564-6.412,1.878-8.445.223-1.451-.512-1.943-1.574-1.766a20.05,20.05,0,0,0-.91-10.727,36.4,36.4,0,0,0-28.038.313c-1.113,2.3-2.038,5.981-1.05,11.3-1.154-.259-1.979.209-1.743,1.737.313,2.033.782,7.508,1.877,8.445.788.676,1.572,1.017,2.185.753a30.637,30.637,0,0,0,1.522,4.824,14.175,14.175,0,0,0,1.986,3.159c.028,1.2.022,2.427-.024,3.632l-2.734,4.549-18.385,6.986a14.994,14.994,0,0,0-2.972,1.642A36.383,36.383,0,0,0,217.339,547.1Z" transform="translate(-180.96 -470.167)"/></g></g></svg>