<svg xmlns="http://www.w3.org/2000/svg" width="32.174" height="23.302" viewBox="0 0 32.174 23.302"><defs><style>.a{fill:#373633;}</style></defs><g transform="translate(0 -70.588)"><path class="a" d="M411.736,93.614a.943.943,0,0,1,0-1.333,14.209,14.209,0,0,0,0-20.084.943.943,0,0,1,1.333-1.333,16.094,16.094,0,0,1,0,22.75A.943.943,0,0,1,411.736,93.614Z" transform="translate(-385.604)"/><path class="a" d="M366.315,133.325a.943.943,0,0,1,0-1.333,10.17,10.17,0,0,0,0-14.376.943.943,0,0,1,1.333-1.333,12.055,12.055,0,0,1,0,17.042A.943.943,0,0,1,366.315,133.325Z" transform="translate(-343.037 -42.565)"/><path class="a" d="M320.862,173.066a.943.943,0,0,1,0-1.333,6.129,6.129,0,0,0,0-8.664.943.943,0,0,1,1.333-1.333,8.014,8.014,0,0,1,0,11.33A.943.943,0,0,1,320.862,173.066Z" transform="translate(-300.44 -85.163)"/><path class="a" d="M4.709,93.614a16.094,16.094,0,0,1,0-22.75A.943.943,0,0,1,6.042,72.2a14.209,14.209,0,0,0,0,20.084.943.943,0,1,1-1.333,1.333Z" transform="translate(0 0)"/><path class="a" d="M67.746,133.324a12.055,12.055,0,0,1,0-17.042.943.943,0,0,1,1.333,1.333,10.17,10.17,0,0,0,0,14.376.943.943,0,0,1-1.333,1.333Z" transform="translate(-60.184 -42.565)"/><path class="a" d="M130.832,173.065a8.014,8.014,0,0,1,0-11.33.943.943,0,0,1,1.333,1.333,6.129,6.129,0,0,0,0,8.664.943.943,0,0,1-1.333,1.333Z" transform="translate(-120.413 -85.161)"/><circle class="a" cx="3.971" cy="3.971" r="3.971" transform="translate(12.115 78.267)"/><path class="a" d="M196.771,259.971A3.976,3.976,0,0,0,200.743,256H192.8A3.976,3.976,0,0,0,196.771,259.971Z" transform="translate(-180.685 -173.761)"/></g></svg>