<svg xmlns="http://www.w3.org/2000/svg" width="30" height="29.658" viewBox="0 0 30 29.658"><g transform="translate(0 0)"><path d="M33.637,13.9a2.639,2.639,0,0,0,1.825-.733l2.6,1.286a2.524,2.524,0,0,0-.032.316,2.637,2.637,0,0,0,5.273,0,2.551,2.551,0,0,0-.264-1.117l3.529-3.489A2.625,2.625,0,0,0,50.336,7.82a2.541,2.541,0,0,0-.132-.772l3.067-2.273a2.64,2.64,0,0,0,4.1-2.168,2.637,2.637,0,0,0-5.273,0,2.541,2.541,0,0,0,.132.772L49.159,5.652a2.64,2.64,0,0,0-4.1,2.168,2.551,2.551,0,0,0,.264,1.117L41.8,12.426a2.614,2.614,0,0,0-2.955.472l-2.6-1.286a2.524,2.524,0,0,0,.032-.316A2.637,2.637,0,1,0,33.637,13.9Zm0,0" transform="translate(-29.184 0)"/><path d="M29.121,169.231h-.937V150.869A.874.874,0,0,0,27.3,150H23.789a.874.874,0,0,0-.879.869v18.362H21.152V156.082a.874.874,0,0,0-.879-.869H16.758a.874.874,0,0,0-.879.869v13.149H14.121v-6.2a.874.874,0,0,0-.879-.869H9.727a.874.874,0,0,0-.879.869v6.2H7.09v-9.673a.874.874,0,0,0-.879-.869H2.7a.874.874,0,0,0-.879.869v9.673H.879a.869.869,0,1,0,0,1.738H29.121a.869.869,0,1,0,0-1.738Zm0,0" transform="translate(0 -141.311)"/></g></svg>