<svg xmlns="http://www.w3.org/2000/svg" width="30" height="24.783" viewBox="0 0 30 24.783"><defs><style>.a{fill:#fff;}</style></defs><g transform="translate(-0.001)"><g transform="translate(0.001)"><ellipse class="a" cx="1.25" cy="1.304" rx="1.25" ry="1.304" transform="translate(13.75 15.652)"/><path class="a" d="M15,0A14.921,14.921,0,0,0,1.816,8.189a16.239,16.239,0,0,0,.611,16,1.238,1.238,0,0,0,1.047.592H26.527a1.238,1.238,0,0,0,1.047-.592,16.238,16.238,0,0,0,.612-16A14.922,14.922,0,0,0,15,0Zm3.248,18.913a3.666,3.666,0,0,1-5.123,1.432A4.007,4.007,0,0,1,11.753,15c1.034-1.869,7-4.821,7-4.821S19.282,17.045,18.248,18.913Zm8.886,1.957H25.768a12.731,12.731,0,0,0,1.041-3.913H25V14.348H26.81a12.709,12.709,0,0,0-.96-3.725l-1.563.942-1.25-2.259,1.561-.94a12.247,12.247,0,0,0-2.612-2.726l-.9,1.628-2.165-1.3.9-1.631a11.391,11.391,0,0,0-3.571-1V5.217h-2.5V3.33a11.391,11.391,0,0,0-3.57,1l.9,1.631-2.165,1.3-.9-1.628A12.247,12.247,0,0,0,5.4,8.365l1.561.94-1.25,2.259-1.563-.942a12.709,12.709,0,0,0-.96,3.725H5v2.609H3.192A12.731,12.731,0,0,0,4.233,20.87H2.868A14.068,14.068,0,0,1,7.015,4.777a12.694,12.694,0,0,1,15.971,0A14.068,14.068,0,0,1,27.133,20.87Z" transform="translate(-0.001)"/></g></g></svg>