<svg xmlns="http://www.w3.org/2000/svg" width="17.235" height="30" viewBox="0 0 17.235 30"><g transform="translate(-91.301)"><g transform="translate(91.301)"><g transform="translate(0)"><path d="M104.772,18.755a7.31,7.31,0,0,0-2.226-2.226V3.934a3.934,3.934,0,0,0-7.869,0V16.529a7.31,7.31,0,1,0,10.095,2.226Zm-2.327,4.29a3.865,3.865,0,0,1-3.836,3.316v-.006a3.865,3.865,0,0,1-.559-7.69V10.187a.559.559,0,1,1,1.119,0v8.484A3.865,3.865,0,0,1,102.445,23.045Z" transform="translate(-91.301)"/></g></g><g transform="translate(95.863 19.745)"><g transform="translate(0)"><circle cx="2.746" cy="2.746" r="2.746"/></g></g><g transform="translate(103.922 3.845)"><g transform="translate(0)"><path d="M275.889,55h-3.5a.559.559,0,0,0,0,1.119h3.5a.559.559,0,0,0,0-1.119Z" transform="translate(-271.834 -55)"/></g></g><g transform="translate(104.643 6.641)"><g transform="translate(0)"><path d="M284.766,95h-2.052a.559.559,0,1,0,0,1.119h2.052a.559.559,0,1,0,0-1.119Z" transform="translate(-282.154 -95)"/></g></g><g transform="translate(103.922 9.438)"><g transform="translate(0)"><path d="M275.889,135h-3.5a.559.559,0,0,0,0,1.119h3.5a.559.559,0,0,0,0-1.119Z" transform="translate(-271.834 -135)"/></g></g><g transform="translate(104.643 12.234)"><g transform="translate(0)"><path d="M284.766,175h-2.052a.559.559,0,1,0,0,1.119h2.052a.559.559,0,1,0,0-1.119Z" transform="translate(-282.154 -175)"/></g></g><g transform="translate(103.922 15.03)"><g transform="translate(0)"><path d="M275.889,215h-3.5a.559.559,0,1,0,0,1.119h3.5a.559.559,0,0,0,0-1.119Z" transform="translate(-271.834 -215)"/></g></g></g></svg>