<svg xmlns="http://www.w3.org/2000/svg" width="20.807" height="20.807" viewBox="0 0 20.807 20.807"><defs><style>.a{fill:#875b7c;}</style></defs><g transform="translate(0)"><path class="a" d="M412,126.406a.406.406,0,1,0,.406-.406A.407.407,0,0,0,412,126.406Zm0,0" transform="translate(-395.257 -120.879)"/><path class="a" d="M433.455,164.129a7.743,7.743,0,0,1-.155,1.544.406.406,0,0,0,.317.479.4.4,0,0,0,.082.008.407.407,0,0,0,.4-.325,8.554,8.554,0,0,0,.171-1.707,8.442,8.442,0,0,0-.825-3.66.406.406,0,1,0-.734.35A7.636,7.636,0,0,1,433.455,164.129Zm0,0" transform="translate(-415.087 -153.725)"/><path class="a" d="M200.47,211.689h-.406v-5.283a.406.406,0,0,0-.406-.406h-3.251a.406.406,0,0,0-.406.406v1.626a.406.406,0,0,0,.406.406h.406v3.251h-.406a.406.406,0,0,0-.406.406v1.626a.406.406,0,0,0,.406.406h4.064a.406.406,0,0,0,.406-.406V212.1A.406.406,0,0,0,200.47,211.689Zm-.406,1.626h-3.251V212.5h.406a.406.406,0,0,0,.406-.406v-4.064a.406.406,0,0,0-.406-.406h-.406v-.813h2.438V212.1a.406.406,0,0,0,.406.406h.406Zm0,0" transform="translate(-188.035 -197.628)"/><path class="a" d="M217.626,109.251A1.626,1.626,0,1,0,216,107.626,1.627,1.627,0,0,0,217.626,109.251Zm0-2.438a.813.813,0,1,1-.813.813A.814.814,0,0,1,217.626,106.813Zm0,0" transform="translate(-207.222 -101.692)"/><path class="a" d="M10.4,0A10.58,10.58,0,0,0,0,10.4a11.082,11.082,0,0,0,1.477,5.5L.02,20.272a.406.406,0,0,0,.514.514L4.9,19.33a11.079,11.079,0,0,0,5.5,1.477,10.579,10.579,0,0,0,10.4-10.4A10.579,10.579,0,0,0,10.4,0Zm0,19.994a10.165,10.165,0,0,1-5.233-1.453.406.406,0,0,0-.346-.042L1.049,19.758l1.259-3.776a.406.406,0,0,0-.042-.346A10.164,10.164,0,0,1,.812,10.4,9.719,9.719,0,0,1,10.4.813,9.719,9.719,0,0,1,19.994,10.4,9.719,9.719,0,0,1,10.4,19.994Zm0,0" transform="translate(0)"/></g></svg>