<svg xmlns="http://www.w3.org/2000/svg" width="72.573" height="36.017" viewBox="0 0 72.573 36.017"><defs><style>.a{fill:none;stroke:#000;stroke-miterlimit:10;}.b{fill:#fff;}</style></defs><path d="M72.573,36.017c-8.326-1.523-7.754-10.795-8.052-10.849l-.337-8.389-.4-.135V11.489L63,11.118V9.029L62.3,8.895V4.178L26.651,9.67c-2.19.3-2.224-1.179-2.224-1.179l-20.047,3c-1.853,2.123-2.864,0-2.864,0H0V10.411l1.381-.337c1.037-2.129,2.952-.557,2.729-.4L24.191,7.075A1.688,1.688,0,0,1,25.3,5.357L62.061.741,62.095,0h4.38l.135,8.828-.472.1.135,7.682-.472.27.067,8.019c-.058.155.169,8.2,6.7,9.872Z"/><path class="a" d="M31.571,107.736" transform="translate(-22.884 -78.092)"/><path class="b" d="M101.613,22.3l-.234-.144a3.089,3.089,0,0,0,.511-2.372,2.911,2.911,0,0,0-1.2-1.64l.141-.236a3.139,3.139,0,0,1,1.327,1.807A3.349,3.349,0,0,1,101.613,22.3Z" transform="translate(-72.983 -12.983)"/></svg>