<svg xmlns="http://www.w3.org/2000/svg" width="59.842" height="59.842" viewBox="0 0 59.842 59.842"><defs><style>.a{fill:#020202;}.b,.d,.e,.f{fill:none;stroke-miterlimit:10;}.b{stroke:#000;}.c{fill:#fff;stroke:rgba(0,0,0,0);}.d{stroke:#f9f9f9;}.d,.e{stroke-width:1.111px;}.e,.f{stroke:#fff;}</style></defs><g transform="translate(57.426 15.817) rotate(135)"><g transform="translate(-3.036 -0.707)"><path class="a" d="M47.447,7.015.5,6.966V19.5H47.263a10.038,10.038,0,0,0,10.366,3.319,9.881,9.881,0,0,0,7.786-9.429c-.024-2.4-1.152-8.354-8.984-9.875C56.431,3.514,50.856,2.827,47.447,7.015Z" transform="translate(-0.5 -3.145)"/><path class="b" d="M471.684,0" transform="translate(-427.363)"/><rect class="c" width="11.777" height="1.935" transform="translate(0 6.98)"/><rect class="c" width="11.777" height="1.935" transform="translate(0 10.85)"/><circle class="c" cx="5.032" cy="5.032" r="5.032" transform="translate(49.812 5.151)"/><line class="d" x1="37.501" transform="translate(11.777 8.155)"/><line class="e" x1="38.128" y1="0.49" transform="translate(11.149 11.881)"/><circle class="f" cx="5.943" cy="5.943" r="5.943" transform="translate(48.901 4.24)"/></g></g></svg>