<svg xmlns="http://www.w3.org/2000/svg" width="48.367" height="48.367" viewBox="0 0 48.367 48.367"><defs><style>.a{fill:#fff;}.b,.c{fill:none;}.b{stroke:#020202;stroke-miterlimit:10;}</style></defs><g transform="translate(35.596) rotate(45)"><rect class="a" width="3.143" height="16.304" transform="translate(12.89 36.064)"/><rect class="a" width="3.143" height="16.304" transform="translate(2.028 36.064)"/><path class="a" d="M13.3,39.753h-2.58V33.494L6.667,30.282V2.883A1.213,1.213,0,0,1,7.878,1.672h.158A1.212,1.212,0,0,1,9.247,2.883v26.33a.66.66,0,0,0,.659.659h.158a.66.66,0,0,0,.659-.659V2.883a1.212,1.212,0,0,1,1.211-1.211h.158A1.213,1.213,0,0,1,13.3,2.883v26.33a.66.66,0,0,0,.659.659h.158a.66.66,0,0,0,.659-.659V2.883A1.212,1.212,0,0,1,15.99,1.672h.158a1.212,1.212,0,0,1,1.211,1.211v27.4L13.3,33.494ZM11.275,39.2h1.476V33.227l4.056-3.212V2.883a.659.659,0,0,0-.659-.659H15.99a.66.66,0,0,0-.659.659v26.33a1.213,1.213,0,0,1-1.211,1.211h-.158a1.213,1.213,0,0,1-1.211-1.211V2.883a.659.659,0,0,0-.659-.659h-.158a.659.659,0,0,0-.659.659v26.33a1.213,1.213,0,0,1-1.211,1.211H9.906a1.213,1.213,0,0,1-1.211-1.211V2.883a.659.659,0,0,0-.659-.659H7.878a.659.659,0,0,0-.659.659V30.015l4.056,3.212Z" transform="translate(-2.986 -0.749)"/><path class="b" d="M17.734,59.072" transform="translate(-7.944 -26.46)"/><path class="b" d="M14.06,59.072" transform="translate(-6.298 -26.46)"/><path class="c" d="M6.667,53.5l4.052,3.212,0,6.259V56.708Z" transform="translate(-2.986 -23.962)"/><path class="c" d="M7.667,30.463l4.056,3.212v5.974H13.2V33.675l4.056-3.212V3.331a.659.659,0,0,0-.659-.659h-.158a.66.66,0,0,0-.659.659v26.33a1.213,1.213,0,0,1-1.211,1.211H14.41A1.213,1.213,0,0,1,13.2,29.662V3.331a.659.659,0,0,0-.659-.659h-.158a.659.659,0,0,0-.659.659v26.33a1.213,1.213,0,0,1-1.211,1.211h-.158a1.213,1.213,0,0,1-1.211-1.211V3.607H7.667Z" transform="translate(-3.434 -1.197)"/><path class="a" d="M3.681,29.534V2.134A1.213,1.213,0,0,1,4.892.923H5.05A1.212,1.212,0,0,1,6.26,2.134V0H0V39H2.028v-2.94H5.171V39H7.737l0-6.259Z"/><path class="a" d="M22.758,29.534V2.134A1.213,1.213,0,0,0,21.547.923h-.158a1.212,1.212,0,0,0-1.211,1.211V0h6.26V39H24.411v-2.94H21.267V39H18.7l0-6.259Z" transform="translate(-8.377)"/></g></svg>