<svg xmlns="http://www.w3.org/2000/svg" width="37" height="37" viewBox="0 0 37 37"><defs><style>.a{fill:#000;}</style></defs><g transform="translate(0 17.424)"><path class="a" d="M31.58,240H5.42a5.36,5.36,0,1,0,0,10.719H31.58a5.36,5.36,0,1,0,0-10.719ZM5.42,246.432A1.072,1.072,0,1,1,6.5,245.36,1.078,1.078,0,0,1,5.42,246.432Zm4.408,0a1.072,1.072,0,1,1,1.084-1.072A1.078,1.078,0,0,1,9.828,246.432Zm4.336,0a1.072,1.072,0,1,1,1.084-1.072A1.078,1.078,0,0,1,14.164,246.432Zm17.416,0H22.836a1.072,1.072,0,1,1,0-2.144H31.58a1.072,1.072,0,1,1,0,2.144Z" transform="translate(0 -240)"/></g><g transform="translate(6.816)"><path class="a" d="M115.562,4.71a16.078,16.078,0,0,0-22.739,0,1.072,1.072,0,0,0,1.516,1.516,13.935,13.935,0,0,1,19.707,0,1.072,1.072,0,1,0,1.516-1.516Z" transform="translate(-92.509)"/></g><g transform="translate(9.848 4.288)"><path class="a" d="M151.921,63.453a11.792,11.792,0,0,0-16.676,0,1.072,1.072,0,0,0,1.516,1.516,9.649,9.649,0,0,1,13.644,0,1.072,1.072,0,0,0,1.516-1.516Z" transform="translate(-134.931 -60)"/></g><g transform="translate(12.883 8.757)"><path class="a" d="M188.317,123.146a7.673,7.673,0,0,0-10.606,0,1.072,1.072,0,1,0,1.516,1.516,5.474,5.474,0,0,1,7.575,0,1.072,1.072,0,1,0,1.516-1.516Z" transform="translate(-177.397 -121.018)"/></g><g transform="translate(15.913 13.051)"><path class="a" d="M224.663,181.345a3.287,3.287,0,0,0-4.545,0,1.072,1.072,0,0,0,1.516,1.516,1.092,1.092,0,0,1,1.514,0,1.072,1.072,0,0,0,1.516-1.516Z" transform="translate(-219.804 -180.432)"/></g><g transform="translate(8.853 30.425)"><path class="a" d="M137.079,422.287h-3.216V420h-6.432v2.287h-3.216A3.216,3.216,0,0,0,121,425.5a1.072,1.072,0,0,0,1.072,1.072h17.151a1.072,1.072,0,0,0,1.072-1.072A3.216,3.216,0,0,0,137.079,422.287Z" transform="translate(-121 -420)"/></g></svg>