<svg xmlns="http://www.w3.org/2000/svg" width="37" height="36.992" viewBox="0 0 37 36.992"><defs><style>.a{fill:#fff;}</style></defs><g transform="translate(0 0)"><g transform="translate(0 0)"><path class="a" d="M9.25,187.75H1.324c-.728,0-1.316.969-1.324,2.18v32.633c0,1.211.6,2.18,1.324,2.18H9.25c.735,0,1.324-.982,1.324-2.18V189.93C10.574,188.719,9.978,187.75,9.25,187.75Z" transform="translate(0 -187.75)"/></g><g transform="translate(13.213 23.779)"><g transform="translate(0 0)"><path class="a" d="M179.95.05h-7.926c-.728,0-1.324.21-1.324.47V12.79c0,.263.6.473,1.324.473h7.926c.735,0,1.324-.213,1.324-.473V.523C181.274.26,180.678.05,179.95.05Z" transform="translate(-170.7 -0.05)"/></g></g><g transform="translate(26.426 18.496)"><path class="a" d="M350.65,136.55h-7.926c-.735,0-1.324.412-1.324.926V154.12c0,.515.6.926,1.324.926h7.926c.735,0,1.324-.417,1.324-.926V137.476C351.974,136.962,351.378,136.55,350.65,136.55Z" transform="translate(-341.4 -136.55)"/></g></g></svg>