<svg xmlns="http://www.w3.org/2000/svg" width="37" height="37" viewBox="0 0 37 37"><defs><style>.a{fill:#000;}</style></defs><g transform="translate(37 37) rotate(180)"><path class="a" d="M14.26,0H2.7A2.7,2.7,0,0,0,0,2.7V9.635a2.7,2.7,0,0,0,2.7,2.7H14.26a2.7,2.7,0,0,0,2.7-2.7V2.7A2.7,2.7,0,0,0,14.26,0Zm0,0" transform="translate(0 0)"/><path class="a" d="M14.26,213.332H2.7a2.7,2.7,0,0,0-2.7,2.7v16.188a2.7,2.7,0,0,0,2.7,2.7H14.26a2.7,2.7,0,0,0,2.7-2.7V216.03A2.7,2.7,0,0,0,14.26,213.332Zm0,0" transform="translate(0 -197.915)"/><path class="a" d="M291.593,341.332H280.03a2.7,2.7,0,0,0-2.7,2.7v6.938a2.7,2.7,0,0,0,2.7,2.7h11.563a2.7,2.7,0,0,0,2.7-2.7V344.03A2.7,2.7,0,0,0,291.593,341.332Zm0,0" transform="translate(-257.29 -316.665)"/><path class="a" d="M291.593,0H280.03a2.7,2.7,0,0,0-2.7,2.7V18.885a2.7,2.7,0,0,0,2.7,2.7h11.563a2.7,2.7,0,0,0,2.7-2.7V2.7A2.7,2.7,0,0,0,291.593,0Zm0,0" transform="translate(-257.29 0)"/></g></svg>