<svg xmlns="http://www.w3.org/2000/svg" width="37" height="37" viewBox="0 0 37 37"><defs><style>.a{fill:#000;}.b{fill:#78576f;}</style></defs><g transform="translate(0 0)"><path class="a" d="M36,14.9l-1.833-.228a.057.057,0,0,1-.048-.043A16,16,0,0,0,32.278,10.2a.057.057,0,0,1,0-.065L33.42,8.672a1.143,1.143,0,0,0-.094-1.508l-3.49-3.49a1.143,1.143,0,0,0-1.508-.094L26.858,4.725a.057.057,0,0,1-.065,0A15.994,15.994,0,0,0,22.375,2.9a.057.057,0,0,1-.043-.048L22.1,1a1.143,1.143,0,0,0-1.133-1H16.032A1.143,1.143,0,0,0,14.9,1l-.231,1.852a.057.057,0,0,1-.043.048,15.994,15.994,0,0,0-4.418,1.828.057.057,0,0,1-.065,0L8.672,3.58a1.143,1.143,0,0,0-1.508.094l-3.49,3.49A1.143,1.143,0,0,0,3.58,8.672l1.139,1.463a.057.057,0,0,1,0,.065,15.994,15.994,0,0,0-1.841,4.428.057.057,0,0,1-.048.043L1,14.9a1.143,1.143,0,0,0-1,1.133v4.936A1.143,1.143,0,0,0,1,22.1l1.82.227a.057.057,0,0,1,.048.043,16,16,0,0,0,1.837,4.451.057.057,0,0,1,0,.065L3.58,28.328a1.143,1.143,0,0,0,.094,1.508l3.49,3.49a1.143,1.143,0,0,0,1.508.094L10.106,32.3a.057.057,0,0,1,.065,0,16,16,0,0,0,4.461,1.851.056.056,0,0,1,.043.048L14.9,36a1.143,1.143,0,0,0,1.133,1h4.936A1.143,1.143,0,0,0,22.1,36l.224-1.8a.057.057,0,0,1,.043-.048c.463-.114.926-.251,1.376-.406.283-.1,1.8-.741,2.065-.877.345-.176.688-.367,1.019-.568a.057.057,0,0,1,.065,0l1.434,1.117a1.143,1.143,0,0,0,1.508-.094l3.49-3.49a1.143,1.143,0,0,0,.094-1.508L32.3,26.887a.057.057,0,0,1,0-.065,15.991,15.991,0,0,0,1.837-4.451.057.057,0,0,1,.048-.043L36,22.1a1.143,1.143,0,0,0,1-1.133V16.032A1.143,1.143,0,0,0,36,14.9Z" transform="translate(37 37) rotate(180)"/><path class="b" d="M110.524,122.2a11.332,11.332,0,1,0-11.332-11.332A11.345,11.345,0,0,0,110.524,122.2Zm-5.452-2.659v-3.878a3.059,3.059,0,0,1,2.339-2.969l-.744,2.977a1.142,1.142,0,0,0,1.107,1.418c.031,0,.063,0,.094,0l1.677,2.8a1.141,1.141,0,0,0,1.958,0l1.677-2.8c.031,0,.063,0,.094,0a1.142,1.142,0,0,0,1.107-1.418l-.744-2.977a3.059,3.059,0,0,1,2.339,2.969v3.878a10.226,10.226,0,0,1-10.9,0Zm1.8-14.068v-.6a1.858,1.858,0,0,1,1.856-1.856h3.6a1.858,1.858,0,0,1,1.856,1.856v.6a.058.058,0,0,1-.057.057h-7.193A.058.058,0,0,1,106.87,105.476Zm.6,1.141h6.109v1.856a3.055,3.055,0,0,1-3.107,3.054,3.1,3.1,0,0,1-3-3.113Zm5.63,9.336-1.73-.577,1.324-1.987.637,2.548a.057.057,0,0,1-.074.068l-.154-.051h0Zm-5.153,0-.154.051a.057.057,0,0,1-.074-.068l.637-2.548,1.324,1.987-1.731.577Zm2.578-1.265-1.385-2.077h2.77Zm0,1.548,1.585.528-1.536,2.56a.057.057,0,0,1-.1,0l-1.536-2.56Zm0-15.615a10.244,10.244,0,0,1,6.536,18.134v-3.091a4.144,4.144,0,0,0-3.764-4.121c.044-.04.087-.08.13-.121a4.108,4.108,0,0,0,1.237-2.951V106.48a1.142,1.142,0,0,0,.6-1v-.6a2.943,2.943,0,0,0-2.94-2.94h-3.6a2.943,2.943,0,0,0-2.94,2.94v.6a1.142,1.142,0,0,0,.6,1v1.934a4.22,4.22,0,0,0,1.392,3.13,4.143,4.143,0,0,0-3.79,4.123v3.091a10.244,10.244,0,0,1,6.536-18.134Z" transform="translate(-92.024 -92.346)"/><path class="b" d="M70.033,71.148a.542.542,0,0,0-.764.063,13.73,13.73,0,1,0,1.6-1.6.542.542,0,1,0,.7.827,12.646,12.646,0,1,1-1.47,1.47.542.542,0,0,0-.063-.764Z" transform="translate(-61.243 -61.564)"/></g></svg>