<svg xmlns="http://www.w3.org/2000/svg" width="37" height="37" viewBox="0 0 37 37"><defs><style>.a{fill:#000;}</style></defs><g transform="translate(-46.913 -46.913)"><g transform="translate(46.913 46.913)"><path class="a" d="M.92,7.971A.92.92,0,0,1,0,7.051V3.372A3.375,3.375,0,0,1,3.372,0H7.051a.92.92,0,1,1,0,1.839H3.372A1.535,1.535,0,0,0,1.839,3.372V7.051A.92.92,0,0,1,.92,7.971Z"/><path class="a" d="M7.051,25.471H3.372A3.375,3.375,0,0,1,0,22.1V18.42a.92.92,0,1,1,1.839,0V22.1a1.535,1.535,0,0,0,1.533,1.533H7.051a.92.92,0,1,1,0,1.839Z" transform="translate(0 11.529)"/><path class="a" d="M24.551,7.971a.92.92,0,0,1-.92-.92V3.372A1.535,1.535,0,0,0,22.1,1.839H18.42A.92.92,0,1,1,18.42,0H22.1a3.375,3.375,0,0,1,3.372,3.372V7.051A.92.92,0,0,1,24.551,7.971Z" transform="translate(11.529)"/><path class="a" d="M22.1,25.471H18.42a.92.92,0,1,1,0-1.839H22.1A1.535,1.535,0,0,0,23.631,22.1V18.42a.92.92,0,1,1,1.839,0V22.1A3.375,3.375,0,0,1,22.1,25.471Z" transform="translate(11.529 11.529)"/></g><g transform="translate(51.783 53.114)"><g transform="translate(0 9.838)"><path class="a" d="M23.884,240H4.1a4.1,4.1,0,0,0,0,8.2H23.884a4.1,4.1,0,0,0,0-8.2ZM4.1,244.919a.82.82,0,1,1,.82-.82A.82.82,0,0,1,4.1,244.919Zm3.334,0a.82.82,0,1,1,.82-.82A.82.82,0,0,1,7.433,244.919Zm3.279,0a.82.82,0,1,1,.82-.82A.82.82,0,0,1,10.712,244.919Zm13.172,0H17.271a.82.82,0,0,1,0-1.64h6.613a.82.82,0,0,1,0,1.64Z" transform="translate(0 -240)"/></g><g transform="translate(7.374 0)"><path class="a" d="M147.924,62.641a9.018,9.018,0,0,0-12.753,0A.82.82,0,0,0,136.33,63.8a7.379,7.379,0,0,1,10.435,0,.82.82,0,0,0,1.159-1.159Z" transform="translate(-134.931 -60)"/></g><g transform="translate(9.695 3.335)"><path class="a" d="M185.749,122.645a5.868,5.868,0,0,0-8.112,0A.82.82,0,0,0,178.8,123.8a4.187,4.187,0,0,1,5.793,0,.82.82,0,1,0,1.159-1.159Z" transform="translate(-177.397 -121.018)"/></g><g transform="translate(12.013 6.582)"><path class="a" d="M223.52,181.13a2.514,2.514,0,0,0-3.476,0,.82.82,0,0,0,1.159,1.159.836.836,0,0,1,1.158,0,.82.82,0,0,0,1.159-1.159Z" transform="translate(-219.804 -180.432)"/></g><g transform="translate(6.613 19.675)"><path class="a" d="M133.3,421.749h-2.459V420h-4.919v1.749h-2.459A2.459,2.459,0,0,0,121,424.208a.82.82,0,0,0,.82.82h13.117a.82.82,0,0,0,.82-.82A2.459,2.459,0,0,0,133.3,421.749Z" transform="translate(-121 -420)"/></g></g></g></svg>