<svg xmlns="http://www.w3.org/2000/svg" width="30.869" height="37" viewBox="0 0 30.869 37"><defs><style>.a{fill:#fff;}.b{fill:#78576f;stroke:#78576f;stroke-width:0.5px;}</style></defs><g transform="translate(0 0)"><path class="a" d="M95.943,17.823a8.623,8.623,0,0,0,6.3-2.611,8.622,8.622,0,0,0,2.611-6.3,8.624,8.624,0,0,0-2.611-6.3,8.91,8.91,0,0,0-12.6,0,8.623,8.623,0,0,0-2.611,6.3,8.623,8.623,0,0,0,2.611,6.3A8.625,8.625,0,0,0,95.943,17.823Zm0,0" transform="translate(-80.743)"/><path class="a" d="M30.794,257.895a22.012,22.012,0,0,0-.3-2.338,18.419,18.419,0,0,0-.575-2.351,11.61,11.61,0,0,0-.966-2.192,8.272,8.272,0,0,0-1.457-1.9A6.425,6.425,0,0,0,25.4,247.8a7.233,7.233,0,0,0-2.672-.484,2.712,2.712,0,0,0-1.448.614c-.434.283-.942.611-1.509.973a8.645,8.645,0,0,1-1.952.86,7.581,7.581,0,0,1-4.776,0,8.626,8.626,0,0,1-1.951-.86c-.561-.359-1.07-.686-1.51-.973a2.709,2.709,0,0,0-1.448-.614,7.224,7.224,0,0,0-2.672.484,6.419,6.419,0,0,0-2.093,1.315,8.274,8.274,0,0,0-1.457,1.9,11.632,11.632,0,0,0-.966,2.193,18.462,18.462,0,0,0-.575,2.35,21.934,21.934,0,0,0-.3,2.339C.025,258.6,0,259.339,0,260.081a6.144,6.144,0,0,0,1.825,4.648,6.569,6.569,0,0,0,4.7,1.715H24.342a6.567,6.567,0,0,0,4.7-1.715,6.141,6.141,0,0,0,1.825-4.648c0-.746-.025-1.481-.075-2.185Zm0,0" transform="translate(0 -229.444)"/><path class="b" d="M344.847,375.658a5.311,5.311,0,1,0,5.311,5.311A5.311,5.311,0,0,0,344.847,375.658Zm2.323,6.221h-1.412v1.413a.912.912,0,0,1-1.823,0v-1.413h-1.412a.911.911,0,1,1,0-1.822h1.412v-1.411a.912.912,0,1,1,1.823,0v1.411h1.412a.911.911,0,1,1,0,1.822Z" transform="translate(-329.291 -353.762)"/></g></svg>