<svg xmlns="http://www.w3.org/2000/svg" width="30.832" height="37" viewBox="0 0 30.832 37"><defs><style>.a{fill:#fff;}.b,.c{stroke:#fff;stroke-width:0.5px;}.b{opacity:0;}.c{fill:#78576f;}</style></defs><g transform="translate(-46 -41.797)"><g transform="translate(46 41.797)"><path class="a" d="M73.4,30.979,70.751,26.6a12.938,12.938,0,0,1-1.868-6.694V16.069A10.737,10.737,0,0,0,61.174,5.808V3.061a3.083,3.083,0,0,0-6.167,0V5.808A10.737,10.737,0,0,0,47.3,16.069v3.837A12.946,12.946,0,0,1,45.432,26.6l-2.647,4.38a.759.759,0,0,0-.009.771.77.77,0,0,0,.669.389H72.737a.774.774,0,0,0,.671-.387A.763.763,0,0,0,73.4,30.979Z" transform="translate(-42.675 0)"/><g transform="translate(10.312 33.758)"><path class="a" d="M188.815,469.333a5.639,5.639,0,0,0,10.208,0Z" transform="translate(-188.815 -469.333)"/></g></g><path class="b" d="M244.966,40.765a.243.243,0,0,0-.287-.238h0a.242.242,0,1,0,.1.474h0A.243.243,0,0,0,244.966,40.765Zm-.191.087a.033.033,0,1,1-.065,0v-.141h-.031a.033.033,0,1,1,0-.065h.063a.033.033,0,0,1,.033.033Z" transform="translate(-183.755 24.37)"/><path class="c" d="M258.952,47.771a7.265,7.265,0,0,0-8.582-7.122h0a7.252,7.252,0,1,0,3.073,14.17c0-.005,0,0,0,0A7.265,7.265,0,0,0,258.952,47.771Zm-5.723,2.6a.976.976,0,1,1-1.951,0V46.145h-.917a.976.976,0,1,1,0-1.951h1.893a.975.975,0,0,1,.975.976Z" transform="translate(-190.023 13.259)"/></g></svg>