<svg xmlns="http://www.w3.org/2000/svg" width="37" height="11.507" viewBox="0 0 37 11.507"><defs><style>.a{fill:#fff;}</style></defs><g transform="translate(-44 -68.229)"><g transform="translate(44 68.562)"><g transform="translate(0 0)"><path class="a" d="M31.58,240H5.42a5.42,5.42,0,0,0,0,10.84H31.58a5.42,5.42,0,0,0,0-10.84ZM5.42,246.5A1.084,1.084,0,1,1,6.5,245.42,1.084,1.084,0,0,1,5.42,246.5Zm4.408,0a1.084,1.084,0,1,1,1.084-1.084A1.084,1.084,0,0,1,9.828,246.5Zm4.336,0a1.084,1.084,0,1,1,1.084-1.084A1.084,1.084,0,0,1,14.164,246.5Zm17.416,0H22.836a1.084,1.084,0,1,1,0-2.168H31.58a1.084,1.084,0,0,1,0,2.168Z" transform="translate(0 -240)"/></g></g><g transform="translate(44 68.229)"><g transform="translate(0 0)"><path class="a" d="M31.58,240H5.42a5.42,5.42,0,0,0,0,10.84H31.58a5.42,5.42,0,0,0,0-10.84ZM5.42,246.5A1.084,1.084,0,1,1,6.5,245.42,1.084,1.084,0,0,1,5.42,246.5Zm4.408,0a1.084,1.084,0,1,1,1.084-1.084A1.084,1.084,0,0,1,9.828,246.5Zm4.336,0a1.084,1.084,0,1,1,1.084-1.084A1.084,1.084,0,0,1,14.164,246.5Zm17.416,0H22.836a1.084,1.084,0,1,1,0-2.168H31.58a1.084,1.084,0,0,1,0,2.168Z" transform="translate(0 -240)"/></g></g><g transform="translate(44 68.895)"><g transform="translate(0 0)"><path class="a" d="M31.58,240H5.42a5.42,5.42,0,0,0,0,10.84H31.58a5.42,5.42,0,0,0,0-10.84ZM5.42,246.5A1.084,1.084,0,1,1,6.5,245.42,1.084,1.084,0,0,1,5.42,246.5Zm4.408,0a1.084,1.084,0,1,1,1.084-1.084A1.084,1.084,0,0,1,9.828,246.5Zm4.336,0a1.084,1.084,0,1,1,1.084-1.084A1.084,1.084,0,0,1,14.164,246.5Zm17.416,0H22.836a1.084,1.084,0,1,1,0-2.168H31.58a1.084,1.084,0,0,1,0,2.168Z" transform="translate(0 -240)"/></g></g></g></svg>