<svg xmlns="http://www.w3.org/2000/svg" xmlns:xlink="http://www.w3.org/1999/xlink" width="196" height="122.098" viewBox="0 0 196 122.098"><defs><style>.a{opacity:0.7;mix-blend-mode:color-burn;}.a,.d,.f{isolation:isolate;}.b{fill:#595959;}.c{fill:url(#a);}.d{mix-blend-mode:screen;fill:url(#b);}.e{fill:url(#c);}.f{mix-blend-mode:multiply;fill:url(#d);}.g,.h{fill:#d6d6d6;}.h{fill-rule:evenodd;}</style><linearGradient id="a" x1="0.315" y1="1.259" x2="0.695" y2="-0.298" gradientUnits="objectBoundingBox"><stop offset="0" stop-color="#070707"/><stop offset="1" stop-color="#404040"/></linearGradient><linearGradient id="b" x1="0.99" y1="0.48" x2="-1.037" y2="0.56" gradientUnits="objectBoundingBox"><stop offset="0"/><stop offset="0.258" stop-color="#020202"/><stop offset="0.38" stop-color="#090909"/><stop offset="0.474" stop-color="#161616"/><stop offset="0.553" stop-color="#282828"/><stop offset="0.622" stop-color="#404040"/><stop offset="0.686" stop-color="#5e5e5e"/><stop offset="0.744" stop-color="#818181"/><stop offset="0.799" stop-color="#aaa"/><stop offset="0.849" stop-color="#d6d6d6"/><stop offset="0.887" stop-color="#fff"/></linearGradient><linearGradient id="c" x1="0.5" y1="-0.269" x2="0.5" y2="2.254" gradientUnits="objectBoundingBox"><stop offset="0" stop-color="#ffca3f"/><stop offset="0.097" stop-color="#ca7c22"/><stop offset="0.189" stop-color="#fddb7a"/><stop offset="0.42" stop-color="#ffad45"/><stop offset="0.554" stop-color="#a95f0d"/><stop offset="0.656" stop-color="#ffad45"/><stop offset="0.79" stop-color="#ffff9b"/><stop offset="0.868" stop-color="#ffed7b"/><stop offset="1" stop-color="#ffca3f"/></linearGradient><linearGradient id="d" x1="0.5" y1="-0.881" x2="0.5" y2="2.278" xlink:href="#c"/></defs><g transform="translate(-43.469 -85.318)"><g class="a"><path class="b" d="M7.5,0H188.5A7.5,7.5,0,0,1,196,7.5V114.6a7.5,7.5,0,0,1-7.5,7.5H7.5A7.5,7.5,0,0,1,0,114.6V7.5A7.5,7.5,0,0,1,7.5,0Z" transform="translate(43.469 85.318)"/></g><path class="c" d="M7.5,0H188.5A7.5,7.5,0,0,1,196,7.5V114.6a7.5,7.5,0,0,1-7.5,7.5H7.5A7.5,7.5,0,0,1,0,114.6V7.5A7.5,7.5,0,0,1,7.5,0Z" transform="translate(43.469 85.318)"/><path class="d" d="M231.971,85.318H94.148l72.553,122.1h65.27a7.5,7.5,0,0,0,7.5-7.5V92.815A7.5,7.5,0,0,0,231.971,85.318Z"/><path class="e" d="M3.724,0H22.346a3.723,3.723,0,0,1,3.723,3.723V16.935a3.724,3.724,0,0,1-3.724,3.724H3.725A3.725,3.725,0,0,1,0,16.933V3.724A3.724,3.724,0,0,1,3.724,0Z" transform="translate(62.213 117.384)"/><path class="f" d="M88.281,123.894v-.477H83.506v-6.033h-.477v6.033H79.16a4.269,4.269,0,0,0-3.676-2.974v-3.059h-.476v3.026a4.273,4.273,0,0,0-4,3.007H67.5v-6.033H67.02v6.033H62.213v.477H67.02v6.759H62.213v.477H67.02v6.912H67.5V131.13h3.412a4.29,4.29,0,0,0,4.1,3.328v3.584h.476v-3.617a4.282,4.282,0,0,0,3.776-3.295h3.769v6.912h.477V131.13h4.775v-.477H85.434v-6.759Zm-17.439,6.759H67.5v-6.759h3.377a4.193,4.193,0,0,0,.926,3.54,4.26,4.26,0,0,0-1.006,2.741A4.158,4.158,0,0,0,70.842,130.653Zm4.242,3.337a3.8,3.8,0,0,1-2.793-6.4l.149-.161-.149-.161a3.814,3.814,0,1,1,5.586,0l-.15.161.15.161a3.8,3.8,0,0,1-2.793,6.4Zm9.873-3.337H79.326a4.158,4.158,0,0,0,.049-.478,4.26,4.26,0,0,0-1.006-2.741,4.193,4.193,0,0,0,.926-3.54h5.662Z"/><path class="g" d="M63.3,152.361l-.611-.638,1.832-1.988h1.521v9.1H65.025V150.8a.867.867,0,0,1,.04-.338l-.04-.039Z"/><path class="g" d="M67.988,158.834v-1.378a.87.87,0,0,1,.034-.3.9.9,0,0,1,.214-.228l4.315-3.938a.649.649,0,0,0,.209-.267,1.422,1.422,0,0,0,.039-.384v-1.156a1.051,1.051,0,0,0-.02-.254.388.388,0,0,0-.136-.149.614.614,0,0,0-.182-.11,1.312,1.312,0,0,0-.3-.02H69.848a1.282,1.282,0,0,0-.3.02.614.614,0,0,0-.182.11.388.388,0,0,0-.136.149.954.954,0,0,0-.02.254v.246H68.119V150.9a.813.813,0,0,1,.313-.651l.31-.259a.981.981,0,0,1,.625-.26h3.276a.977.977,0,0,1,.623.26l.312.259a.813.813,0,0,1,.313.651v1.833a1.422,1.422,0,0,1-.039.384.646.646,0,0,1-.209.265l-4.3,3.887a.586.586,0,0,0-.26.6v.052h4.811v.91Z"/><path class="g" d="M81.1,154.233l.507.416a.808.808,0,0,1,.227.233,1.381,1.381,0,0,1,.033.39v2.393a1.016,1.016,0,0,1-.045.363,1.123,1.123,0,0,1-.2.273l-.234.235a.873.873,0,0,1-.612.3H77.088a.98.98,0,0,1-.625-.259l-.311-.261a.808.808,0,0,1-.312-.649v-.521h1.092v.247a1.023,1.023,0,0,0,.019.254.4.4,0,0,0,.137.148.655.655,0,0,0,.182.112,1.432,1.432,0,0,0,.3.019h2.575a1.432,1.432,0,0,0,.3-.019.655.655,0,0,0,.182-.112.4.4,0,0,0,.137-.148,1.023,1.023,0,0,0,.019-.254v-1.963a.642.642,0,0,0-.234-.494l-.195-.168a1.071,1.071,0,0,0-.272-.2,1.239,1.239,0,0,0-.326-.027h-2.08v-.832h1.9a1.235,1.235,0,0,0,.325-.026,1.066,1.066,0,0,0,.273-.194l.195-.157a.912.912,0,0,0,.229-.227.982.982,0,0,0,.031-.318v-1.612a1.017,1.017,0,0,0-.019-.254.385.385,0,0,0-.137-.149.614.614,0,0,0-.182-.11,1.282,1.282,0,0,0-.3-.02H77.842a1.393,1.393,0,0,0-.313.02.612.612,0,0,0-.181.11.4.4,0,0,0-.137.149.954.954,0,0,0-.02.254v.246H76.1V150.9a.812.812,0,0,1,.312-.651l.313-.259a.977.977,0,0,1,.623-.26h3.119a.981.981,0,0,1,.625.26l.31.259a.813.813,0,0,1,.313.651v2.132a.807.807,0,0,1-.031.286.833.833,0,0,1-.2.2l-.377.312a.622.622,0,0,1-.364.169v.064A.618.618,0,0,1,81.1,154.233Z"/><path class="g" d="M88.293,153.245h1.092v2.6h1.248v.91H89.385v2.08H88.293v-2.08h-4.6v-1.066l4.446-5.953h1.22l-4.328,5.81a.8.8,0,0,1-.22.247v.052h3.484Z"/><path class="g" d="M104.41,152.854h2.938a.983.983,0,0,1,.625.261l.31.259a.81.81,0,0,1,.313.65v3.641a.809.809,0,0,1-.313.649l-.31.261a.98.98,0,0,1-.625.259h-3.9a.98.98,0,0,1-.625-.259l-.312-.261a.813.813,0,0,1-.311-.649v-.521h1.092v.247a.959.959,0,0,0,.02.254.371.371,0,0,0,.136.148.655.655,0,0,0,.182.112,1.437,1.437,0,0,0,.3.019h2.937a1.444,1.444,0,0,0,.3-.019.655.655,0,0,0,.182-.112.387.387,0,0,0,.136-.148.959.959,0,0,0,.02-.254V154.3a.964.964,0,0,0-.02-.254.4.4,0,0,0-.136-.148.646.646,0,0,0-.182-.111,1.35,1.35,0,0,0-.3-.02h-2.508a.981.981,0,0,0-.625.26.716.716,0,0,0-.312.52H102.33v-4.809h6.11v.91h-5.018v2.847h.053c.007-.1.1-.212.285-.351A1.2,1.2,0,0,1,104.41,152.854Z"/><path class="g" d="M117.383,151.424h-1.092v-.246a1.017,1.017,0,0,0-.019-.254.4.4,0,0,0-.137-.149.614.614,0,0,0-.182-.11,1.282,1.282,0,0,0-.3-.02h-3.121a1.312,1.312,0,0,0-.3.02.612.612,0,0,0-.181.11.4.4,0,0,0-.137.149,1.07,1.07,0,0,0-.019.254v2.586h.052l.065-.064c.3-.3.541-.455.715-.455h3.537a.98.98,0,0,1,.623.259l.312.26a.817.817,0,0,1,.311.651v3.25a.813.813,0,0,1-.311.649l-.312.261a.975.975,0,0,1-.623.259h-4.213a.975.975,0,0,1-.623-.259l-.313-.261a.814.814,0,0,1-.312-.649V150.9a.818.818,0,0,1,.312-.651l.313-.259a.977.977,0,0,1,.623-.26h4.082a.977.977,0,0,1,.623.26l.312.259a.813.813,0,0,1,.313.651Zm-.963,5.967v-2.7a.954.954,0,0,0-.02-.254.378.378,0,0,0-.134-.149.623.623,0,0,0-.184-.111,1.367,1.367,0,0,0-.3-.019h-2.924a1.4,1.4,0,0,0-.332.025,1.872,1.872,0,0,0-.318.17q-.3.181-.312.324v2.717a1.076,1.076,0,0,0,.019.254.4.4,0,0,0,.137.148.653.653,0,0,0,.181.112,1.472,1.472,0,0,0,.3.019h3.25a1.437,1.437,0,0,0,.3-.019.631.631,0,0,0,.184-.112.377.377,0,0,0,.134-.148A.959.959,0,0,0,116.42,157.391Z"/><path class="g" d="M120.074,158.834l4.276-7.929a.638.638,0,0,1,.22-.26h-5.627v-.91h6.668v.988l-4.341,8.111Z"/><path class="g" d="M127.742,154.817l.612-.506a.613.613,0,0,1,.363-.17v-.064a.617.617,0,0,1-.363-.169l-.43-.339a.538.538,0,0,1-.207-.441V150.9a.816.816,0,0,1,.31-.651l.313-.259a.981.981,0,0,1,.625-.26h3.976a.981.981,0,0,1,.625.26l.311.259a.813.813,0,0,1,.313.651v2.223a.544.544,0,0,1-.208.441l-.429.339a.622.622,0,0,1-.363.169v.064a.618.618,0,0,1,.363.17l.611.506a.616.616,0,0,1,.182.508v2.34a.809.809,0,0,1-.313.649c-.068.052-.174.139-.312.261a.975.975,0,0,1-.623.259h-4.289a.98.98,0,0,1-.625-.259c-.139-.122-.243-.209-.311-.261a.808.808,0,0,1-.312-.649v-2.34A.616.616,0,0,1,127.742,154.817Zm4.524-.143h-2.625a1.082,1.082,0,0,0-.26.02.842.842,0,0,0-.223.149l-.285.235a.648.648,0,0,0-.2.194.881.881,0,0,0-.026.273v1.846a.959.959,0,0,0,.02.254.4.4,0,0,0,.137.148.653.653,0,0,0,.181.112,1.444,1.444,0,0,0,.3.019h3.328a1.444,1.444,0,0,0,.3-.019.655.655,0,0,0,.182-.112.387.387,0,0,0,.136-.148,1.057,1.057,0,0,0,.02-.254v-1.846a1,1,0,0,0-.025-.273.683.683,0,0,0-.2-.194l-.287-.235a.826.826,0,0,0-.221-.149A1.072,1.072,0,0,0,132.266,154.674Zm.195-4.029h-3.016a1.277,1.277,0,0,0-.3.02.614.614,0,0,0-.182.11.385.385,0,0,0-.137.149,1.017,1.017,0,0,0-.019.254v1.69a.956.956,0,0,0,.025.286.657.657,0,0,0,.182.194l.338.274a.666.666,0,0,0,.2.123,1.5,1.5,0,0,0,.306.019h2.184a1.469,1.469,0,0,0,.305-.019.643.643,0,0,0,.2-.123l.338-.274a.638.638,0,0,0,.183-.194,1.018,1.018,0,0,0,.026-.286v-1.69a.954.954,0,0,0-.02-.254.385.385,0,0,0-.137-.149.612.612,0,0,0-.181-.11A1.288,1.288,0,0,0,132.461,150.645Z"/><path class="g" d="M146.434,157.144h1.091v.247a1.058,1.058,0,0,0,.02.254.4.4,0,0,0,.137.148.653.653,0,0,0,.181.112,1.482,1.482,0,0,0,.3.019h3.119a1.437,1.437,0,0,0,.3-.019.655.655,0,0,0,.182-.112.387.387,0,0,0,.136-.148.958.958,0,0,0,.02-.254V154.8h-.053l-.064.066c-.3.3-.541.455-.715.455h-3.535a.981.981,0,0,1-.625-.26l-.311-.261a.807.807,0,0,1-.312-.649V150.9a.812.812,0,0,1,.312-.651l.311-.259a.981.981,0,0,1,.625-.26h4.211a.972.972,0,0,1,.623.26l.312.259a.813.813,0,0,1,.313.651v6.76a.809.809,0,0,1-.313.649l-.312.261a.971.971,0,0,1-.623.259h-4.082a.975.975,0,0,1-.623-.259l-.313-.261a.814.814,0,0,1-.312-.649Zm.963-5.966v2.7a.969.969,0,0,0,.019.254.411.411,0,0,0,.137.15.687.687,0,0,0,.181.11,1.288,1.288,0,0,0,.3.02h2.924a1.373,1.373,0,0,0,.332-.026,1.764,1.764,0,0,0,.318-.17c.2-.121.3-.228.313-.324v-2.717a.953.953,0,0,0-.02-.254.388.388,0,0,0-.136-.149.614.614,0,0,0-.182-.11,1.282,1.282,0,0,0-.3-.02h-3.25a1.288,1.288,0,0,0-.3.02.612.612,0,0,0-.181.11.4.4,0,0,0-.137.149A.969.969,0,0,0,147.4,151.178Z"/><path class="g" d="M156.611,149.735h5.149a.977.977,0,0,1,.623.26l.312.259a.819.819,0,0,1,.313.651v6.76a.815.815,0,0,1-.313.649l-.312.261a.975.975,0,0,1-.623.259h-5.149a.975.975,0,0,1-.623-.259l-.312-.261a.815.815,0,0,1-.313-.649V150.9a.819.819,0,0,1,.313-.651l.312-.259A.977.977,0,0,1,156.611,149.735Zm5.305,7.656v-6.213a1.13,1.13,0,0,0-.019-.254.4.4,0,0,0-.137-.149.594.594,0,0,0-.184-.11,1.282,1.282,0,0,0-.3-.02h-4.185a1.312,1.312,0,0,0-.3.02.627.627,0,0,0-.182.11.388.388,0,0,0-.136.149,1.051,1.051,0,0,0-.02.254v6.213a1.057,1.057,0,0,0,.02.254.387.387,0,0,0,.136.148.67.67,0,0,0,.182.112,1.472,1.472,0,0,0,.3.019h4.185a1.437,1.437,0,0,0,.3-.019.631.631,0,0,0,.184-.112.4.4,0,0,0,.137-.148A1.136,1.136,0,0,0,161.916,157.391Z"/><path class="g" d="M165.516,152.361l-.612-.638,1.834-1.988h1.52v9.1h-1.014V150.8a.938.938,0,0,1,.039-.338l-.039-.039Z"/><path class="g" d="M170.209,158.834v-1.378a.922.922,0,0,1,.031-.3.933.933,0,0,1,.215-.228l4.317-3.938a.642.642,0,0,0,.207-.267,1.422,1.422,0,0,0,.039-.384v-1.156a.954.954,0,0,0-.02-.254.393.393,0,0,0-.137-.149.612.612,0,0,0-.181-.11,1.288,1.288,0,0,0-.3-.02h-2.315a1.277,1.277,0,0,0-.3.02.614.614,0,0,0-.182.11.4.4,0,0,0-.137.149,1.017,1.017,0,0,0-.019.254v.246h-1.092V150.9a.812.812,0,0,1,.312-.651l.313-.259a.972.972,0,0,1,.623-.26h3.275a.981.981,0,0,1,.625.26l.311.259a.812.812,0,0,1,.312.651v1.833a1.383,1.383,0,0,1-.039.384.622.622,0,0,1-.207.265l-4.3,3.887a.907.907,0,0,0-.221.26.956.956,0,0,0-.039.338v.052h4.808v.91Z"/><path class="g" d="M193.072,154.233l.508.416a.838.838,0,0,1,.227.233,1.381,1.381,0,0,1,.033.39v2.393a1.04,1.04,0,0,1-.045.363,1.115,1.115,0,0,1-.2.273l-.233.235a.876.876,0,0,1-.611.3h-3.691a.98.98,0,0,1-.625-.259l-.313-.261a.812.812,0,0,1-.31-.649v-.521H188.9v.247a.959.959,0,0,0,.02.254.384.384,0,0,0,.137.148.653.653,0,0,0,.181.112,1.444,1.444,0,0,0,.3.019h2.574a1.451,1.451,0,0,0,.3-.019.655.655,0,0,0,.182-.112.4.4,0,0,0,.137-.148,1.136,1.136,0,0,0,.019-.254v-1.963a.642.642,0,0,0-.234-.494l-.2-.168a1.02,1.02,0,0,0-.273-.2,1.211,1.211,0,0,0-.324-.027h-2.08v-.832h1.9a1.22,1.22,0,0,0,.324-.026,1.083,1.083,0,0,0,.274-.194l.2-.157a.891.891,0,0,0,.227-.227.962.962,0,0,0,.033-.318v-1.612a.954.954,0,0,0-.02-.254.388.388,0,0,0-.136-.149.627.627,0,0,0-.182-.11,1.288,1.288,0,0,0-.3-.02h-2.144a1.381,1.381,0,0,0-.313.02.627.627,0,0,0-.182.11.388.388,0,0,0-.136.149.954.954,0,0,0-.02.254v.246h-1.092V150.9a.813.813,0,0,1,.313-.651l.31-.259a.981.981,0,0,1,.625-.26h3.12a.972.972,0,0,1,.623.26l.312.259a.813.813,0,0,1,.313.651v2.132a.762.762,0,0,1-.034.286.741.741,0,0,1-.2.2l-.377.312a.617.617,0,0,1-.363.169v.064A.613.613,0,0,1,193.072,154.233Z"/><path class="g" d="M200.26,153.245h1.092v2.6H202.6v.91h-1.248v2.08H200.26v-2.08h-4.6v-1.066l4.448-5.953h1.22L197,155.545a.784.784,0,0,1-.221.247v.052h3.483Z"/><path class="g" d="M206.629,152.854h2.939a.982.982,0,0,1,.623.261l.313.259a.814.814,0,0,1,.311.65v3.641a.813.813,0,0,1-.311.649l-.313.261a.979.979,0,0,1-.623.259h-3.9a.98.98,0,0,1-.625-.259l-.311-.261a.808.808,0,0,1-.312-.649v-.521h1.092v.247a1.022,1.022,0,0,0,.019.254.4.4,0,0,0,.137.148.655.655,0,0,0,.182.112,1.432,1.432,0,0,0,.3.019h2.938a1.444,1.444,0,0,0,.3-.019.656.656,0,0,0,.183-.112.382.382,0,0,0,.135-.148.959.959,0,0,0,.02-.254V154.3a.964.964,0,0,0-.02-.254.389.389,0,0,0-.135-.148.647.647,0,0,0-.183-.111,1.349,1.349,0,0,0-.3-.02h-2.508a.981.981,0,0,0-.625.26.713.713,0,0,0-.31.52h-1.092v-4.809h6.109v.91h-5.017v2.847h.05c.01-.1.1-.212.288-.351A1.2,1.2,0,0,1,206.629,152.854Z"/><path class="g" d="M219.6,151.424H218.51v-.246a.954.954,0,0,0-.02-.254.372.372,0,0,0-.136-.149.6.6,0,0,0-.182-.11,1.288,1.288,0,0,0-.3-.02h-3.119a1.288,1.288,0,0,0-.3.02.627.627,0,0,0-.182.11.388.388,0,0,0-.136.149.954.954,0,0,0-.02.254v2.586h.051l.066-.064q.455-.454.715-.455h3.535a.976.976,0,0,1,.623.259l.313.26a.812.812,0,0,1,.312.651v3.25a.808.808,0,0,1-.312.649l-.313.261a.971.971,0,0,1-.623.259h-4.211a.982.982,0,0,1-.625-.259l-.31-.261a.809.809,0,0,1-.313-.649V150.9a.813.813,0,0,1,.313-.651l.31-.259a.983.983,0,0,1,.625-.26h4.081a.981.981,0,0,1,.625.26l.312.259a.817.817,0,0,1,.311.651Zm-.961,5.967v-2.7a.954.954,0,0,0-.02-.254.393.393,0,0,0-.137-.149.644.644,0,0,0-.181-.111,1.373,1.373,0,0,0-.3-.019h-2.926a1.369,1.369,0,0,0-.33.025,1.763,1.763,0,0,0-.318.17q-.3.181-.313.324v2.717a.959.959,0,0,0,.02.254.388.388,0,0,0,.136.148.67.67,0,0,0,.182.112,1.444,1.444,0,0,0,.3.019H218a1.444,1.444,0,0,0,.3-.019.653.653,0,0,0,.181-.112.392.392,0,0,0,.137-.148A.959.959,0,0,0,218.641,157.391Z"/><path class="g" d="M68,187.189l.033-.011a1.875,1.875,0,0,1-.076-.52v-5.646h.91V188.6h-.91l-3.967-6.091-.033.011a1.839,1.839,0,0,1,.076.52v5.56h-.91v-7.586h.91Z"/><path class="g" d="M74.412,188.165h-.045c0,.086-.078.176-.238.27a1.674,1.674,0,0,1-.266.142,1.132,1.132,0,0,1-.263.021H71.746a.812.812,0,0,1-.521-.217l-.26-.216a.679.679,0,0,1-.26-.543v-1.3a.674.674,0,0,1,.26-.542l.26-.217a.812.812,0,0,1,.521-.217h1.94a1.173,1.173,0,0,1,.259.017.417.417,0,0,1,.141.093.292.292,0,0,1,.131.215h.043v-1.29a.9.9,0,0,0-.016-.211.346.346,0,0,0-.115-.125.57.57,0,0,0-.15-.091,1.153,1.153,0,0,0-.25-.016H71.973a.87.87,0,0,0-.266.027,1.267,1.267,0,0,0-.266.19l-.65-.543.262-.216a1.271,1.271,0,0,1,.265-.19.855.855,0,0,1,.264-.027h2.547a.818.818,0,0,1,.521.217l.26.216a.678.678,0,0,1,.26.543v3.24a.886.886,0,0,0,.016.211.32.32,0,0,0,.115.125.346.346,0,0,1,.113.125.88.88,0,0,1,.016.211v.531h-.379a.894.894,0,0,1-.266-.027.871.871,0,0,1-.2-.136A.377.377,0,0,1,74.412,188.165Zm-2.8-1.616v.846a.886.886,0,0,0,.016.211.338.338,0,0,0,.115.125.53.53,0,0,0,.151.092,1.164,1.164,0,0,0,.25.015h1.322a.987.987,0,0,0,.265-.021,1.488,1.488,0,0,0,.266-.141.8.8,0,0,0,.227-.173.485.485,0,0,0,.033-.217v-.737a.892.892,0,0,0-.016-.211.338.338,0,0,0-.115-.125.519.519,0,0,0-.15-.091,1.068,1.068,0,0,0-.25-.017H72.147a1.057,1.057,0,0,0-.25.017.521.521,0,0,0-.151.091.338.338,0,0,0-.115.125A.892.892,0,0,0,71.615,186.549Z"/><path class="g" d="M80.945,183.7h.045c.006-.066.076-.145.205-.239l.162-.119a1.486,1.486,0,0,1,.266-.141,1.042,1.042,0,0,1,.266-.022h1.722a.822.822,0,0,1,.522.217l.26.216a.68.68,0,0,1,.259.543V188.6h-.91v-4.217a.988.988,0,0,0-.015-.211.341.341,0,0,0-.116-.125.57.57,0,0,0-.15-.091,1.14,1.14,0,0,0-.25-.016H82.02a1.1,1.1,0,0,0-.266.021,1.488,1.488,0,0,0-.266.141c-.166.1-.254.195-.259.281V188.6h-.911v-4.217a.788.788,0,0,0-.017-.211.335.335,0,0,0-.113-.125.56.56,0,0,0-.153-.091,1.117,1.117,0,0,0-.248-.016h-1.1a1.1,1.1,0,0,0-.265.021,1.56,1.56,0,0,0-.266.141.786.786,0,0,0-.226.174.464.464,0,0,0-.034.217V188.6h-.91v-4.217a.988.988,0,0,0-.015-.211.35.35,0,0,0-.114-.125.323.323,0,0,1-.115-.124.9.9,0,0,1-.015-.212v-.53h.378a.861.861,0,0,1,.266.027.872.872,0,0,1,.2.136.381.381,0,0,1,.174.27h.043c0-.086.078-.176.238-.27a1.421,1.421,0,0,1,.266-.141,1.032,1.032,0,0,1,.266-.022h1.625a.813.813,0,0,1,.519.217C80.859,183.534,80.94,183.634,80.945,183.7Z"/><path class="g" d="M90.027,187.622l.651.543-.26.216a1.3,1.3,0,0,1-.266.19.881.881,0,0,1-.265.027H86.994a.814.814,0,0,1-.521-.217l-.26-.216a.679.679,0,0,1-.26-.543v-3.467a.678.678,0,0,1,.26-.543l.26-.216a.82.82,0,0,1,.521-.217H89.52a.959.959,0,0,1,.519.217l.272.216a.647.647,0,0,1,.259.543v2.221H86.863V187.4a.886.886,0,0,0,.016.211.338.338,0,0,0,.115.125.53.53,0,0,0,.151.092,1.164,1.164,0,0,0,.25.015h2.1a.839.839,0,0,0,.266-.026A1.3,1.3,0,0,0,90.027,187.622Zm-.367-1.951v-1.29a.834.834,0,0,0-.017-.211.331.331,0,0,0-.114-.125.544.544,0,0,0-.152-.091,1.117,1.117,0,0,0-.248-.016H87.395a1.14,1.14,0,0,0-.25.016.572.572,0,0,0-.151.091.346.346,0,0,0-.115.125.9.9,0,0,0-.016.211v1.29Z"/><path class="g" d="M98.481,185.129h-2.59a.811.811,0,0,1-.52-.216l-.293-.249a.544.544,0,0,1-.228-.433v-2.244a.68.68,0,0,1,.259-.541l.262-.217a.808.808,0,0,1,.52-.217h2.882a.812.812,0,0,1,.52.217l.26.217a.674.674,0,0,1,.262.541v.433H98.9v-.206a.856.856,0,0,0-.015-.211.331.331,0,0,0-.114-.125.52.52,0,0,0-.152-.091,1.094,1.094,0,0,0-.248-.017H96.291a1.094,1.094,0,0,0-.248.017.52.52,0,0,0-.152.091.331.331,0,0,0-.114.125.823.823,0,0,0-.017.211v1.712a.816.816,0,0,0,.017.212.323.323,0,0,0,.114.124.514.514,0,0,0,.152.093,1.094,1.094,0,0,0,.248.017h2.59a.816.816,0,0,1,.521.216l.26.217a.674.674,0,0,1,.26.541v2.276a.679.679,0,0,1-.26.543l-.26.216a.812.812,0,0,1-.521.217h-3.1a.814.814,0,0,1-.519-.217l-.26-.216a.679.679,0,0,1-.26-.543v-.433h.91v.206a.886.886,0,0,0,.016.211.346.346,0,0,0,.113.125.562.562,0,0,0,.153.092,1.164,1.164,0,0,0,.25.015h2.3a1.177,1.177,0,0,0,.25-.015.542.542,0,0,0,.15-.092.338.338,0,0,0,.115-.125.886.886,0,0,0,.016-.211v-1.82a.885.885,0,0,0-.016-.212.337.337,0,0,0-.115-.124.552.552,0,0,0-.15-.093A1.129,1.129,0,0,0,98.481,185.129Z"/><path class="g" d="M104.127,188.6h-1.7a.817.817,0,0,1-.522-.217l-.259-.216a.679.679,0,0,1-.26-.543v-4.443h.91V187.4a.886.886,0,0,0,.016.211.32.32,0,0,0,.115.125.528.528,0,0,0,.15.092,1.164,1.164,0,0,0,.25.015H104a1,1,0,0,0,.266-.021,1.424,1.424,0,0,0,.265-.141.787.787,0,0,0,.229-.173.492.492,0,0,0,.031-.217v-4.107h.91V187.4a.759.759,0,0,0,.018.211.328.328,0,0,0,.113.125.311.311,0,0,1,.113.125.754.754,0,0,1,.018.211v.531h-.381a.891.891,0,0,1-.265-.027.83.83,0,0,1-.2-.136.379.379,0,0,1-.173-.27H104.9c0,.086-.081.176-.239.27a1.774,1.774,0,0,1-.265.142A1.163,1.163,0,0,1,104.127,188.6Z"/><path class="g" d="M107.26,183.179h.379a.862.862,0,0,1,.265.027.831.831,0,0,1,.2.136.379.379,0,0,1,.173.27h.043c0-.086.08-.176.239-.27a1.49,1.49,0,0,1,.265-.141,1.042,1.042,0,0,1,.266-.022h1a.813.813,0,0,1,.519.217l.26.216-.65.543-.129-.11a.574.574,0,0,0-.152-.091,1.14,1.14,0,0,0-.25-.016h-.465a1.1,1.1,0,0,0-.266.021,1.527,1.527,0,0,0-.265.141.818.818,0,0,0-.229.174.489.489,0,0,0-.031.217V188.6h-.91v-4.217a.774.774,0,0,0-.018-.211.335.335,0,0,0-.113-.125.31.31,0,0,1-.114-.124.85.85,0,0,1-.015-.212Z"/><path class="g" d="M111.789,183.179h.379a.861.861,0,0,1,.266.027.872.872,0,0,1,.2.136.377.377,0,0,1,.172.27h.045c0-.086.078-.176.238-.27a1.36,1.36,0,0,1,.266-.141,1.017,1.017,0,0,1,.265-.022h1.918a.821.821,0,0,1,.52.217l.259.216a.678.678,0,0,1,.26.543V188.6h-.91v-4.217a.9.9,0,0,0-.016-.211.335.335,0,0,0-.113-.125.607.607,0,0,0-.152-.091,1.14,1.14,0,0,0-.25-.016H113.75a1.108,1.108,0,0,0-.266.021,1.6,1.6,0,0,0-.265.141.812.812,0,0,0-.227.174.482.482,0,0,0-.033.217V188.6h-.91v-4.217a.9.9,0,0,0-.016-.211.336.336,0,0,0-.115-.125.321.321,0,0,1-.113-.124.884.884,0,0,1-.016-.212Z"/><path class="g" d="M121.693,188.165h-.043c0,.086-.08.176-.238.27a1.827,1.827,0,0,1-.265.142,1.151,1.151,0,0,1-.266.021h-1.854a.811.811,0,0,1-.519-.217l-.26-.216a.679.679,0,0,1-.26-.543v-1.3a.674.674,0,0,1,.26-.542l.26-.217a.811.811,0,0,1,.519-.217h1.94a1.208,1.208,0,0,1,.262.017.446.446,0,0,1,.14.093.3.3,0,0,1,.129.215h.043v-1.29a.8.8,0,0,0-.016-.211.317.317,0,0,0-.113-.125.544.544,0,0,0-.152-.091,1.117,1.117,0,0,0-.248-.016h-1.756a.861.861,0,0,0-.266.027,1.219,1.219,0,0,0-.265.19l-.651-.543.26-.216a1.353,1.353,0,0,1,.266-.19.854.854,0,0,1,.265-.027h2.547a.817.817,0,0,1,.52.217l.259.216a.68.68,0,0,1,.262.543v3.24a.787.787,0,0,0,.016.211.327.327,0,0,0,.113.125.311.311,0,0,1,.113.125.754.754,0,0,1,.018.211v.531h-.379a.894.894,0,0,1-.266-.027.851.851,0,0,1-.2-.136A.381.381,0,0,1,121.693,188.165Zm-2.795-1.616v.846a.787.787,0,0,0,.016.211.328.328,0,0,0,.113.125.521.521,0,0,0,.153.092,1.152,1.152,0,0,0,.25.015h1.32a1,1,0,0,0,.266-.021,1.424,1.424,0,0,0,.265-.141.787.787,0,0,0,.229-.173.493.493,0,0,0,.031-.217v-.737a.792.792,0,0,0-.016-.211.311.311,0,0,0-.113-.125.5.5,0,0,0-.152-.091,1.036,1.036,0,0,0-.248-.017H119.43a1.045,1.045,0,0,0-.25.017.512.512,0,0,0-.153.091.328.328,0,0,0-.113.125A.792.792,0,0,0,118.9,186.549Z"/><path class="g" d="M128.229,183.7h.043c.007-.066.076-.145.207-.239l.162-.119a1.489,1.489,0,0,1,.265-.141,1.032,1.032,0,0,1,.266-.022H130.9a.822.822,0,0,1,.521.217l.26.216a.684.684,0,0,1,.26.543V188.6h-.911v-4.217a.787.787,0,0,0-.017-.211.335.335,0,0,0-.113-.125.588.588,0,0,0-.151-.091,1.153,1.153,0,0,0-.25-.016H129.3a1.1,1.1,0,0,0-.266.021,1.456,1.456,0,0,0-.265.141c-.166.1-.254.195-.262.281V188.6h-.91v-4.217a.8.8,0,0,0-.016-.211.335.335,0,0,0-.113-.125.546.546,0,0,0-.153-.091,1.117,1.117,0,0,0-.248-.016h-1.1a1.108,1.108,0,0,0-.266.021,1.561,1.561,0,0,0-.266.141.8.8,0,0,0-.226.174.467.467,0,0,0-.033.217V188.6h-.911v-4.217a.924.924,0,0,0-.015-.211.346.346,0,0,0-.115-.125.326.326,0,0,1-.114-.124.966.966,0,0,1-.015-.212v-.53h.379a.521.521,0,0,1,.466.163.374.374,0,0,1,.172.27h.045c0-.086.078-.176.239-.27a1.333,1.333,0,0,1,.265-.141,1.032,1.032,0,0,1,.266-.022h1.625a.815.815,0,0,1,.519.217C128.143,183.534,128.223,183.634,128.229,183.7Z"/><path class="g" d="M137.311,187.622l.65.543-.26.216a1.389,1.389,0,0,1-.265.19.9.9,0,0,1-.266.027h-2.9a.812.812,0,0,1-.519-.217l-.26-.216a.679.679,0,0,1-.26-.543v-3.467a.678.678,0,0,1,.26-.543l.26-.216a.817.817,0,0,1,.519-.217H136.8a.953.953,0,0,1,.519.217l.272.216a.64.64,0,0,1,.26.543v2.221h-3.705V187.4a.8.8,0,0,0,.015.211.346.346,0,0,0,.113.125.547.547,0,0,0,.153.092,1.152,1.152,0,0,0,.25.015h2.1a.839.839,0,0,0,.266-.026A1.353,1.353,0,0,0,137.311,187.622Zm-.37-1.951v-1.29a.923.923,0,0,0-.015-.211.354.354,0,0,0-.113-.125.626.626,0,0,0-.153-.091,1.14,1.14,0,0,0-.25-.016h-1.732a1.127,1.127,0,0,0-.25.016.592.592,0,0,0-.153.091.354.354,0,0,0-.113.125.817.817,0,0,0-.015.211v1.29Z"/><path class="g" d="M178.77,98.565h1.261a2.028,2.028,0,0,1,1.518.506,2.2,2.2,0,0,1,.49,1.578,1.8,1.8,0,0,1-1.16,1.927q1.26.257,1.26,2a2.155,2.155,0,0,1-.457,1.472,1.656,1.656,0,0,1-1.307.518h-1.6Zm1.066.822v2.78a1.225,1.225,0,0,0,.9-.319,1.548,1.548,0,0,0,.279-1.049,1.842,1.842,0,0,0-.242-1.11A1.151,1.151,0,0,0,179.836,99.387Zm0,3.578v2.786a1.32,1.32,0,0,0,.914-.28,1.477,1.477,0,0,0,.272-1.045,1.763,1.763,0,0,0-.276-1.141A1.173,1.173,0,0,0,179.836,102.965Z"/><path class="g" d="M186.69,106.561h-1.03v-.666h-.031a1.165,1.165,0,0,1-1.02.74,1.191,1.191,0,0,1-.939-.5,3.975,3.975,0,0,1-.406-2.237,5.845,5.845,0,0,1,.306-2.226,1.068,1.068,0,0,1,1.051-.679.915.915,0,0,1,.567.162,1.962,1.962,0,0,1,.441.521h.031v-.6h1.03Zm-1.682-.822c.262,0,.435-.157.521-.471a6.708,6.708,0,0,0,.131-1.6,5.7,5.7,0,0,0-.117-1.4.492.492,0,0,0-.5-.405.528.528,0,0,0-.525.377,4.261,4.261,0,0,0-.147,1.361,8.161,8.161,0,0,0,.115,1.648Q184.6,105.74,185.008,105.739Z"/><path class="g" d="M189.074,101.057v.527h.026a1.217,1.217,0,0,1,1.066-.6q1.192,0,1.191,1.3v4.28h-1.015v-3.985q0-.81-.641-.81a.565.565,0,0,0-.467.217.926.926,0,0,0-.173.593v3.985h-1.03v-5.5Z"/><path class="g" d="M196.43,106.561h-1.084l-1.528-2.932h-.025v2.932h-1.029V98.295h1.029v5.127h.025l1.35-2.346h1.078l-1.381,2.482Z"/><path class="g" d="M203.664,106.561h-.848l-2.039-5.488-.025,0v5.485h-.965v-8h.86l2.044,5.486.026.006V98.565h.947Z"/><path class="g" d="M208.471,106.561h-1.028v-.666h-.033a1.159,1.159,0,0,1-1.019.74,1.193,1.193,0,0,1-.94-.5,4,4,0,0,1-.406-2.237,5.841,5.841,0,0,1,.307-2.226A1.07,1.07,0,0,1,206.4,101a.919.919,0,0,1,.567.162,1.96,1.96,0,0,1,.439.521h.033v-.6h1.028Zm-1.682-.822c.262,0,.436-.157.524-.471a6.888,6.888,0,0,0,.13-1.6,5.674,5.674,0,0,0-.119-1.4.489.489,0,0,0-.5-.405.524.524,0,0,0-.523.377,4.261,4.261,0,0,0-.147,1.361,7.922,7.922,0,0,0,.116,1.648Q206.386,105.74,206.789,105.739Z"/><path class="g" d="M215.52,106.561h-1.03v-4q0-.8-.615-.8c-.443,0-.666.318-.666.953v3.842h-1.016v-4.073a.79.79,0,0,0-.171-.515.545.545,0,0,0-.438-.207c-.451,0-.678.291-.678.872v3.923h-1.029v-5.485h1.043v.5a1.451,1.451,0,0,1,1.141-.59,1.114,1.114,0,0,1,1.068.685,1.512,1.512,0,0,1,1.236-.671q1.155,0,1.155,1.324Z"/><path class="g" d="M220.283,104h-2.31a5.511,5.511,0,0,0,.123,1.345.552.552,0,0,0,.58.455.478.478,0,0,0,.476-.263,2.084,2.084,0,0,0,.133-.829h.934q-.043,1.928-1.631,1.926-1.708,0-1.707-2.7,0-2.945,1.769-2.943a1.534,1.534,0,0,1,1.153.507,3.213,3.213,0,0,1,.48,2.1Zm-1.037-.8a3.688,3.688,0,0,0-.131-1.171.479.479,0,0,0-.476-.355.517.517,0,0,0-.537.373,3.8,3.8,0,0,0-.129,1.153Z"/><path class="g" d="M66.055,106.839a2.466,2.466,0,0,1-2.953-.576q-.789-.835-.789-3.491,0-2.88.789-3.877a2.366,2.366,0,0,1,1.914-1,4.832,4.832,0,0,1,1.039.141v1.094a2.1,2.1,0,0,0-.766-.161,1.441,1.441,0,0,0-1.2.713,5.4,5.4,0,0,0-.5,2.815,13.658,13.658,0,0,0,.109,1.956,2.064,2.064,0,0,0,.5,1.124,1.3,1.3,0,0,0,.989.418,2.327,2.327,0,0,0,.865-.217Z"/><path class="g" d="M70.1,101.764a1.849,1.849,0,0,0-1.131.3,1.641,1.641,0,0,0-.336,1.248v3.679H67.465v-6.135h1.166v.9h.027a1.524,1.524,0,0,1,1.362-1l.078.014Z"/><path class="g" d="M74.779,104.129H72.195a6.262,6.262,0,0,0,.137,1.506.619.619,0,0,0,.65.51.538.538,0,0,0,.534-.295,2.352,2.352,0,0,0,.146-.928h1.047q-.049,2.157-1.826,2.157-1.908,0-1.908-3.02,0-3.29,1.978-3.291a1.714,1.714,0,0,1,1.289.568,3.6,3.6,0,0,1,.537,2.352Zm-1.158-.89a4.107,4.107,0,0,0-.148-1.31.536.536,0,0,0-.533-.4.577.577,0,0,0-.6.417,4.251,4.251,0,0,0-.145,1.289Z"/><path class="g" d="M78.885,97.735h1.144v9.259H78.9v-.822h-.027a1.238,1.238,0,0,1-2,.6,1.561,1.561,0,0,1-.523-.842,7.68,7.68,0,0,1-.149-1.805,11.644,11.644,0,0,1,.127-2.059,1.813,1.813,0,0,1,.485-.969,1.26,1.26,0,0,1,2.05.474h.028Zm.013,6.094a6.238,6.238,0,0,0-.144-1.612.576.576,0,0,0-.578-.474.613.613,0,0,0-.6.5,5.97,5.97,0,0,0-.16,1.649,6.773,6.773,0,0,0,.15,1.7c.1.339.293.509.58.509s.475-.176.586-.529A6.518,6.518,0,0,0,78.9,103.829Z"/><path class="g" d="M81.5,98.985a.612.612,0,0,1,.188-.443.618.618,0,0,1,.89,0,.61.61,0,0,1,.186.443.631.631,0,0,1-1.08.445A.613.613,0,0,1,81.5,98.985Zm.057,1.874h1.136v6.135H81.559Z"/><path class="g" d="M86.408,101.764h-.736v5.23h-1.15v-5.23h-.739v-.9h.739V99.188h1.15v1.671h.736Z"/><path class="g" d="M93.955,106.839A2.463,2.463,0,0,1,91,106.263q-.791-.835-.791-3.491,0-2.88.791-3.877a2.363,2.363,0,0,1,1.912-1,4.816,4.816,0,0,1,1.039.141v1.094a2.093,2.093,0,0,0-.765-.161,1.44,1.44,0,0,0-1.2.713,5.375,5.375,0,0,0-.5,2.815,13.487,13.487,0,0,0,.11,1.956,2.05,2.05,0,0,0,.5,1.124,1.3,1.3,0,0,0,.99.418,2.319,2.319,0,0,0,.863-.217Z"/><path class="g" d="M99.113,106.994h-1.15v-.745h-.035a1.3,1.3,0,0,1-1.141.83,1.335,1.335,0,0,1-1.051-.559,4.463,4.463,0,0,1-.455-2.5,6.539,6.539,0,0,1,.344-2.488,1.2,1.2,0,0,1,1.176-.762,1.025,1.025,0,0,1,.633.182,2.173,2.173,0,0,1,.494.583h.035v-.674h1.15Zm-1.881-.919c.293,0,.487-.176.584-.528a7.5,7.5,0,0,0,.147-1.789,6.317,6.317,0,0,0-.133-1.562.546.546,0,0,0-.555-.453.589.589,0,0,0-.587.422,4.751,4.751,0,0,0-.165,1.523,9.049,9.049,0,0,0,.129,1.842C96.738,105.893,96.932,106.075,97.232,106.075Z"/><path class="g" d="M103.248,101.764a1.854,1.854,0,0,0-1.131.3,1.645,1.645,0,0,0-.336,1.248v3.679h-1.166v-6.135h1.166v.9h.028a1.525,1.525,0,0,1,1.361-1l.078.014Z"/><path class="g" d="M106.785,97.735h1.145v9.259H106.8v-.822h-.027a1.238,1.238,0,0,1-2,.6,1.592,1.592,0,0,1-.524-.842,7.777,7.777,0,0,1-.146-1.805,11.694,11.694,0,0,1,.125-2.059,1.833,1.833,0,0,1,.484-.969,1.26,1.26,0,0,1,2.051.474h.027Zm.014,6.094a6.25,6.25,0,0,0-.143-1.612.575.575,0,0,0-.58-.474.609.609,0,0,0-.595.5,5.9,5.9,0,0,0-.163,1.649,6.713,6.713,0,0,0,.151,1.7c.1.339.295.509.58.509s.476-.176.586-.529A6.56,6.56,0,0,0,106.8,103.829Z"/><path class="g" d="M66.607,166.145a3.706,3.706,0,0,1-.437,2.016,1.645,1.645,0,0,1-2.65-.022,3.633,3.633,0,0,1-.45-1.994,3.739,3.739,0,0,1,.436-2.031,1.649,1.649,0,0,1,2.652.03A3.665,3.665,0,0,1,66.607,166.145Zm-2.689,0a3.774,3.774,0,0,0,.219,1.521.766.766,0,0,0,1.4-.007,5.3,5.3,0,0,0,0-3.03.737.737,0,0,0-.705-.467.729.729,0,0,0-.7.46A3.8,3.8,0,0,0,63.918,166.145Z"/><path class="g" d="M69.7,168.749h-.836v-3.362c0-.4.01-.72.028-.955-.055.057-.121.12-.2.19s-.346.287-.8.654l-.42-.53L69,163.541h.7Z"/><path class="g" d="M74.934,168.749H71.4v-.634l1.342-1.35a11.176,11.176,0,0,0,.789-.864,2.024,2.024,0,0,0,.283-.479,1.293,1.293,0,0,0,.09-.48.737.737,0,0,0-.213-.556.811.811,0,0,0-.586-.2,1.57,1.57,0,0,0-.578.11,2.776,2.776,0,0,0-.646.4l-.453-.551a2.947,2.947,0,0,1,.843-.52,2.46,2.46,0,0,1,.873-.154,1.719,1.719,0,0,1,1.165.379,1.282,1.282,0,0,1,.439,1.021,1.8,1.8,0,0,1-.127.67,2.684,2.684,0,0,1-.389.653,8.62,8.62,0,0,1-.871.91l-.9.875v.036h2.473Z"/><path class="g" d="M78.9,164.739a1.206,1.206,0,0,1-.289.824,1.452,1.452,0,0,1-.812.443v.03a1.57,1.57,0,0,1,.941.388,1.128,1.128,0,0,1,.313.829,1.381,1.381,0,0,1-.531,1.16,2.442,2.442,0,0,1-1.51.407,3.4,3.4,0,0,1-1.459-.281v-.746a3.233,3.233,0,0,0,.7.254,3.058,3.058,0,0,0,.713.089,1.507,1.507,0,0,0,.9-.224.814.814,0,0,0,.3-.7.663.663,0,0,0-.332-.613,2.118,2.118,0,0,0-1.039-.2h-.453v-.68h.459q1.248,0,1.248-.862a.63.63,0,0,0-.219-.517.974.974,0,0,0-.641-.182,1.943,1.943,0,0,0-.57.085,2.633,2.633,0,0,0-.646.326l-.411-.584a2.727,2.727,0,0,1,1.663-.528,1.983,1.983,0,0,1,1.228.338A1.113,1.113,0,0,1,78.9,164.739Z"/><path class="g" d="M189.07,170.045h3.61a.684.684,0,0,1,.437.184l.219.182a.567.567,0,0,1,.219.455v4.74a.569.569,0,0,1-.219.456l-.219.183a.685.685,0,0,1-.437.181h-3.61a.685.685,0,0,1-.437-.181l-.219-.183a.569.569,0,0,1-.219-.456v-4.74a.567.567,0,0,1,.219-.455l.219-.182A.684.684,0,0,1,189.07,170.045Zm3.719,5.37v-4.358a.672.672,0,0,0-.014-.178.276.276,0,0,0-.1-.1.493.493,0,0,0-.127-.078.914.914,0,0,0-.211-.014h-2.934a.92.92,0,0,0-.211.014.493.493,0,0,0-.127.078.276.276,0,0,0-.1.1.672.672,0,0,0-.014.178v4.358a.653.653,0,0,0,.014.177.279.279,0,0,0,.1.106.455.455,0,0,0,.127.077.984.984,0,0,0,.211.014h2.934a.977.977,0,0,0,.211-.014.455.455,0,0,0,.127-.077.279.279,0,0,0,.1-.106A.653.653,0,0,0,192.789,175.415Z"/><path class="g" d="M195.315,171.887l-.43-.447,1.287-1.4h1.066v6.381h-.711v-5.633a.591.591,0,0,1,.028-.236l-.028-.027Z"/><path class="g" d="M202.342,170.045h.73l-4.822,7.2h-.693Z"/><path class="g" d="M203.609,173.61l.428-.356a.444.444,0,0,1,.256-.118v-.046a.437.437,0,0,1-.256-.118l-.3-.237a.378.378,0,0,1-.144-.31v-1.559a.565.565,0,0,1,.219-.455l.218-.182a.682.682,0,0,1,.438-.184h2.789a.688.688,0,0,1,.437.184l.219.182a.57.57,0,0,1,.219.455v1.559a.377.377,0,0,1-.147.31l-.3.237a.432.432,0,0,1-.256.118v.046a.438.438,0,0,1,.256.118l.427.356a.425.425,0,0,1,.129.355v1.641a.574.574,0,0,1-.218.456c-.049.036-.124.1-.219.183a.691.691,0,0,1-.438.181h-3.008a.683.683,0,0,1-.437-.181c-.1-.086-.172-.147-.219-.183a.569.569,0,0,1-.219-.456v-1.641A.425.425,0,0,1,203.609,173.61Zm3.172-.1H204.94a.715.715,0,0,0-.182.014.562.562,0,0,0-.154.1l-.2.164a.429.429,0,0,0-.136.137.64.64,0,0,0-.018.192v1.294a.654.654,0,0,0,.014.177.27.27,0,0,0,.1.106.429.429,0,0,0,.127.077.948.948,0,0,0,.209.014h2.334a.935.935,0,0,0,.209-.014.409.409,0,0,0,.129-.077.284.284,0,0,0,.1-.106.752.752,0,0,0,.014-.177v-1.294a.562.562,0,0,0-.02-.192.449.449,0,0,0-.137-.137l-.2-.164a.593.593,0,0,0-.156-.1A.7.7,0,0,0,206.781,173.51Zm.137-2.826H204.8a.876.876,0,0,0-.209.014.462.462,0,0,0-.127.078.264.264,0,0,0-.1.1.672.672,0,0,0-.014.178v1.186a.692.692,0,0,0,.018.2.492.492,0,0,0,.127.137l.238.191a.45.45,0,0,0,.141.086.964.964,0,0,0,.215.014h1.531a.948.948,0,0,0,.213-.014.441.441,0,0,0,.142-.086l.237-.191a.492.492,0,0,0,.127-.137.646.646,0,0,0,.019-.2v-1.186a.865.865,0,0,0-.013-.178.282.282,0,0,0-.1-.1.465.465,0,0,0-.129-.078A.882.882,0,0,0,206.918,170.684Z"/><path class="g" d="M210.764,170.045h3.611a.691.691,0,0,1,.438.184l.218.182a.57.57,0,0,1,.219.455v4.74a.572.572,0,0,1-.219.456l-.218.183a.691.691,0,0,1-.438.181h-3.611a.691.691,0,0,1-.438-.181l-.219-.183a.574.574,0,0,1-.218-.456v-4.74a.572.572,0,0,1,.218-.455l.219-.182A.691.691,0,0,1,210.764,170.045Zm3.72,5.37v-4.358a.8.8,0,0,0-.013-.178.282.282,0,0,0-.1-.1.465.465,0,0,0-.129-.078.876.876,0,0,0-.209-.014H211.1a.876.876,0,0,0-.209.014.438.438,0,0,0-.129.078.281.281,0,0,0-.1.1.776.776,0,0,0-.014.178v4.358a.753.753,0,0,0,.014.177.284.284,0,0,0,.1.106.409.409,0,0,0,.129.077.935.935,0,0,0,.209.014h2.935a.935.935,0,0,0,.209-.014.432.432,0,0,0,.129-.077.284.284,0,0,0,.1-.106A.772.772,0,0,0,214.484,175.415Z"/><path class="g" d="M171.84,171.728h.016a.506.506,0,0,1,.021-.1l.725-2.328h.338l-.883,2.662h-.418l-.883-2.662h.338l.722,2.328A.451.451,0,0,1,171.84,171.728Z"/><path class="g" d="M173.188,171.963l.912-2.662h.449l.932,2.662h-.319l-.2-.55H173.7l-.191.55Zm1.144-2.434h-.016a.3.3,0,0,1-.027.11l-.514,1.526h1.108l-.526-1.526A.309.309,0,0,1,174.332,169.529Z"/><path class="g" d="M177.7,171.7v.265h-1.644V169.3h.32v2.4Z"/><path class="g" d="M178.053,169.3h.32v2.662h-.32Z"/><path class="g" d="M179.133,171.963V169.3h1.408a.263.263,0,0,1,.182.077l.365.3a.207.207,0,0,1,.092.153v1.6a.207.207,0,0,1-.092.153l-.365.3a.262.262,0,0,1-.182.076Zm1.728-.646v-1.369a.211.211,0,0,0-.091-.153l-.184-.152a.26.26,0,0,0-.182-.076h-.951V171.7h.951a.265.265,0,0,0,.182-.076l.184-.153A.21.21,0,0,0,180.861,171.317Z"/><path class="g" d="M171.346,173.866h2.008v.266h-.844v2.4h-.32v-2.4h-.844Z"/><path class="g" d="M175.42,173.866h.318v2.664h-.318v-1.237h-1.385v1.237h-.32v-2.664h.32v1.179h1.385Z"/><path class="g" d="M176.5,173.866h1.408a.283.283,0,0,1,.182.076l.092.076a.241.241,0,0,1,.091.191v.889a.246.246,0,0,1-.1.2l-.094.081a.281.281,0,0,1-.176.068H177.7l.391.608a.6.6,0,0,0,.061.082.292.292,0,0,0,.078.052l.041.022a.231.231,0,0,1,.08.061.319.319,0,0,1,.011.111v.149h-.1a.392.392,0,0,1-.094-.008.376.376,0,0,1-.084-.05l-.072-.05a.449.449,0,0,1-.139-.148l-.506-.811h-.547v1.067h-.32Zm.32.266V175.2h.948a.4.4,0,0,0,.088-.006.25.25,0,0,0,.052-.032.1.1,0,0,0,.039-.044.287.287,0,0,0,.006-.075v-.752a.287.287,0,0,0-.006-.075.108.108,0,0,0-.039-.044.25.25,0,0,0-.052-.032.4.4,0,0,0-.088-.006Z"/><path class="g" d="M180.766,173.866h.318v2.321a.238.238,0,0,1-.09.191l-.092.076a.286.286,0,0,1-.183.076h-1.293a.288.288,0,0,1-.182-.076l-.092-.076a.242.242,0,0,1-.091-.191v-2.321h.32v2.241a.278.278,0,0,0,.006.074.1.1,0,0,0,.039.044.2.2,0,0,0,.053.032.387.387,0,0,0,.087.006h1.012a.373.373,0,0,0,.088-.006.16.16,0,0,0,.053-.032.119.119,0,0,0,.041-.044.277.277,0,0,0,.006-.074Z"/><path class="h" d="M182.986,171.316v3.243l2.445-1.621Z"/></g></svg>