<svg xmlns="http://www.w3.org/2000/svg" width="73.969" height="73.964" viewBox="0 0 73.969 73.964"><defs><style>.a{fill:#875b7c;}.b{fill:none;stroke:#875b7c;stroke-linecap:round;stroke-linejoin:round;stroke-width:3px;}</style></defs><g transform="translate(-617.016 -33)"><path class="a" d="M6.517,44.941c-1.739,7.9-.4,14.546,3.785,18.726,4.445,4.445,10.674,4.831,15.119,4.372a2.889,2.889,0,0,1,.594,5.748,33.11,33.11,0,0,1-3.4.178,26.717,26.717,0,0,1-7.44-1.006,20.574,20.574,0,0,1-8.964-5.207A20.939,20.939,0,0,1,.542,56.884,31.788,31.788,0,0,1,.874,43.7a45.215,45.215,0,0,1,2.057-6.714A45.236,45.236,0,0,1,.874,30.269,31.791,31.791,0,0,1,.542,17.082,20.942,20.942,0,0,1,6.216,6.214,20.545,20.545,0,0,1,15.032,1.05a28.159,28.159,0,0,1,10.65-.9A2.889,2.889,0,1,1,25.143,5.9c-4.357-.408-10.467.025-14.841,4.4C6.121,14.48,4.778,21.131,6.518,29.026c.029.133.062.267.093.4a63.964,63.964,0,0,1,9.98-12.838,65.959,65.959,0,0,1,7.569-6.509,2.889,2.889,0,0,1,3.419,4.658,60.157,60.157,0,0,0-6.9,5.937A55.793,55.793,0,0,0,9.192,36.983,55.8,55.8,0,0,0,20.676,53.292a60.218,60.218,0,0,0,6.774,5.843,2.889,2.889,0,1,1-3.432,4.648,65.948,65.948,0,0,1-7.427-6.4A63.943,63.943,0,0,1,6.611,44.54c-.032.133-.064.267-.094.4Zm64.522-7.958A45.216,45.216,0,0,0,73.1,30.269a31.788,31.788,0,0,0,.333-13.187A20.944,20.944,0,0,0,67.754,6.214,20.547,20.547,0,0,0,58.939,1.05a28.158,28.158,0,0,0-10.65-.9A2.889,2.889,0,1,0,48.826,5.9c4.357-.407,10.467.025,14.842,4.4,4.18,4.181,5.524,10.831,3.784,18.726-.03.133-.062.267-.093.4a63.95,63.95,0,0,0-9.98-12.838,65.84,65.84,0,0,0-7.568-6.509,2.889,2.889,0,0,0-3.42,4.658,60.006,60.006,0,0,1,6.9,5.937A55.811,55.811,0,0,1,64.778,36.983,55.812,55.812,0,0,1,53.294,53.292a60.182,60.182,0,0,1-6.742,5.819,2.889,2.889,0,1,0,3.436,4.646,65.92,65.92,0,0,0,7.392-6.378,63.965,63.965,0,0,0,9.98-12.838c.031.134.063.267.093.4,1.74,7.9.4,14.545-3.784,18.725-4.517,4.518-10.871,4.854-15.407,4.341a2.889,2.889,0,0,0-.65,5.742,32.759,32.759,0,0,0,3.687.212c6.643,0,12.4-2.149,16.456-6.209a20.942,20.942,0,0,0,5.674-10.868A31.782,31.782,0,0,0,73.1,43.7a45.238,45.238,0,0,0-2.056-6.715ZM37,63.853a2.889,2.889,0,1,0,2.889,2.889A2.889,2.889,0,0,0,37,63.853Zm.144-54.317a2.889,2.889,0,1,0-2.889-2.889A2.889,2.889,0,0,0,37.146,9.536Z" transform="translate(617.015 32.999)"/><g transform="translate(636.797 47.903)"><path class="b" d="M39.569,35.089v-4.2A8.392,8.392,0,0,0,31.177,22.5H14.392A8.392,8.392,0,0,0,6,30.892v4.2" transform="translate(-6 3.677)"/><path class="b" d="M28.785,12.892A8.537,8.537,0,0,1,25.928,19.2a8.167,8.167,0,0,1-5.536,2.084,8.392,8.392,0,1,1,8.392-8.392Z" transform="translate(-3.608 4.5)"/></g><path class="a" d="M11.99,16.794V10.5h-4.2v6.294H1.5v4.2H7.794v6.294h4.2V20.99h6.294v-4.2Z" transform="translate(644.389 66.776)"/></g></svg>