<svg xmlns="http://www.w3.org/2000/svg" width="24.283" height="21.855" viewBox="0 0 24.283 21.855"><defs><style>.a{fill:#373633;}</style></defs><g transform="translate(-3 -3)"><path class="a" d="M20.971,17.085A3.885,3.885,0,1,1,17.085,13.2,3.885,3.885,0,0,1,20.971,17.085Z" transform="translate(-1.944 -1.944)"/><path class="a" d="M11.5,3,9.277,5.428H5.428A2.435,2.435,0,0,0,3,7.857v14.57a2.435,2.435,0,0,0,2.428,2.428H24.855a2.435,2.435,0,0,0,2.428-2.428V7.857a2.435,2.435,0,0,0-2.428-2.428H21.006L18.784,3Zm3.642,18.212a6.071,6.071,0,1,1,6.071-6.071A6.073,6.073,0,0,1,15.141,21.212Z"/></g></svg>