<svg xmlns="http://www.w3.org/2000/svg" width="16.534" height="13.979" viewBox="0 0 16.534 13.979"><defs><style>.a{fill:none;stroke:#875b7c;}.b{fill:#875b7c;}</style></defs><g transform="translate(-1051.5 -996.5)"><g transform="translate(1052 997)"><path class="a" d="M937.887,220H925.458a1.5,1.5,0,0,0-1.546,1.437l-.006,10.525a1.091,1.091,0,0,0,1.841.706l.948-.878a1.125,1.125,0,0,1,.763-.292h10.428a1.5,1.5,0,0,0,1.554-1.437v-8.623A1.5,1.5,0,0,0,937.887,220Z" transform="translate(-923.906 -220)"/></g><circle class="b" cx="0.837" cy="0.837" r="0.837" transform="translate(1055.412 1002.389)"/><circle class="b" cx="0.837" cy="0.837" r="0.837" transform="translate(1059.3 1002.389)"/><circle class="b" cx="0.837" cy="0.837" r="0.837" transform="translate(1063.188 1002.389)"/></g></svg>