<svg xmlns="http://www.w3.org/2000/svg" width="38.454" height="28.84" viewBox="0 0 38.454 28.84"><defs><style>.a{fill:#373633;}</style></defs><path class="a" d="M40.206,11.832H37.517V7.8l-5.551-.085.029,4.12H15.314l.114-4.12L9.992,7.8v4.12l-2.747-.085A2.748,2.748,0,0,0,4.5,14.579V33.806a2.748,2.748,0,0,0,2.747,2.747h32.96a2.748,2.748,0,0,0,2.747-2.747V14.579A2.748,2.748,0,0,0,40.206,11.832ZM33.339,9.085h2.747v5.493H33.339ZM15.485,18.441c1.659,0,3,1.767,3,3.948s-1.346,3.948-3,3.948-3-1.767-3-3.948,1.346-3.948,3-3.948Zm-4.12-9.355h2.747v5.493H11.365Zm-1.831,21.9s.325-2.612,1.066-3.105a10.533,10.533,0,0,1,2.87-.821s1.382,1.476,1.969,1.476,1.968-1.476,1.968-1.476a10.5,10.5,0,0,1,2.872.821c.869.58,1.086,3.105,1.086,3.105H9.535Zm27.924-1.3H25.1V28.312h12.36Zm0-2.747H25.1V25.566h12.36Zm0-2.747H25.1V22.819h12.36Zm0-2.747H25.1V20.072h12.36Z" transform="translate(-4.499 -7.712)"/></svg>