<svg xmlns="http://www.w3.org/2000/svg" width="21.725" height="17.645" viewBox="0 0 21.725 17.645"><path d="M19.492,7.778c.014.193.014.386.014.579A12.582,12.582,0,0,1,6.837,21.026a12.583,12.583,0,0,1-6.837-2,9.211,9.211,0,0,0,1.075.055A8.917,8.917,0,0,0,6.6,17.18,4.46,4.46,0,0,1,2.44,14.092a5.615,5.615,0,0,0,.841.069,4.709,4.709,0,0,0,1.172-.152,4.453,4.453,0,0,1-3.57-4.37V9.584a4.484,4.484,0,0,0,2.013.565A4.459,4.459,0,0,1,1.516,4.194,12.656,12.656,0,0,0,10.7,8.853a5.026,5.026,0,0,1-.11-1.02,4.457,4.457,0,0,1,7.706-3.047,8.766,8.766,0,0,0,2.826-1.075,4.441,4.441,0,0,1-1.957,2.454,8.926,8.926,0,0,0,2.564-.689,9.571,9.571,0,0,1-2.233,2.3Z" transform="translate(0 -3.381)"/></svg>