<svg xmlns="http://www.w3.org/2000/svg" width="15.541" height="23.026" viewBox="0 0 15.541 23.026"><path d="M87,16.052a3.1,3.1,0,0,1-2.464-.013.1.1,0,0,1,.057-.182,5.923,5.923,0,0,0,2.352.012.1.1,0,0,1,.055.183ZM92.88,3.822a5.159,5.159,0,0,0-3.123-2.278A.384.384,0,0,0,89.678.9c-2.591-1.247-6.111-1.38-8.306.736a7.029,7.029,0,0,0-1.9,5.126c0,2.149,0,2.008,0,2.058a.215.215,0,0,0,.43-.014V6.969a3.458,3.458,0,0,1,3.453-3.453h4.892A3.458,3.458,0,0,1,91.7,6.969v1.84a.215.215,0,0,0,.43.014c0-.05,0,.13,0-2.686a2.506,2.506,0,0,1,.725-1.77.387.387,0,0,0,.108-.224.41.41,0,0,0-.086-.321Zm.692,16.553v2.267a.384.384,0,0,1-.384.384H78.416a.384.384,0,0,1-.384-.384V20.376a3.959,3.959,0,0,1,3.96-3.96,1.6,1.6,0,0,0,.877-.26.382.382,0,0,1,.45.028,3.875,3.875,0,0,0,4.946-.011.382.382,0,0,1,.454-.027,1.593,1.593,0,0,0,.893.27A3.959,3.959,0,0,1,93.573,20.376Zm-3.5,1.068a.384.384,0,0,0-.384-.384H88.536a.384.384,0,0,0,0,.767h1.151A.384.384,0,0,0,90.071,21.443ZM88.248,4.283H83.356A2.689,2.689,0,0,0,80.67,6.969V10.14a5.132,5.132,0,0,0,10.264-.019V6.969a2.689,2.689,0,0,0-2.686-2.686Z" transform="translate(-78.032 0)"/></svg>