<svg xmlns="http://www.w3.org/2000/svg" width="23.677" height="23.677" viewBox="0 0 23.677 23.677"><defs><style>.a{fill:#373633;}</style></defs><path class="a" d="M0,7.029H1.434V8.416H0v6.937H1.434V16.74H0v6.937H23.677V16.74H22.243V15.353h1.434V8.416H22.243V7.029h1.434V0H0ZM22.29,22.29H1.387V18.128h20.9ZM20.856,16.74H2.821V15.353H20.856Zm1.434-2.775H1.387V9.8h20.9ZM20.856,8.416H2.821V7.029H20.856ZM1.387,1.387h20.9V5.642H1.387Z"/><path class="a" d="M61,62h1.387v1.387H61Z" transform="translate(-58.179 -59.133)"/><path class="a" d="M121,62h1.387v1.387H121Z" transform="translate(-115.404 -59.133)"/><path class="a" d="M181,62h1.387v1.387H181Z" transform="translate(-172.63 -59.133)"/><path class="a" d="M301,62h6.937v1.387H301Z" transform="translate(-287.08 -59.133)"/><path class="a" d="M61,242h1.387v1.387H61Z" transform="translate(-58.179 -230.809)"/><path class="a" d="M121,242h1.387v1.387H121Z" transform="translate(-115.404 -230.809)"/><path class="a" d="M181,242h1.387v1.387H181Z" transform="translate(-172.63 -230.809)"/><path class="a" d="M301,242h6.937v1.387H301Z" transform="translate(-287.08 -230.809)"/><path class="a" d="M61,422h1.387v1.387H61Z" transform="translate(-58.179 -402.485)"/><path class="a" d="M121,422h1.387v1.387H121Z" transform="translate(-115.404 -402.485)"/><path class="a" d="M181,422h1.387v1.387H181Z" transform="translate(-172.63 -402.485)"/><path class="a" d="M301,422h6.937v1.387H301Z" transform="translate(-287.08 -402.485)"/></svg>