<svg xmlns="http://www.w3.org/2000/svg" xmlns:xlink="http://www.w3.org/1999/xlink" width="70" height="70" viewBox="0 0 70 70"><defs><style>.a{fill:none;}.b{fill:#e6dddd;stroke:#707070;}.c{clip-path:url(#a);}.d{stroke:none;}</style><clipPath id="a"><circle class="a" cx="35" cy="35" r="35"/></clipPath></defs><g transform="translate(-0.378 -5.514)"><g class="b" transform="translate(0.378 5.515)"><circle class="d" cx="35" cy="35" r="35"/><circle class="a" cx="35" cy="35" r="34.5"/></g><g transform="translate(-352.132 -572.954)"><g class="c" transform="translate(352.511 578.468)"><g transform="translate(3.504 3.435)"><g transform="translate(17.963 1.639)"><path d="M401.655,600.395c-.659,3.291-.614,7.172-1.889,9.648a10.848,10.848,0,0,1-9.029,5.713,10.426,10.426,0,0,1-9.029-6.264c-1.073-2.353-2.281-8.368-2.579-11.406-.857-8.7,3.084-13.63,11.745-13.815C400.47,584.066,403.314,592.1,401.655,600.395Z" transform="translate(-377.29 -584.267)"/><path d="M379.409,599.323c-1.351-.739-2.579-.615-2.334.983s.614,5.9,1.474,6.633,1.719.983,2.211.123S379.409,599.323,379.409,599.323Z" transform="translate(-377.044 -586.094)"/><path d="M404.111,598.552c1.352-.738,2.58-.614,2.335.983s-.614,5.9-1.474,6.633-1.72.984-2.211.123S404.111,598.552,404.111,598.552Z" transform="translate(-380.248 -585.998)"/></g><path d="M383.591,612.232c.369,3.44.246,8.6-.491,11.18.122.122,3.159,6.37,8.968,6.019,5.455-.33,7.494-6.388,7.494-6.388s-1.247-6.459-.369-10.442C399.967,609.088,383.591,612.232,383.591,612.232Z" transform="translate(-359.838 -585.962)"/><path d="M417.038,632.3c-.771-2.214-4.332-3.466-4.332-3.466l-14.584-6.065-2.575-3.88-7.438,4.542-7.486-4.59-2.332,3.88-14.44,5.487a10.762,10.762,0,0,0-3.706,2.5c-.61.691-3,8.889-3.629,22.805h62.992C418.875,639.6,417.341,633.169,417.038,632.3Z" transform="translate(-356.515 -586.949)"/><path d="M384.089,586.226c-.385-3.177,1.468-4.525,7.653-3.49,3.731.624,7.99,2.31,8.375.193.146-.8,2.022,3.561-.384,4.91-1.354.759-14.248-.771-14.248-.771Z" transform="translate(-359.956 -582.394)"/><path d="M383.8,586.33a2.173,2.173,0,0,0-2.888-.1c-.866.866-3.634,4.308-2.285,11.239s3.153.89,3.153.89l1.925-11.648Z" transform="translate(-359.233 -582.81)"/><path d="M401.421,586.77a1.65,1.65,0,0,1,2.31.626,15.258,15.258,0,0,1,.891,10.445c-1.443,5.885-1.949-.361-1.949-.361l-2.816-9.458Z" transform="translate(-361.933 -582.913)"/></g></g></g></g></svg>