<svg xmlns="http://www.w3.org/2000/svg" width="35" height="35" viewBox="0 0 35 35"><defs><style>.a{fill:#000;}</style></defs><path class="a" d="M0,10.391H2.119v2.051H0V22.7H2.119v2.051H0V35H35V24.746H32.881V22.7H35V12.441H32.881V10.391H35V0H0ZM32.949,32.949H2.051V26.8h30.9Zm-2.119-8.2H4.17V22.7H30.83Zm2.119-4.1H2.051V14.492h30.9Zm-2.119-8.2H4.17V10.391H30.83ZM2.051,2.051h30.9V8.34H2.051Z"/><path class="a" d="M61,62h2.051v2.051H61Z" transform="translate(-56.83 -57.762)"/><path class="a" d="M121,62h2.051v2.051H121Z" transform="translate(-112.729 -57.762)"/><path class="a" d="M181,62h2.051v2.051H181Z" transform="translate(-168.627 -57.762)"/><path class="a" d="M301,62h10.254v2.051H301Z" transform="translate(-280.424 -57.762)"/><path class="a" d="M61,242h2.051v2.051H61Z" transform="translate(-56.83 -225.457)"/><path class="a" d="M121,242h2.051v2.051H121Z" transform="translate(-112.729 -225.457)"/><path class="a" d="M181,242h2.051v2.051H181Z" transform="translate(-168.627 -225.457)"/><path class="a" d="M301,242h10.254v2.051H301Z" transform="translate(-280.424 -225.457)"/><path class="a" d="M61,422h2.051v2.051H61Z" transform="translate(-56.83 -393.152)"/><path class="a" d="M121,422h2.051v2.051H121Z" transform="translate(-112.729 -393.152)"/><path class="a" d="M181,422h2.051v2.051H181Z" transform="translate(-168.627 -393.152)"/><path class="a" d="M301,422h10.254v2.051H301Z" transform="translate(-280.424 -393.152)"/></svg>