<svg xmlns="http://www.w3.org/2000/svg" width="35" height="25.349" viewBox="0 0 35 25.349"><defs><style>.a{fill:#fff;}</style></defs><g transform="translate(0 -70.588)"><path class="a" d="M411.782,95.637a.977.977,0,0,1,0-1.45,14.729,14.729,0,0,0,0-21.848.977.977,0,0,1,0-1.45,1.157,1.157,0,0,1,1.555,0,16.683,16.683,0,0,1,0,24.749A1.157,1.157,0,0,1,411.782,95.637Z" transform="translate(-383.83)"/><path class="a" d="M366.361,134.4a.939.939,0,0,1,0-1.416,10.133,10.133,0,0,0,0-15.271.939.939,0,0,1,0-1.416,1.178,1.178,0,0,1,1.555,0,12.012,12.012,0,0,1,0,18.1A1.178,1.178,0,0,1,366.361,134.4Z" transform="translate(-341.739 -42.09)"/><path class="a" d="M320.908,173.207a.868.868,0,0,1,0-1.349,5.64,5.64,0,0,0,0-8.768.867.867,0,0,1,0-1.349,1.222,1.222,0,0,1,1.555,0,7.375,7.375,0,0,1,0,11.467A1.222,1.222,0,0,1,320.908,173.207Z" transform="translate(-298.893 -84.211)"/><path class="a" d="M5.494,95.637a16.683,16.683,0,0,1,0-24.749,1.157,1.157,0,0,1,1.555,0,.977.977,0,0,1,0,1.45,14.729,14.729,0,0,0,0,21.848.977.977,0,0,1,0,1.45A1.157,1.157,0,0,1,5.494,95.637Z" transform="translate(0 0)"/><path class="a" d="M68.334,134.4a12.012,12.012,0,0,1,0-18.1,1.178,1.178,0,0,1,1.555,0,.939.939,0,0,1,0,1.416,10.134,10.134,0,0,0,0,15.271.939.939,0,0,1,0,1.416A1.178,1.178,0,0,1,68.334,134.4Z" transform="translate(-59.511 -42.089)"/><path class="a" d="M131.223,173.2a7.375,7.375,0,0,1,0-11.467,1.222,1.222,0,0,1,1.555,0,.867.867,0,0,1,0,1.349,5.64,5.64,0,0,0,0,8.768.867.867,0,0,1,0,1.349A1.222,1.222,0,0,1,131.223,173.2Z" transform="translate(-119.793 -84.209)"/><circle class="a" cx="4.633" cy="4.633" r="4.633" transform="translate(12.867 78.629)"/><path class="a" d="M197.433,260.633A4.639,4.639,0,0,0,202.067,256H192.8A4.639,4.639,0,0,0,197.433,260.633Z" transform="translate(-179.933 -172.926)"/></g></svg>