<svg xmlns="http://www.w3.org/2000/svg" width="34.991" height="35" viewBox="0 0 34.991 35"><defs><style>.a{fill:#fff;}</style></defs><path class="a" d="M36.6,22a4.5,4.5,0,0,1,2.889-4.2,17.848,17.848,0,0,0-2.16-5.2,4.563,4.563,0,0,1-1.832.392A4.493,4.493,0,0,1,31.39,6.66,17.794,17.794,0,0,0,26.2,4.5a4.5,4.5,0,0,1-8.4,0,17.848,17.848,0,0,0-5.2,2.16,4.493,4.493,0,0,1-4.11,6.324,4.415,4.415,0,0,1-1.832-.392A18.242,18.242,0,0,0,4.5,17.8a4.5,4.5,0,0,1,.009,8.4,17.848,17.848,0,0,0,2.16,5.2A4.495,4.495,0,0,1,12.6,37.34a17.952,17.952,0,0,0,5.2,2.16,4.491,4.491,0,0,1,8.383,0,17.848,17.848,0,0,0,5.2-2.16,4.5,4.5,0,0,1,5.932-5.932,17.952,17.952,0,0,0,2.16-5.2A4.524,4.524,0,0,1,36.6,22ZM22.077,29.276a7.29,7.29,0,1,1,7.29-7.29A7.288,7.288,0,0,1,22.077,29.276Z" transform="translate(39.491 39.5) rotate(180)"/></svg>