<svg xmlns="http://www.w3.org/2000/svg" width="49.729" height="49.756" viewBox="0 0 49.729 49.756"><g transform="translate(-0.142 0)"><defs><style>.a{fill:#fff;stroke:#fff;stroke-miterlimit:10;}.b{fill:#fff;}</style></defs><path class="a" d="M84.452,37.282a18.934,18.934,0,1,0-8.741,0v.594H72.8v8.741H87.366V37.879H84.452Zm-4.371-5.23a4.36,4.36,0,0,1-1.457-8.473v-9.01h2.914v9.01a4.36,4.36,0,0,1-1.457,8.473Zm-6.7-17.019-1.77-1.77a10.133,10.133,0,0,0-1.586,4.22H72.8V20.4H70.026a10.108,10.108,0,0,0,2.848,5.751l-2.06,2.06a13.112,13.112,0,1,1,18.536,0l-2.06-2.06A10.109,10.109,0,0,0,90.137,20.4H87.366V17.483h2.767a10.132,10.132,0,0,0-1.586-4.22l-1.77,1.77-2.06-2.06L86.56,11.13a10.092,10.092,0,0,0-5.021-2.241v2.767H78.625V8.889A10.092,10.092,0,0,0,73.6,11.13l1.843,1.843Z" transform="translate(-55.075)"/><path  class="a" d="M3.056,360H.142v14.763H3.056v-3.108H14.808v-8.741H3.056Z" transform="translate(0 -325.034)"/><path  class="a" d="M372.894,359.743v2.914H361.142V371.4h11.752v3.108h2.914V359.743Z" transform="translate(-325.937 -324.778)"/></g></svg>