<svg xmlns="http://www.w3.org/2000/svg" width="26.792" height="46.929" viewBox="0 0 26.792 46.929"><defs><style>.a{fill:#fff;stroke:#fff;stroke-miterlimit:10;}.b{fill:#fff;}</style></defs><path class="a" d="M41.741,10.852v2h-7.75v-2Zm-3.25,4.359h-4.5v2h4.5Zm-4.5,6.359h7.75v-2h-7.75Zm4.5,2.36h-4.5v2h4.5Zm-4.5,6.359h7.75v-2h-7.75Zm1.208,11.4a10.125,10.125,0,1,1-15.25-8.725V10.006a5.125,5.125,0,1,1,10.25,0V32.96a10.073,10.073,0,0,1,5,8.725Zm-2,0a8.088,8.088,0,0,0-4.453-7.24l-.547-.278V10.007a3.125,3.125,0,0,0-6.25,0v24.16l-.547.278a8.122,8.122,0,1,0,11.8,7.24Zm-1.666,0a6.459,6.459,0,1,1-8.121-6.233l.371-.1v-5.23h2.583v5.229l.371.1a6.458,6.458,0,0,1,4.8,6.233ZM25.394,37.38a1.292,1.292,0,0,0-1.543-.974,5.309,5.309,0,0,0-4.158,5.207,1.29,1.29,0,1,0,2.58,0,2.776,2.776,0,0,1,2.147-2.69,1.3,1.3,0,0,0,.974-1.543Z" transform="translate(-14.949 -4.881)"/></svg>