<svg xmlns="http://www.w3.org/2000/svg" width="25.093" height="37.18" viewBox="0 0 25.093 37.18"><path d="M92.518,25.919a5,5,0,0,1-3.978-.021.155.155,0,0,1,.092-.294,9.564,9.564,0,0,0,3.8.02.155.155,0,0,1,.089.3Zm9.49-19.747a8.33,8.33,0,0,0-5.043-3.679.62.62,0,0,0-.128-1.035C92.654-.554,86.97-.77,83.426,2.647c-2.871,2.767-3.1,6.705-3.071,8.278,0,3.47,0,3.243,0,3.323a.348.348,0,0,0,.695-.023V11.253a5.583,5.583,0,0,1,5.576-5.576h7.9a5.583,5.583,0,0,1,5.576,5.576v2.972a.348.348,0,0,0,.695.023c0-.081,0,.21,0-4.338a4.047,4.047,0,0,1,1.171-2.858.625.625,0,0,0,.174-.361.661.661,0,0,0-.139-.519ZM103.125,32.9v3.66a.62.62,0,0,1-.62.62H78.652a.62.62,0,0,1-.62-.62V32.9a6.392,6.392,0,0,1,6.395-6.395,2.575,2.575,0,0,0,1.416-.42.617.617,0,0,1,.726.045,6.257,6.257,0,0,0,7.986-.018.616.616,0,0,1,.733-.043,2.573,2.573,0,0,0,1.441.436A6.392,6.392,0,0,1,103.125,32.9Zm-5.654,1.724a.62.62,0,0,0-.62-.62H94.993a.62.62,0,0,0,0,1.239h1.859A.62.62,0,0,0,97.471,34.624ZM94.528,6.916h-7.9a4.342,4.342,0,0,0-4.337,4.337v5.121a8.287,8.287,0,0,0,16.574-.03V11.253a4.342,4.342,0,0,0-4.337-4.337Z" transform="translate(-78.032)"/></svg>