<svg xmlns="http://www.w3.org/2000/svg" width="22.272" height="33" viewBox="0 0 22.272 33"><path d="M90.889,23.005a4.438,4.438,0,0,1-3.531-.018.137.137,0,0,1,.081-.261,8.489,8.489,0,0,0,3.371.018.137.137,0,0,1,.079.262ZM99.312,5.478a7.393,7.393,0,0,0-4.476-3.265.55.55,0,0,0-.113-.918C91.01-.492,85.965-.684,82.82,2.349A10.074,10.074,0,0,0,80.094,9.7c0,3.08,0,2.878,0,2.949a.309.309,0,0,0,.616-.02V9.988a4.955,4.955,0,0,1,4.949-4.949h7.012a4.955,4.955,0,0,1,4.949,4.949v2.638a.309.309,0,0,0,.616.02c0-.072,0,.187,0-3.85a3.592,3.592,0,0,1,1.039-2.537.555.555,0,0,0,.155-.32.587.587,0,0,0-.124-.461ZM100.3,29.2V32.45a.55.55,0,0,1-.55.55H78.582a.55.55,0,0,1-.55-.55V29.2a5.674,5.674,0,0,1,5.676-5.676,2.285,2.285,0,0,0,1.257-.373.547.547,0,0,1,.645.04,5.554,5.554,0,0,0,7.089-.016.547.547,0,0,1,.651-.038,2.284,2.284,0,0,0,1.279.387A5.674,5.674,0,0,1,100.3,29.2Zm-5.018,1.53a.55.55,0,0,0-.55-.55h-1.65a.55.55,0,0,0,0,1.1h1.65A.55.55,0,0,0,95.286,30.732ZM92.674,6.138H85.662a3.854,3.854,0,0,0-3.85,3.849v4.545a7.356,7.356,0,0,0,14.711-.027V9.988a3.854,3.854,0,0,0-3.849-3.849Z" transform="translate(-78.032 0)"/></svg>