<svg xmlns="http://www.w3.org/2000/svg" width="54.19" height="45.054" viewBox="0 0 54.19 45.054"><defs><style>.a{opacity:0.35;}</style></defs><g class="a" transform="translate(0 -0.5)"><path d="M164.979,157.34H133.835a.8.8,0,1,0,0,1.593h31.144a6.575,6.575,0,0,1,0,13.151h-4.1a.8.8,0,0,0,0,1.593h4.1a8.168,8.168,0,1,0,0-16.337Zm0,0" transform="translate(-118.958 -140.24)"/><path d="M116.028,222.842a1.568,1.568,0,1,0-1.568-1.567A1.569,1.569,0,0,0,116.028,222.842Zm0,0" transform="translate(-102.346 -196.006)"/><path d="M187.8,209.892a2.915,2.915,0,1,0-2.915,2.915A2.918,2.918,0,0,0,187.8,209.892Zm-4.236,0a1.322,1.322,0,1,1,1.321,1.321A1.323,1.323,0,0,1,183.566,209.892Zm0,0" transform="translate(-162.713 -184.624)"/><path d="M268.045,209.892a2.915,2.915,0,1,0-2.915,2.915A2.918,2.918,0,0,0,268.045,209.892Zm-4.236,0a1.322,1.322,0,1,1,1.321,1.321A1.323,1.323,0,0,1,263.808,209.892Zm0,0" transform="translate(-234.462 -184.624)"/><path d="M348.287,209.892a2.915,2.915,0,1,0-2.915,2.915A2.918,2.918,0,0,0,348.287,209.892Zm-4.237,0a1.322,1.322,0,1,1,1.321,1.321A1.323,1.323,0,0,1,344.05,209.892Zm0,0" transform="translate(-306.212 -184.624)"/><path d="M41.295,178.8H33.829v-5.122h4.9a.8.8,0,1,0,0-1.593H8.168a6.575,6.575,0,1,1,0-13.151h3.522a.8.8,0,0,0,0-1.593H8.168a8.168,8.168,0,1,0,0,16.337H20.36V178.8H12.894a3.5,3.5,0,0,0,0,6.995h6.669a.8.8,0,1,0,0-1.593H12.894a1.9,1.9,0,0,1,0-3.809h28.4a1.9,1.9,0,0,1,0,3.809H22.75a.8.8,0,1,0,0,1.593H41.295a3.5,3.5,0,0,0,0-6.995Zm-19.342,0v-5.122H32.236V178.8Zm0,0" transform="translate(0 -140.24)"/><path d="M170.848,4.5a14.178,14.178,0,0,1,15.814,0,.8.8,0,0,0,.879-1.329,15.774,15.774,0,0,0-17.573,0,.8.8,0,0,0,.879,1.329Zm0,0" transform="translate(-151.66)"/><path d="M209.163,50.485a.8.8,0,0,0,.432-1.466,10.644,10.644,0,0,0-11.632,0,.8.8,0,1,0,.863,1.339,9.053,9.053,0,0,1,9.906,0A.792.792,0,0,0,209.163,50.485Zm0,0" transform="translate(-176.685 -41.837)"/><path d="M230.013,94.395a4.57,4.57,0,0,0-2.759.961.8.8,0,1,0,.959,1.272,2.852,2.852,0,0,1,3.6,0,.8.8,0,0,0,.959-1.272A4.571,4.571,0,0,0,230.013,94.395Zm0,0" transform="translate(-202.919 -83.957)"/></g></svg>