<svg xmlns="http://www.w3.org/2000/svg" width="49.015" height="41.662" viewBox="0 0 49.015 41.662"><defs><style>.a{fill:#fff;}</style></defs><path class="a" d="M2.4,43.562a2.458,2.458,0,0,0,2.046,1.1H41.211a2.447,2.447,0,0,0,2.252-1.485l7.352-17.155a2.451,2.451,0,0,0-2.252-3.416H46.113V12.8a4.906,4.906,0,0,0-4.9-4.9h-12.5l-5.6-4.379A2.442,2.442,0,0,0,21.606,3H6.9A4.906,4.906,0,0,0,2,7.9v34.31h.017A2.449,2.449,0,0,0,2.4,43.562Zm37.192-3.8H8.168L13.42,27.507H44.848ZM41.211,12.8v9.8H11.8a2.447,2.447,0,0,0-2.252,1.485L6.9,30.274V12.8Z" transform="translate(-2 -3)"/></svg>