<svg xmlns="http://www.w3.org/2000/svg" width="17.795" height="17.833" viewBox="0 0 17.795 17.833"><path d="M8.9,6.066a3.239,3.239,0,0,1,3.244,3.225,3.1,3.1,0,0,1-.949,2.277,3.128,3.128,0,0,1-2.3.949,3.128,3.128,0,0,1-2.3-.949,3.206,3.206,0,0,1,0-4.553A3.125,3.125,0,0,1,8.9,6.066Zm7.228,2.428h1.669v1.594H16.125a7,7,0,0,1-2.068,4.345,7.178,7.178,0,0,1-4.345,2.106v1.669H8.082V16.538a7.235,7.235,0,0,1-4.325-2.106,6.957,6.957,0,0,1-2.087-4.345H0V8.495H1.669A6.959,6.959,0,0,1,3.756,4.15,7.231,7.231,0,0,1,8.082,2.044V.375H9.713V2.044A7.183,7.183,0,0,1,14.058,4.15,7,7,0,0,1,16.125,8.495Zm-7.209,6.45a5.45,5.45,0,0,0,4-1.65,5.453,5.453,0,0,0,1.651-4,5.447,5.447,0,0,0-1.65-4,5.456,5.456,0,0,0-4-1.651,5.509,5.509,0,0,0-4.022,1.65,5.422,5.422,0,0,0-1.669,4,5.42,5.42,0,0,0,1.669,4A5.513,5.513,0,0,0,8.916,14.945Z" transform="translate(0 -0.375)"/></svg>