<svg xmlns="http://www.w3.org/2000/svg" width="20.97" height="20.968" viewBox="0 0 20.97 20.968"><defs><style>.a{fill:#fff;}</style></defs><path class="a" d="M5.718,18.109a2.757,2.757,0,0,1-.834,2.025,2.757,2.757,0,0,1-2.025.834,2.757,2.757,0,0,1-2.025-.834,2.876,2.876,0,0,1,0-4.05,2.757,2.757,0,0,1,2.025-.834,2.757,2.757,0,0,1,2.025.834A2.757,2.757,0,0,1,5.718,18.109Zm7.625,1.832a.9.9,0,0,1-.253.715.878.878,0,0,1-.7.313H10.38a.93.93,0,0,1-.938-.864,9.265,9.265,0,0,0-2.747-5.83A9.259,9.259,0,0,0,.864,11.526.93.93,0,0,1,0,10.588V8.578a.879.879,0,0,1,.313-.7.868.868,0,0,1,.64-.253h.075a13.348,13.348,0,0,1,4.557,1.2,13.161,13.161,0,0,1,3.857,2.7,13.166,13.166,0,0,1,2.7,3.857,13.348,13.348,0,0,1,1.2,4.557Zm7.625.03a.862.862,0,0,1-.268.7.88.88,0,0,1-.685.3H17.886a.931.931,0,0,1-.663-.26.891.891,0,0,1-.291-.633,16.656,16.656,0,0,0-1.5-6.084,17.1,17.1,0,0,0-3.447-5,17.128,17.128,0,0,0-5-3.447A16.859,16.859,0,0,0,.893,4.021.893.893,0,0,1,.26,3.73.908.908,0,0,1,0,3.083V.953A.88.88,0,0,1,.3.268.892.892,0,0,1,.953,0H1A20.656,20.656,0,0,1,8.466,1.787,20.89,20.89,0,0,1,14.8,6.165,20.883,20.883,0,0,1,19.181,12.5a20.656,20.656,0,0,1,1.787,7.468Z" transform="translate(0)"/></svg>