<svg xmlns="http://www.w3.org/2000/svg" width="18.717" height="18.713" viewBox="0 0 18.717 18.713"><path d="M9.355,6.8a4.8,4.8,0,1,0,4.8,4.8A4.79,4.79,0,0,0,9.355,6.8Zm0,7.917a3.119,3.119,0,1,1,3.119-3.119,3.125,3.125,0,0,1-3.119,3.119ZM15.468,6.6a1.119,1.119,0,1,1-1.119-1.119A1.116,1.116,0,0,1,15.468,6.6Zm3.178,1.136a5.538,5.538,0,0,0-1.512-3.921A5.574,5.574,0,0,0,13.213,2.3c-1.545-.088-6.176-.088-7.721,0A5.566,5.566,0,0,0,1.572,3.811,5.556,5.556,0,0,0,.06,7.732c-.088,1.545-.088,6.176,0,7.721a5.538,5.538,0,0,0,1.512,3.921,5.581,5.581,0,0,0,3.921,1.512c1.545.088,6.176.088,7.721,0a5.538,5.538,0,0,0,3.921-1.512,5.574,5.574,0,0,0,1.512-3.921c.088-1.545.088-6.171,0-7.716Zm-2,9.374a3.158,3.158,0,0,1-1.779,1.779c-1.232.489-4.155.376-5.516.376s-4.288.109-5.516-.376A3.158,3.158,0,0,1,2.061,17.11c-.489-1.232-.376-4.155-.376-5.516s-.109-4.288.376-5.516A3.158,3.158,0,0,1,3.839,4.3c1.232-.489,4.155-.376,5.516-.376s4.288-.109,5.516.376A3.158,3.158,0,0,1,16.65,6.078c.489,1.232.376,4.155.376,5.516S17.138,15.882,16.65,17.11Z" transform="translate(0.005 -2.238)"/></svg>