<svg xmlns="http://www.w3.org/2000/svg" width="20.652" height="20.652" viewBox="0 0 20.652 20.652"><defs><style>.a{fill:#373633;}</style></defs><path class="a" d="M13.174,7.478a6.128,6.128,0,0,1,.015,8.655l-.015.015-2.711,2.711a6.131,6.131,0,0,1-8.67-8.67l1.5-1.5a.645.645,0,0,1,1.1.428,7.432,7.432,0,0,0,.391,2.127.649.649,0,0,1-.153.67l-.528.528a2.9,2.9,0,1,0,4.081,4.133l2.711-2.71a2.9,2.9,0,0,0,0-4.107,3.022,3.022,0,0,0-.417-.346.647.647,0,0,1-.28-.508,1.607,1.607,0,0,1,.472-1.2l.849-.849a.648.648,0,0,1,.83-.07,6.15,6.15,0,0,1,.828.694Zm5.685-5.685a6.138,6.138,0,0,0-8.67,0L7.478,4.5l-.015.015a6.132,6.132,0,0,0,.842,9.349.648.648,0,0,0,.83-.07l.849-.849a1.607,1.607,0,0,0,.472-1.2.647.647,0,0,0-.28-.508,3.022,3.022,0,0,1-.417-.346,2.9,2.9,0,0,1,0-4.107l2.711-2.71A2.9,2.9,0,1,1,16.55,8.208l-.528.528a.649.649,0,0,0-.153.67,7.432,7.432,0,0,1,.391,2.127.645.645,0,0,0,1.1.428l1.5-1.5a6.137,6.137,0,0,0,0-8.67Z" transform="translate(0 0)"/></svg>