<svg xmlns="http://www.w3.org/2000/svg" width="13.51" height="13.513" viewBox="0 0 13.51 13.513"><defs><style>.a{fill:#373633;}</style></defs><path class="a" d="M16.894,11.255a1.738,1.738,0,0,1,1.115-1.622,6.891,6.891,0,0,0-.834-2.009,1.762,1.762,0,0,1-.707.151,1.735,1.735,0,0,1-1.587-2.442A6.87,6.87,0,0,0,12.877,4.5a1.737,1.737,0,0,1-3.244,0,6.891,6.891,0,0,0-2.009.834A1.735,1.735,0,0,1,6.037,7.775a1.7,1.7,0,0,1-.707-.151A7.043,7.043,0,0,0,4.5,9.636a1.738,1.738,0,0,1,0,3.244,6.891,6.891,0,0,0,.834,2.009,1.735,1.735,0,0,1,2.29,2.29,6.931,6.931,0,0,0,2.009.834,1.734,1.734,0,0,1,3.237,0,6.891,6.891,0,0,0,2.009-.834,1.737,1.737,0,0,1,2.29-2.29,6.931,6.931,0,0,0,.834-2.009A1.747,1.747,0,0,1,16.894,11.255Zm-5.608,2.811A2.814,2.814,0,1,1,14.1,11.251,2.814,2.814,0,0,1,11.286,14.066Z" transform="translate(18.01 18.013) rotate(180)"/></svg>