<svg xmlns="http://www.w3.org/2000/svg" width="14.487" height="21.465" viewBox="0 0 14.487 21.465"><defs><style>.a{fill:#fff;}</style></defs><path class="a" d="M86.395,14.964a2.887,2.887,0,0,1-2.3-.012.089.089,0,0,1,.053-.17,5.522,5.522,0,0,0,2.193.012.089.089,0,0,1,.051.17Zm5.479-11.4a4.809,4.809,0,0,0-2.911-2.124.358.358,0,0,0-.074-.6c-2.415-1.162-5.7-1.287-7.743.686a6.553,6.553,0,0,0-1.773,4.779c0,2,0,1.872,0,1.918a.2.2,0,0,0,.4-.013V6.5A3.223,3.223,0,0,1,83,3.277h4.561A3.223,3.223,0,0,1,90.775,6.5V8.212a.2.2,0,0,0,.4.013c0-.047,0,.121,0-2.5a2.337,2.337,0,0,1,.676-1.65.361.361,0,0,0,.1-.208.382.382,0,0,0-.08-.3Zm.645,15.431v2.113a.358.358,0,0,1-.358.358H78.39a.358.358,0,0,1-.358-.358V18.994A3.69,3.69,0,0,1,81.724,15.3a1.487,1.487,0,0,0,.818-.242.356.356,0,0,1,.419.026,3.613,3.613,0,0,0,4.611-.011A.356.356,0,0,1,88,15.051a1.485,1.485,0,0,0,.832.252A3.69,3.69,0,0,1,92.519,18.994Zm-3.264,1a.358.358,0,0,0-.358-.358H87.824a.358.358,0,0,0,0,.715H88.9A.358.358,0,0,0,89.255,19.99Zm-1.7-16H83a2.507,2.507,0,0,0-2.5,2.5V9.453a4.785,4.785,0,0,0,9.569-.017V6.5a2.507,2.507,0,0,0-2.5-2.5Z" transform="translate(-78.032 0)"/></svg>