<svg xmlns="http://www.w3.org/2000/svg" width="14.4" height="18" viewBox="0 0 14.4 18"><defs><style>.a{fill:#fff;}</style></defs><path class="a" d="M9.4,2h2.7a4.48,4.48,0,0,0-.9,2.7,4.539,4.539,0,0,0,.05.675H11.2c-2.7,0-3.6,2.043-3.6,4.275V15.5h7.2V9.65c0-.183-.006-.365-.019-.544a4.544,4.544,0,0,0,1.805.006q.013.265.013.537V14.6l1.8.9v1.8H4V15.5l1.8-.9V9.65c0-2.772,1.026-5.076,3.6-5.688Z" transform="translate(-4 -2)"/><path class="a" d="M14,4.7a2.7,2.7,0,1,1,.321,1.279A2.7,2.7,0,0,1,14,4.7Z" transform="translate(-5 -2)"/><path class="a" d="M11.8,21.8A1.805,1.805,0,0,0,13.6,20H10A1.805,1.805,0,0,0,11.8,21.8Z" transform="translate(-4.6 -3.8)"/></svg>