<svg xmlns="http://www.w3.org/2000/svg" width="17.468" height="18" viewBox="0 0 17.468 18"><defs><style>.a{fill:#fff;fill-rule:evenodd;}</style></defs><g transform="translate(0)"><path class="a" d="M2.416,7.919,4.054,5.081a.9.9,0,0,1,1.052-.408L6.76,5.2a7.3,7.3,0,0,1,1.381-.8l.371-1.695A.9.9,0,0,1,9.392,2h3.276a.9.9,0,0,1,.879.708L13.918,4.4a7.3,7.3,0,0,1,1.381.8l1.653-.526A.9.9,0,0,1,18,5.081l1.638,2.837a.9.9,0,0,1-.173,1.115L18.187,10.2a7.307,7.307,0,0,1,0,1.6l1.282,1.169a.9.9,0,0,1,.173,1.115L18,16.919a.9.9,0,0,1-1.052.408L15.3,16.8a7.3,7.3,0,0,1-1.381.8l-.371,1.695a.9.9,0,0,1-.879.708H9.392a.9.9,0,0,1-.879-.708L8.142,17.6a7.305,7.305,0,0,1-1.381-.8l-1.653.526a.9.9,0,0,1-1.052-.408L2.416,14.081a.9.9,0,0,1,.173-1.115L3.872,11.8a7.3,7.3,0,0,1,0-1.6L2.59,9.034A.9.9,0,0,1,2.416,7.919ZM11.943,3.8l.412,1.883.84.368a5.368,5.368,0,0,1,.552.281l0,0a5.386,5.386,0,0,1,.482.316l.739.543,1.837-.585.914,1.583L16.3,9.49l.1.911a5.388,5.388,0,0,1,.033.6v0a5.392,5.392,0,0,1-.033.6l-.1.911,1.425,1.3-.914,1.583-1.837-.585-.739.543a5.391,5.391,0,0,1-.489.32l0,0a5.373,5.373,0,0,1-.546.278l-.84.368L11.943,18.2H10.116L9.7,16.317l-.84-.368a5.392,5.392,0,0,1-.516-.26l0,0a5.377,5.377,0,0,1-.519-.337l-.739-.543-1.837.585-.914-1.583,1.425-1.3-.1-.911a5.376,5.376,0,0,1-.033-.6v0a5.376,5.376,0,0,1,.033-.6l.1-.911-1.425-1.3.914-1.583,1.837.585.739-.543a5.374,5.374,0,0,1,.513-.334l0,0a5.372,5.372,0,0,1,.521-.263l.84-.368L10.116,3.8Z" transform="translate(-2.296 -2)"/><path class="a" d="M15.2,11.6A3.6,3.6,0,1,1,11.6,8,3.6,3.6,0,0,1,15.2,11.6Zm-1.8,0a1.8,1.8,0,1,1-1.8-1.8A1.8,1.8,0,0,1,13.4,11.6Z" transform="translate(-2.866 -2.6)"/></g></svg>