<svg xmlns="http://www.w3.org/2000/svg" width="30" height="30" viewBox="0 0 30 30"><g transform="translate(0 -0.003)"><path d="M29.375,26.253H3.75V.628a.625.625,0,1,0-1.25,0V26.253H.625a.625.625,0,1,0,0,1.25H2.5v1.875a.625.625,0,1,0,1.25,0V27.5H29.375a.625.625,0,1,0,0-1.25Z"/><path d="M85.973,85.244a.625.625,0,0,1-.487-1.015l5-6.25a.625.625,0,0,1,.453-.235.615.615,0,0,1,.476.183l1.934,1.935L96.685,74.3a.625.625,0,0,1,.5-.3.654.654,0,0,1,.53.234l1.672,2.091,2.224-10.576a.625.625,0,0,1,1.054-.312l3.24,3.24,3.317-4.427a.625.625,0,1,1,1,.749h0l-3.75,5a.625.625,0,0,1-.941.067L102.6,67.127l-2.263,10.75a.625.625,0,0,1-1.1.261L97.3,75.716l-3.287,5.479a.625.625,0,0,1-.977.125l-2-2-4.57,5.691A.625.625,0,0,1,85.973,85.244Z" transform="translate(-80.348 -60.242)"/></g></svg>