<svg xmlns="http://www.w3.org/2000/svg" width="30" height="24.12" viewBox="0 0 30 24.12"><defs><style>.a{fill:#fff;}</style></defs><g transform="translate(0 -29.344)"><g transform="translate(0 29.344)"><path class="a" d="M230.252,101.7h1.817V95.423h-1.817Z" transform="translate(-207.183 -88.803)"/><path class="a" d="M30,53.464V48.416H23.79v-5.63H22.523V35.42H23.7a7.131,7.131,0,0,0-7.049-6.076H7.137A7.137,7.137,0,0,0,0,36.482V46a7.137,7.137,0,0,0,7.137,7.137h9.516c3.7,0,6.74.657,7.1-2.52h4.081v2.849Zm-9.867-6.176c0,2.7-2.192,2.192-4.9,2.192H8.71a4.9,4.9,0,0,1-4.9-4.9V38.056a4.9,4.9,0,0,1,4.9-4.9h6.527a4.9,4.9,0,0,1,4.9,4.9v9.231Z" transform="translate(0 -29.344)"/><path class="a" d="M85.346,95.755v-.032a1.964,1.964,0,0,0,1.175-.848,2.651,2.651,0,0,0,.392-1.44,2.587,2.587,0,0,0-.336-1.328,3.245,3.245,0,0,0-.872-.975,3.831,3.831,0,0,0-1.208-.6,4.681,4.681,0,0,0-1.343-.2,4.209,4.209,0,0,0-1.567.28,3.475,3.475,0,0,0-1.208.792,3.594,3.594,0,0,0-.784,1.223,4.744,4.744,0,0,0-.312,1.575h2.159a2.194,2.194,0,0,1,.424-1.432,1.548,1.548,0,0,1,1.3-.568,1.718,1.718,0,0,1,1.1.384,1.331,1.331,0,0,1,.48,1.1,1.19,1.19,0,0,1-.232.768,1.492,1.492,0,0,1-.592.44,2.449,2.449,0,0,1-.775.184,4.821,4.821,0,0,1-.784,0v1.6q.416,0,.872.024a2.655,2.655,0,0,1,.84.176,1.426,1.426,0,0,1,.632.488,1.914,1.914,0,0,1-.28,2.263,1.874,1.874,0,0,1-1.3.473,1.924,1.924,0,0,1-.856-.176,1.752,1.752,0,0,1-.6-.472,2.1,2.1,0,0,1-.368-.7,3.229,3.229,0,0,1-.144-.856H79.013a4.473,4.473,0,0,0,.28,1.727,3.5,3.5,0,0,0,.84,1.271,3.611,3.611,0,0,0,1.319.792,5.41,5.41,0,0,0,3.287.032,4.078,4.078,0,0,0,1.328-.7,3.428,3.428,0,0,0,.92-1.151A3.463,3.463,0,0,0,87.33,98.3a2.627,2.627,0,0,0-.527-1.647A2.444,2.444,0,0,0,85.346,95.755Z" transform="translate(-71.096 -84.222)"/></g></g></svg>