<svg xmlns="http://www.w3.org/2000/svg" width="30" height="30" viewBox="0 0 30 30"><g transform="translate(15.938)"><path d="M272.879,0A.878.878,0,0,0,272,.879V13.242a.878.878,0,0,0,.879.879h12.3a.878.878,0,0,0,.879-.879A13.248,13.248,0,0,0,272.879,0Z" transform="translate(-272)"/></g><g transform="translate(0 3.574)"><path d="M18.445,85.455,14.18,74.024V61.879A.878.878,0,0,0,13.3,61a13.213,13.213,0,1,0,0,26.426,13.12,13.12,0,0,0,4.63-.839A.88.88,0,0,0,18.445,85.455Z" transform="translate(0 -61)"/></g><g transform="translate(15.937 15.879)"><path d="M285.181,271h-12.3a.879.879,0,0,0-.823,1.188l4.321,11.581a.88.88,0,0,0,1.133.513,13.335,13.335,0,0,0,8.553-12.4A.878.878,0,0,0,285.181,271Z" transform="translate(-271.997 -271)"/></g></svg>