<svg xmlns="http://www.w3.org/2000/svg" width="15.84" height="11.87" viewBox="0 0 15.84 11.87"><defs><style>.a{fill:#fff;fill-rule:evenodd;}</style></defs><g transform="translate(0 -3.25)"><path class="a" d="M.495,18a.5.5,0,0,1,.495.495V21.96a.99.99,0,0,0,.99.99H13.86a.99.99,0,0,0,.99-.99V18.495a.495.495,0,1,1,.99,0V21.96a1.98,1.98,0,0,1-1.98,1.98H1.98A1.98,1.98,0,0,1,0,21.96V18.495A.5.5,0,0,1,.495,18Z" transform="translate(0 -8.82)"/><path class="a" d="M11.065,16.69a.5.5,0,0,1,.7,0l2.27,2.27,2.27-2.27a.495.495,0,0,1,.7.7l-2.62,2.621a.495.495,0,0,1-.7,0L11.065,17.39A.5.5,0,0,1,11.065,16.69Z" transform="translate(-6.116 -7.006)"/><path class="a" d="M17.37,2.25a.5.5,0,0,1,.495.495v7.92a.495.495,0,1,1-.99,0V2.745A.5.5,0,0,1,17.37,2.25Z" transform="translate(-9.45 1)"/></g></svg>