<svg xmlns="http://www.w3.org/2000/svg" width="8.502" height="8.502" viewBox="0 0 8.502 8.502"><defs><style>.a{fill:#fff;}</style></defs><g transform="translate(-194 -303.095)"><path class="a" d="M7.251,11.779,9.613,9.889,7.251,8V9.417H3v.945H7.251Z" transform="translate(191 297.457)"/><path class="a" d="M13.2,3H8.945A.946.946,0,0,0,8,3.945V5.834h.945V3.945H13.2v6.613H8.945V8.668H8v1.889a.946.946,0,0,0,.945.945H13.2a.946.946,0,0,0,.945-.945V3.945A.946.946,0,0,0,13.2,3Z" transform="translate(188.362 300.095)"/></g></svg>