<svg xmlns="http://www.w3.org/2000/svg" width="36" height="27" viewBox="0 0 36 27"><defs><style>.a{fill:#fff;}</style></defs><g transform="translate(7.706 7.669)"><path d="M32.625,9h-13.5l-4.5-4.5H3.375A3.375,3.375,0,0,0,0,7.875v20.25A3.375,3.375,0,0,0,3.375,31.5h29.25A3.375,3.375,0,0,0,36,28.125V12.375A3.375,3.375,0,0,0,32.625,9Z" transform="translate(-7.706 -12.169)"/><g transform="translate(0 5.151)"><path class="a" d="M18.075,240H3.1a3.1,3.1,0,0,0,0,6.2H18.075a3.1,3.1,0,0,0,0-6.2ZM3.1,243.723a.62.62,0,1,1,.62-.62A.62.62,0,0,1,3.1,243.723Zm2.523,0a.62.62,0,1,1,.62-.62A.62.62,0,0,1,5.625,243.723Zm2.482,0a.62.62,0,1,1,.62-.62A.62.62,0,0,1,8.107,243.723Zm9.968,0h-5a.62.62,0,1,1,0-1.241h5a.62.62,0,1,1,0,1.241Z" transform="translate(0 -240)"/></g></g></svg>