<svg xmlns="http://www.w3.org/2000/svg" width="32.844" height="32.823" viewBox="0 0 32.844 32.823"><defs><style>.a{fill:#fff;}</style></defs><g transform="translate(0 -0.164)"><path d="M31.881,12.945H28.84a12.921,12.921,0,0,0-.793-1.989L30.433,8.57a.963.963,0,0,0,0-1.361L26.187,2.963a.963.963,0,0,0-1.362,0L22.515,5.273a12.918,12.918,0,0,0-2.027-.867V1.127a.963.963,0,0,0-.963-.963h-6a.963.963,0,0,0-.963.963v3.21a12.911,12.911,0,0,0-2.124.873L8.354,3.13a.963.963,0,0,0-1.362,0L2.747,7.376a.963.963,0,0,0,0,1.362l2.1,2.1a12.914,12.914,0,0,0-.856,2.112H.963A.963.963,0,0,0,0,13.908v6a.963.963,0,0,0,.963.963H4.091a12.919,12.919,0,0,0,.849,1.973L2.7,25.083a.963.963,0,0,0,0,1.362L6.95,30.691a.963.963,0,0,0,1.362,0l2.31-2.31a12.925,12.925,0,0,0,1.814.739v2.905a.963.963,0,0,0,.963.963h6a.963.963,0,0,0,.963-.963v-2.9a12.915,12.915,0,0,0,1.96-.809l2.394,2.394a.963.963,0,0,0,1.362,0l4.246-4.246a.963.963,0,0,0,0-1.362L27.95,22.726a12.942,12.942,0,0,0,.785-1.851h3.147a.963.963,0,0,0,.963-.963v-6a.963.963,0,0,0-.963-.963Z" transform="translate(0 0)"/><path class="a" d="M126.681,143.385a.969.969,0,0,0,1.044.411l1.705-.431a.962.962,0,0,0-.254-1.9,5.723,5.723,0,0,1,10.2,1.427.963.963,0,0,0,1.833-.59,7.65,7.65,0,0,0-13.894-1.5.963.963,0,0,0-1.568,1.114l.924,1.457Z" transform="translate(-117.541 -128.057)"/><path class="a" d="M156.746,268.854a.968.968,0,0,0-1.058-.432l-1.705.431a.963.963,0,0,0,.235,1.9h.018a5.723,5.723,0,0,1-10.2-1.428.963.963,0,1,0-1.833.59,7.65,7.65,0,0,0,13.894,1.5.963.963,0,0,0,1.568-1.114Z" transform="translate(-133.028 -251.01)"/></g></svg>