<svg xmlns="http://www.w3.org/2000/svg" width="29.746" height="35.654" viewBox="0 0 29.746 35.654"><defs><style>.a{fill:#78576f;stroke:#fff;stroke-width:0.5px;}</style></defs><g transform="translate(0 0)"><path d="M95.619,17.175a8.309,8.309,0,0,0,6.072-2.516,8.309,8.309,0,0,0,2.516-6.072,8.31,8.31,0,0,0-2.516-6.072,8.585,8.585,0,0,0-12.143,0,8.309,8.309,0,0,0-2.516,6.071,8.309,8.309,0,0,0,2.516,6.072A8.311,8.311,0,0,0,95.619,17.175Zm0,0" transform="translate(-80.971)"/><path d="M29.673,257.51a21.211,21.211,0,0,0-.289-2.253,17.749,17.749,0,0,0-.554-2.265,11.188,11.188,0,0,0-.931-2.112,7.972,7.972,0,0,0-1.4-1.83,6.191,6.191,0,0,0-2.017-1.267,6.97,6.97,0,0,0-2.575-.466,2.613,2.613,0,0,0-1.4.592c-.418.273-.908.588-1.454.937a8.331,8.331,0,0,1-1.881.829,7.305,7.305,0,0,1-4.6,0,8.312,8.312,0,0,1-1.88-.829c-.541-.346-1.031-.661-1.455-.938a2.61,2.61,0,0,0-1.4-.592,6.961,6.961,0,0,0-2.575.467,6.185,6.185,0,0,0-2.017,1.267,7.972,7.972,0,0,0-1.4,1.83,11.209,11.209,0,0,0-.931,2.113,17.79,17.79,0,0,0-.554,2.265,21.136,21.136,0,0,0-.289,2.254C.024,258.193,0,258.9,0,259.616A5.92,5.92,0,0,0,1.758,264.1a6.33,6.33,0,0,0,4.531,1.653H23.456a6.328,6.328,0,0,0,4.531-1.653,5.918,5.918,0,0,0,1.759-4.479c0-.718-.024-1.427-.072-2.106Zm0,0" transform="translate(0 -230.094)"/><path class="a" d="M339.786,375.658a.25.25,0,1,0,.25.25A.25.25,0,0,0,339.786,375.658Zm.109.293h-.066v.067a.043.043,0,0,1-.086,0v-.067h-.066a.043.043,0,1,1,0-.086h.066V375.8a.043.043,0,1,1,.086,0v.066h.066a.043.043,0,1,1,0,.086Z" transform="translate(-324.796 -349.691)"/></g></svg>