<svg xmlns="http://www.w3.org/2000/svg" width="31.865" height="38.239" viewBox="0 0 31.865 38.239"><defs><style>.a{stroke:#fff;stroke-width:0.5px;opacity:0;}</style></defs><g transform="translate(-46 -41.797)"><g transform="translate(3.325 41.797)"><g transform="translate(42.675)"><path d="M74.427,32.016,71.691,27.49a13.371,13.371,0,0,1-1.931-6.918V16.607A11.1,11.1,0,0,0,61.794,6V3.163a3.187,3.187,0,0,0-6.373,0V6a11.1,11.1,0,0,0-7.966,10.6v3.965a13.379,13.379,0,0,1-1.929,6.916l-2.736,4.527a.785.785,0,0,0-.01.8.8.8,0,0,0,.692.4H73.743a.8.8,0,0,0,.693-.4A.789.789,0,0,0,74.427,32.016Z" transform="translate(-42.675 0)"/></g><g transform="translate(53.332 34.889)"><path d="M188.815,469.333a5.828,5.828,0,0,0,10.55,0Z" transform="translate(-188.815 -469.333)"/></g></g><path class="a" d="M244.982,40.773a.251.251,0,0,0-.3-.246h0a.251.251,0,1,0,.106.49h0A.251.251,0,0,0,244.982,40.773Zm-.2.09a.034.034,0,1,1-.067,0v-.146h-.032a.034.034,0,1,1,0-.067h.065a.034.034,0,0,1,.034.034Z" transform="translate(-183.262 25.143)"/><path class="a" d="M245.626,41.1a.574.574,0,0,0-.678-.563h0a.573.573,0,1,0,.243,1.12h0A.574.574,0,0,0,245.626,41.1Zm-.452.206a.077.077,0,1,1-.154,0v-.334h-.072a.077.077,0,1,1,0-.154h.15a.077.077,0,0,1,.077.077Z" transform="translate(-182.834 20.581)"/></g></svg>