<svg xmlns="http://www.w3.org/2000/svg" width="36.589" height="10.719" viewBox="0 0 36.589 10.719"><g transform="translate(-44 -56.562)"><g transform="translate(44 46.411)"><g transform="translate(0 10.151)"><path d="M31.229,240H5.36a5.36,5.36,0,0,0,0,10.719h25.87a5.36,5.36,0,0,0,0-10.719ZM5.36,246.432a1.072,1.072,0,1,1,1.072-1.072A1.072,1.072,0,0,1,5.36,246.432Zm4.359,0a1.072,1.072,0,1,1,1.072-1.072A1.072,1.072,0,0,1,9.719,246.432Zm4.288,0a1.072,1.072,0,1,1,1.072-1.072A1.072,1.072,0,0,1,14.007,246.432Zm17.223,0H22.582a1.072,1.072,0,0,1,0-2.144h8.647a1.072,1.072,0,0,1,0,2.144Z" transform="translate(0 -240)"/></g></g><g transform="translate(44 46.411)"><g transform="translate(0 10.151)"><path d="M31.229,240H5.36a5.36,5.36,0,0,0,0,10.719h25.87a5.36,5.36,0,0,0,0-10.719ZM5.36,246.432a1.072,1.072,0,1,1,1.072-1.072A1.072,1.072,0,0,1,5.36,246.432Zm4.359,0a1.072,1.072,0,1,1,1.072-1.072A1.072,1.072,0,0,1,9.719,246.432Zm4.288,0a1.072,1.072,0,1,1,1.072-1.072A1.072,1.072,0,0,1,14.007,246.432Zm17.223,0H22.582a1.072,1.072,0,0,1,0-2.144h8.647a1.072,1.072,0,0,1,0,2.144Z" transform="translate(0 -240)"/></g></g><g transform="translate(44 46.411)"><g transform="translate(0 10.151)"><path d="M31.229,240H5.36a5.36,5.36,0,0,0,0,10.719h25.87a5.36,5.36,0,0,0,0-10.719ZM5.36,246.432a1.072,1.072,0,1,1,1.072-1.072A1.072,1.072,0,0,1,5.36,246.432Zm4.359,0a1.072,1.072,0,1,1,1.072-1.072A1.072,1.072,0,0,1,9.719,246.432Zm4.288,0a1.072,1.072,0,1,1,1.072-1.072A1.072,1.072,0,0,1,14.007,246.432Zm17.223,0H22.582a1.072,1.072,0,0,1,0-2.144h8.647a1.072,1.072,0,0,1,0,2.144Z" transform="translate(0 -240)"/></g></g></g></svg>