<svg xmlns="http://www.w3.org/2000/svg" width="16.368" height="16.368" viewBox="0 0 16.368 16.368"><defs><style>.a{opacity:0.5;}</style></defs><path class="a" d="M12.816,11.708c-2.146-.782-2.832-1.442-2.832-2.855,0-.848.7-1.4.943-2.124a17.258,17.258,0,0,0,.494-2.213,13.814,13.814,0,0,0,.224-1.535C11.721,2.149,11.164,0,8.184,0S4.647,2.149,4.725,2.981a13.922,13.922,0,0,0,.224,1.535A17.175,17.175,0,0,0,5.441,6.73c.24.727.944,1.276.944,2.124,0,1.413-.686,2.073-2.832,2.855S0,13.265,0,13.811v2.558H16.368V13.811C16.368,13.265,14.969,12.493,12.816,11.708Z" transform="translate(0)"/></svg>