<svg xmlns="http://www.w3.org/2000/svg" width="35" height="22.28" viewBox="0 0 35 22.28"><defs><style>.a{fill:#000;}</style></defs><g transform="translate(-3 -6.5)"><g transform="translate(27.306 9.174)"><path class="a" d="M21.565,15.13a3.565,3.565,0,1,1,3.565-3.565A3.575,3.575,0,0,1,21.565,15.13Zm0-5.347a1.684,1.684,0,0,0-1.782,1.782,1.782,1.782,0,1,0,3.565,0A1.684,1.684,0,0,0,21.565,9.782Z" transform="translate(-18 -8)"/></g><g transform="translate(27.306 18.086)"><path class="a" d="M27.8,20.13a.842.842,0,0,1-.891-.891V17.456a2.741,2.741,0,0,0-2.674-2.674H18.891a.891.891,0,0,1,0-1.782h5.347a4.413,4.413,0,0,1,4.456,4.456v1.782A.842.842,0,0,1,27.8,20.13Z" transform="translate(-18 -13)"/></g><g transform="translate(6.565 9.174)"><path class="a" d="M5.565,15.13A3.565,3.565,0,1,1,9.13,11.565,3.575,3.575,0,0,1,5.565,15.13Zm0-5.347a1.684,1.684,0,0,0-1.782,1.782,1.684,1.684,0,0,0,1.782,1.782,1.684,1.684,0,0,0,1.782-1.782A1.684,1.684,0,0,0,5.565,9.782Z" transform="translate(-2 -8)"/></g><g transform="translate(3 18.086)"><path class="a" d="M.891,20.13A.842.842,0,0,1,0,19.238V17.456A4.413,4.413,0,0,1,4.456,13H9.8a.891.891,0,0,1,0,1.782H4.456a2.741,2.741,0,0,0-2.674,2.674v1.782A.842.842,0,0,1,.891,20.13Z" transform="translate(0 -13)"/></g><g transform="translate(15.153 6.5)"><path class="a" d="M14.347,17.194A5.252,5.252,0,0,1,9,11.847,5.252,5.252,0,0,1,14.347,6.5a5.252,5.252,0,0,1,5.347,5.347A5.252,5.252,0,0,1,14.347,17.194Zm0-8.912a3.565,3.565,0,1,0,3.565,3.565A3.575,3.575,0,0,0,14.347,8.282Z" transform="translate(-9 -6.5)"/></g><g transform="translate(10.697 19.868)"><path class="a" d="M25.215,22.912a.842.842,0,0,1-.891-.891V18.456a2.741,2.741,0,0,0-2.674-2.674H10.956a2.741,2.741,0,0,0-2.674,2.674v3.565a.842.842,0,0,1-.891.891.842.842,0,0,1-.891-.891V18.456A4.413,4.413,0,0,1,10.956,14H21.65a4.413,4.413,0,0,1,4.456,4.456v3.565A.842.842,0,0,1,25.215,22.912Z" transform="translate(-6.5 -14)"/></g></g></svg>