<svg xmlns="http://www.w3.org/2000/svg" width="33.338" height="33.331" viewBox="0 0 33.338 33.331"><g transform="translate(0 13.091)"><path d="M8.335,187.75H1.193A1.2,1.2,0,0,0,0,188.943V206.8a1.192,1.192,0,0,0,1.193,1.193H8.335A1.192,1.192,0,0,0,9.527,206.8V188.943A1.192,1.192,0,0,0,8.335,187.75Z" transform="translate(0 -187.75)"/></g><g transform="translate(11.906 0)"><g transform="translate(0 0)"><path d="M179.035.05h-7.142A1.191,1.191,0,0,0,170.7,1.236V32.189a1.192,1.192,0,0,0,1.193,1.193h7.142a1.192,1.192,0,0,0,1.193-1.193V1.243A1.192,1.192,0,0,0,179.035.05Z" transform="translate(-170.7 -0.05)"/></g></g><g transform="translate(23.811 9.52)"><path d="M349.735,136.55h-7.142a1.188,1.188,0,0,0-1.193,1.193v21.426a1.192,1.192,0,0,0,1.193,1.193h7.142a1.192,1.192,0,0,0,1.193-1.193V137.743A1.192,1.192,0,0,0,349.735,136.55Z" transform="translate(-341.4 -136.55)"/></g></svg>