<svg xmlns="http://www.w3.org/2000/svg" width="33.067" height="33.067" viewBox="0 0 33.067 33.067"><path d="M12.744,0H2.411A2.414,2.414,0,0,0,0,2.411v6.2a2.414,2.414,0,0,0,2.411,2.411H12.744a2.414,2.414,0,0,0,2.411-2.411v-6.2A2.414,2.414,0,0,0,12.744,0Zm0,0" transform="translate(0 0)"/><path d="M12.744,213.332H2.411A2.414,2.414,0,0,0,0,215.743V230.21a2.414,2.414,0,0,0,2.411,2.411H12.744a2.414,2.414,0,0,0,2.411-2.411V215.743A2.414,2.414,0,0,0,12.744,213.332Zm0,0" transform="translate(0 -199.554)"/><path d="M290.077,341.332H279.743a2.414,2.414,0,0,0-2.411,2.411v6.2a2.414,2.414,0,0,0,2.411,2.411h10.333a2.414,2.414,0,0,0,2.411-2.411v-6.2A2.414,2.414,0,0,0,290.077,341.332Zm0,0" transform="translate(-259.421 -319.288)"/><path d="M290.077,0H279.743a2.414,2.414,0,0,0-2.411,2.411V16.878a2.414,2.414,0,0,0,2.411,2.411h10.333a2.414,2.414,0,0,0,2.411-2.411V2.411A2.414,2.414,0,0,0,290.077,0Zm0,0" transform="translate(-259.421 0)"/></svg>