<svg xmlns="http://www.w3.org/2000/svg" width="40.112" height="40.112" viewBox="0 0 40.112 40.112"><defs><style>.a{fill:#fff;}</style></defs><g transform="translate(0 0)"><path d="M39.028,16.153l-1.987-.248a.061.061,0,0,1-.052-.047,17.34,17.34,0,0,0-2-4.8.062.062,0,0,1,0-.07L36.231,9.4a1.239,1.239,0,0,0-.1-1.635L32.346,3.983a1.239,1.239,0,0,0-1.635-.1L29.117,5.122a.062.062,0,0,1-.07,0,17.339,17.339,0,0,0-4.79-1.981.061.061,0,0,1-.047-.052l-.25-2.008A1.239,1.239,0,0,0,22.732,0H17.381a1.239,1.239,0,0,0-1.228,1.084L15.9,3.092a.061.061,0,0,1-.047.052,17.339,17.339,0,0,0-4.79,1.981.062.062,0,0,1-.07,0L9.4,3.881a1.239,1.239,0,0,0-1.635.1L3.982,7.766a1.239,1.239,0,0,0-.1,1.635l1.235,1.587a.062.062,0,0,1,0,.07,17.34,17.34,0,0,0-2,4.8.061.061,0,0,1-.052.047l-1.987.248A1.239,1.239,0,0,0,0,17.381v5.351A1.239,1.239,0,0,0,1.084,23.96l1.973.246a.061.061,0,0,1,.052.047A17.34,17.34,0,0,0,5.1,29.078a.062.062,0,0,1,0,.07L3.881,30.711a1.239,1.239,0,0,0,.1,1.635L7.766,36.13a1.239,1.239,0,0,0,1.635.1l1.555-1.21a.062.062,0,0,1,.07,0,17.34,17.34,0,0,0,4.836,2.007.061.061,0,0,1,.047.052l.243,1.952a1.239,1.239,0,0,0,1.228,1.084h5.351a1.239,1.239,0,0,0,1.228-1.084l.243-1.952a.061.061,0,0,1,.047-.052c.5-.124,1-.272,1.492-.44.307-.106,1.95-.8,2.239-.951.374-.191.746-.4,1.105-.616a.062.062,0,0,1,.07,0l1.555,1.21a1.239,1.239,0,0,0,1.635-.1l3.784-3.784a1.239,1.239,0,0,0,.1-1.635l-1.217-1.563a.062.062,0,0,1,0-.07A17.336,17.336,0,0,0,37,24.252a.061.061,0,0,1,.052-.047l1.973-.246a1.239,1.239,0,0,0,1.084-1.228V17.381a1.239,1.239,0,0,0-1.084-1.228Z"/><path class="a" d="M111.477,124.109a12.285,12.285,0,1,0-12.285-12.285,12.3,12.3,0,0,0,12.285,12.285Zm-5.911-2.882v-4.2A3.317,3.317,0,0,1,108.1,113.8l-.807,3.228a1.238,1.238,0,0,0,1.2,1.538c.034,0,.068,0,.1,0l1.818,3.03a1.237,1.237,0,0,0,2.122,0l1.818-3.03c.034,0,.068,0,.1,0a1.238,1.238,0,0,0,1.2-1.538l-.807-3.228a3.317,3.317,0,0,1,2.536,3.219v4.2a11.086,11.086,0,0,1-11.822,0Zm1.95-15.251v-.65a2.014,2.014,0,0,1,2.012-2.012h3.9a2.014,2.014,0,0,1,2.012,2.012v.65a.062.062,0,0,1-.062.062h-7.8A.062.062,0,0,1,107.516,105.975Zm.65,1.237h6.623v2.012a3.312,3.312,0,0,1-3.368,3.311,3.359,3.359,0,0,1-3.255-3.375Zm6.1,10.121-1.876-.625,1.436-2.154.69,2.762a.062.062,0,0,1-.08.074l-.167-.056h0Zm-5.586,0-.167.056a.062.062,0,0,1-.08-.074l.69-2.762,1.436,2.154-1.877.626Zm2.795-1.372-1.5-2.252h3Zm0,1.679,1.719.573-1.665,2.776a.062.062,0,0,1-.107,0l-1.665-2.776Zm0-16.928a11.105,11.105,0,0,1,7.086,19.66v-3.351a4.492,4.492,0,0,0-4.081-4.468c.047-.043.095-.086.14-.132a4.454,4.454,0,0,0,1.341-3.2v-2.161a1.238,1.238,0,0,0,.65-1.089v-.65a3.191,3.191,0,0,0-3.187-3.187h-3.9a3.191,3.191,0,0,0-3.187,3.187v.65a1.238,1.238,0,0,0,.65,1.089v2.1a4.575,4.575,0,0,0,1.509,3.393,4.492,4.492,0,0,0-4.109,4.47v3.351a11.105,11.105,0,0,1,7.086-19.66Z" transform="translate(-91.421 -91.741)"/><path class="a" d="M70.372,71.551a.588.588,0,0,0-.828.068,14.885,14.885,0,1,0,1.73-1.73.588.588,0,1,0,.76.9,13.71,13.71,0,1,1-1.594,1.594.588.588,0,0,0-.068-.828Z" transform="translate(-60.841 -61.16)"/></g></svg>