<svg xmlns="http://www.w3.org/2000/svg" width="24" height="24" viewBox="0 0 24 24"><defs><style>.a{opacity:0;}</style></defs><g transform="translate(-50 -50)"><g transform="translate(50 50)"><path d="M.75,6.5A.75.75,0,0,1,0,5.75v-3A2.752,2.752,0,0,1,2.75,0h3a.75.75,0,0,1,0,1.5h-3A1.252,1.252,0,0,0,1.5,2.75v3A.75.75,0,0,1,.75,6.5Z"/><path d="M5.75,24h-3A2.752,2.752,0,0,1,0,21.25v-3a.75.75,0,0,1,1.5,0v3A1.252,1.252,0,0,0,2.75,22.5h3a.75.75,0,0,1,0,1.5Z"/><path d="M23.25,6.5a.75.75,0,0,1-.75-.75v-3A1.252,1.252,0,0,0,21.25,1.5h-3a.75.75,0,0,1,0-1.5h3A2.752,2.752,0,0,1,24,2.75v3A.75.75,0,0,1,23.25,6.5Z"/><path d="M21.25,24h-3a.75.75,0,0,1,0-1.5h3a1.252,1.252,0,0,0,1.25-1.25v-3a.75.75,0,0,1,1.5,0v3A2.752,2.752,0,0,1,21.25,24Z"/></g><g transform="translate(50.885 49.296)"><g transform="translate(0 10.697)"><path d="M19.477,240H3.343a3.343,3.343,0,0,0,0,6.685H19.477a3.343,3.343,0,0,0,0-6.685ZM3.343,244.011a.669.669,0,1,1,.669-.669A.669.669,0,0,1,3.343,244.011Zm2.719,0a.669.669,0,1,1,.669-.669A.669.669,0,0,1,6.061,244.011Zm2.674,0a.669.669,0,1,1,.669-.669A.669.669,0,0,1,8.736,244.011Zm10.741,0H14.084a.669.669,0,1,1,0-1.337h5.393a.669.669,0,1,1,0,1.337Z" transform="translate(0 -240)"/></g><g class="a" transform="translate(6.014 2.674)"><path d="M145.527,62.154a7.354,7.354,0,0,0-10.4,0,.668.668,0,0,0,.945.945,6.018,6.018,0,0,1,8.51,0,.668.668,0,0,0,.945-.945Z" transform="translate(-134.931 -60)"/></g><g class="a" transform="translate(7.906 5.394)"><path d="M184.208,122.345a4.785,4.785,0,0,0-6.615,0,.668.668,0,1,0,.945.945,3.414,3.414,0,0,1,4.724,0,.668.668,0,1,0,.945-.945Z" transform="translate(-177.397 -121.018)"/></g><g transform="translate(9.797 8.042)"><path d="M222.834,181A2.05,2.05,0,0,0,220,181a.668.668,0,1,0,.945.945.681.681,0,0,1,.944,0,.668.668,0,1,0,.945-.945Z" transform="translate(-219.804 -180.432)"/></g><g transform="translate(5.393 18.719)"><path d="M131.028,421.426h-2.006V420h-4.011v1.426h-2.006A2.006,2.006,0,0,0,121,423.432a.669.669,0,0,0,.669.669h10.7a.669.669,0,0,0,.669-.669A2.006,2.006,0,0,0,131.028,421.426Z" transform="translate(-121 -420)"/></g></g></g></svg>