<svg xmlns="http://www.w3.org/2000/svg" width="32.613" height="21.859" viewBox="0 0 32.613 21.859"><defs><style>.a{opacity:0.01;}</style></defs><g transform="translate(-5 -60.304)"><g class="a" transform="translate(5 61.05)"><g transform="translate(0 0)"><path d="M29.511,55.05H2.14A2.171,2.171,0,0,0,0,57.238V74.071a2.12,2.12,0,0,0,2.14,2.092H3.248V62.435a4.057,4.057,0,0,1,4.079-4.041h24.3V57.238A2.155,2.155,0,0,0,29.511,55.05Z" transform="translate(0 -55.05)"/></g></g><g transform="translate(26.12 74.453)"><g transform="translate(0 0)"><path d="M279.771,258.523a1.531,1.531,0,0,0-2.159.191,1.014,1.014,0,0,1-.143.143.957.957,0,0,1-1.347-.143,1.539,1.539,0,1,0-1.175,2.522,1.494,1.494,0,0,0,1.185-.554.948.948,0,0,1,.736-.344.923.923,0,0,1,.736.334,1.326,1.326,0,0,0,.2.2,1.533,1.533,0,1,0,1.968-2.35Z" transform="translate(-273.399 -258.15)"/></g></g><g transform="translate(5.159 60.304)"><path d="M83.549,110.049H56.169A2.147,2.147,0,0,0,54,112.18v1.4H85.728v-1.4A2.149,2.149,0,0,0,83.549,110.049Z" transform="translate(-54 -110.049)"/></g><g transform="translate(5.429 65.907)"><g transform="translate(0 0)"><rect width="32" height="2" transform="translate(0.184 0.327)"/></g></g><g transform="translate(5.159 70.145)"><g transform="translate(0 0)"><path d="M54,213.05v9.086a2.183,2.183,0,0,0,2.169,2.188H83.54a2.2,2.2,0,0,0,2.178-2.188V213.05Zm29.225,7.777a3.457,3.457,0,0,1-4.8.927,3.405,3.405,0,0,1-1.93.592,3.454,3.454,0,0,1,0-6.907,3.405,3.405,0,0,1,1.93.592,3.454,3.454,0,0,1,4.8,4.8Z" transform="translate(-54 -213.05)"/></g></g></g></svg>