<svg xmlns="http://www.w3.org/2000/svg" width="32.586" height="32.994" viewBox="0 0 32.586 32.994"><g transform="translate(-3.2)"><g transform="translate(3.2)"><g transform="translate(0)"><path d="M326.822,267.153a.36.36,0,0,0,.407-.407l1.222-2.58-3.53-1.765-1.086,2.58a.413.413,0,0,0,0,.543l.407.407a4.79,4.79,0,0,1,1.765,1.086.5.5,0,0,0,.407.136C326.686,267.289,326.686,267.289,326.822,267.153Z" transform="translate(-303.333 -245.7)"/><path d="M29.812,105.718c-.272-.136-.679.136-.815.407L27.5,109.384c0,.136-.136.272,0,.407a6.8,6.8,0,0,1-1.765,5.431,7.268,7.268,0,0,1-5.024,1.765,6.463,6.463,0,0,1-4.616-1.765,2.474,2.474,0,0,1-.679-1.086c-.136.136-.272.407-.543.407H8.088a.641.641,0,0,1-.679-.679v-9.5a.641.641,0,0,1,.679-.679h6.789a.641.641,0,0,1,.679.679v8.69a1.927,1.927,0,0,1,1.222-1.086c.136,0,.136,0,.272-.136s.407-.272.679-.543a.5.5,0,0,0,.136-.407c0-.136,0-.136.136-.272a8.666,8.666,0,0,0,.272-.95V104.5a.641.641,0,0,1,.679-.679h4.209l.543-1.358H7.952a.641.641,0,0,1-.679-.679V96.349a.641.641,0,0,1,.679-.679H26.146c.136,0,.272,0,.272.136l1.358-3.123c.136-.136,0-.407,0-.679a.705.705,0,0,0-.543-.272H6.594A3.361,3.361,0,0,0,3.2,95.127v20.366a3.361,3.361,0,0,0,3.394,3.394H26.961a3.361,3.361,0,0,0,3.394-3.394V106.8A1.061,1.061,0,0,0,29.812,105.718Z" transform="translate(-3.2 -85.895)"/><path d="M220.063,339.392a4.275,4.275,0,0,0-1.222,2.308,2.587,2.587,0,0,1-.679,1.358,3.927,3.927,0,0,1-1.222.95c-.272.136-.407.272-.407.543a1.224,1.224,0,0,0,.136.679,4.914,4.914,0,0,0,3.666,1.358,6.111,6.111,0,0,0,4.073-1.358c1.358-1.358,2.172-4.209.679-5.7A3.485,3.485,0,0,0,220.063,339.392Z" transform="translate(-202.955 -316.854)"/><path d="M359.08,0a2.419,2.419,0,0,0-2.172,1.358l-5.974,14.121,3.53,1.765,6.653-13.985a2.558,2.558,0,0,0,.272-1.086A2.263,2.263,0,0,0,359.08,0Z" transform="translate(-328.802)"/></g></g></g></svg>