<svg xmlns="http://www.w3.org/2000/svg" width="27.935" height="34.098" viewBox="0 0 27.935 34.098"><g transform="translate(0 -18.487)"><g transform="translate(6.162 18.487)"><path d="M67.805,180a7.7,7.7,0,1,0,7.805,7.7A7.8,7.8,0,0,0,67.805,180Z" transform="translate(-60 -180)"/></g><g transform="translate(24.854 26.189)"><path d="M242.77,0a.771.771,0,0,0-.672,1.147L242,1.428a.086.086,0,0,0,.1.11l.318-.079A.77.77,0,1,0,242.77,0Zm.086,1.113a.086.086,0,0,1-.171,0V.77a.086.086,0,0,1,.171,0ZM242.77.6a.086.086,0,1,1,.086-.086A.086.086,0,0,1,242.77.6Z" transform="translate(-242)"/></g><g transform="translate(0 33.375)"><path d="M22.051,324.968a10.88,10.88,0,0,1-16.168,0A13.836,13.836,0,0,0,0,336.269v6.368a1.54,1.54,0,0,0,1.541,1.541H26.395a1.54,1.54,0,0,0,1.541-1.541v-6.368A13.836,13.836,0,0,0,22.051,324.968Z" transform="translate(0 -324.968)"/></g></g></svg>