<svg xmlns="http://www.w3.org/2000/svg" width="12.989" height="13" viewBox="0 0 12.989 13"><path d="M14.281,10.02,7.348,3.086A3,3,0,0,0,3.1,3.04a2.959,2.959,0,0,0,0,4.252l.046.046L4.436,8.679l.647-.647-1.34-1.34A2.076,2.076,0,0,1,6.655,3.734L6.7,3.78l6.887,6.887a2.059,2.059,0,0,1-2.865,2.958l-.046-.046-3.42-3.42a1.158,1.158,0,0,1,0-1.618,1.205,1.205,0,0,1,1.618,0l1.895,1.895.647-.647L9.474,7.847a2.052,2.052,0,0,0-2.912.092,2.128,2.128,0,0,0,0,2.866l3.467,3.467a3.007,3.007,0,1,0,4.252-4.252h0Z" transform="translate(-2.194 -2.179)"/></svg>