<svg xmlns="http://www.w3.org/2000/svg" width="21.877" height="18.595" viewBox="0 0 21.877 18.595"><defs><style>.a{fill:#373633;}</style></defs><path class="a" d="M2.18,21.1a1.1,1.1,0,0,0,.913.491H19.5a1.092,1.092,0,0,0,1.005-.663l3.282-7.657a1.094,1.094,0,0,0-1.005-1.525H21.689V7.375A2.19,2.19,0,0,0,19.5,5.188H13.923l-2.5-1.955A1.09,1.09,0,0,0,10.751,3H4.188A2.19,2.19,0,0,0,2,5.188V20.5h.008A1.093,1.093,0,0,0,2.18,21.1Zm16.6-1.7H4.753L7.1,13.939H21.125ZM19.5,7.375v4.375H6.375a1.092,1.092,0,0,0-1.005.663l-1.182,2.76v-7.8Z" transform="translate(-2 -3)"/></svg>