<svg xmlns="http://www.w3.org/2000/svg" width="37" height="24.667" viewBox="0 0 37 24.667"><defs><style>.a{fill:#fff;}.b{fill:#78576f;}</style></defs><g transform="translate(2.806 6.169)"><path class="a" d="M36.788,19.152l-4.652,7.975a4.111,4.111,0,0,1-3.551,2.04H2.892a1.542,1.542,0,0,1-1.332-2.318l4.652-7.975a4.111,4.111,0,0,1,3.551-2.04H35.456A1.542,1.542,0,0,1,36.788,19.152ZM9.764,14.778H30.833V11.694A3.083,3.083,0,0,0,27.75,8.611H17.472L13.361,4.5H3.083A3.083,3.083,0,0,0,0,7.583V25.444l4.437-7.607A6.188,6.188,0,0,1,9.764,14.778Z" transform="translate(-2.806 -10.669)"/><g transform="translate(6.752 9.842)"><g transform="translate(0 0)"><path class="b" d="M15.359,240H2.636a2.636,2.636,0,0,0,0,5.272H15.359a2.636,2.636,0,0,0,0-5.272ZM2.636,243.163a.527.527,0,1,1,.527-.527A.527.527,0,0,1,2.636,243.163Zm2.144,0a.527.527,0,1,1,.527-.527A.527.527,0,0,1,4.78,243.163Zm2.109,0a.527.527,0,1,1,.527-.527A.527.527,0,0,1,6.889,243.163Zm8.47,0H11.106a.527.527,0,0,1,0-1.054h4.253a.527.527,0,0,1,0,1.054Z" transform="translate(0 -240)"/></g></g></g></svg>