<svg xmlns="http://www.w3.org/2000/svg" width="27.31" height="31.212" viewBox="0 0 27.31 31.212"><defs><style>.a{fill:#000;}</style></defs><path class="a" d="M44.8,27,32.12,20.118a.972.972,0,0,0-.93,0L18.51,27a.975.975,0,0,0-.5,1.024l1.608,9.286a14.592,14.592,0,0,0,5.464,9.075l5.971,4.619a.976.976,0,0,0,1.189,0l5.89-4.5a14.587,14.587,0,0,0,5.536-9.129L45.3,28.027A.975.975,0,0,0,44.8,27ZM31.189,24.526a.973.973,0,0,1,.93,0l3.905,2.12-.93,1.715-3.44-1.868L28.22,28.358l-.93-1.715ZM32.4,38.182a.971.971,0,0,1-.705.349h-.044a.97.97,0,0,1-.69-.286L28.039,35.32l1.379-1.379,2.171,2.171,4.193-5.032,1.5,1.249Zm.226,2.3v1.951H30.68V40.482ZM30.68,30.729V28.778H32.63v1.951Zm10.713-.414L40.27,36.795A10.4,10.4,0,0,1,36.324,43.3l-4.078,3.113a.976.976,0,0,1-1.189,0l-4.135-3.2a10.406,10.406,0,0,1-3.895-6.469l-1.114-6.43a.976.976,0,0,1,.5-1.024L25.336,27.7l.93,1.715-2.312,1.254.994,5.74a8.456,8.456,0,0,0,3.166,5.259l3.542,2.74,3.482-2.659a8.454,8.454,0,0,0,3.209-5.29l1-5.79-2.308-1.252.93-1.715L40.9,29.291a.974.974,0,0,1,.5,1.024Z" transform="translate(-18 -20)"/></svg>