<svg xmlns="http://www.w3.org/2000/svg" width="37.024" height="37" viewBox="0 0 37.024 37"><defs><style>.a{fill:#fff;}.b{fill:#78576f;}</style></defs><g transform="translate(37.024 37.164) rotate(180)"><path class="a" d="M35.938,14.572H32.51a14.566,14.566,0,0,0-.894-2.243l2.69-2.69a1.085,1.085,0,0,0,0-1.535L29.519,3.319a1.085,1.085,0,0,0-1.535,0l-2.6,2.6A14.562,14.562,0,0,0,23.1,4.947v-3.7A1.085,1.085,0,0,0,22.01.164H15.241a1.085,1.085,0,0,0-1.085,1.085V4.868a14.554,14.554,0,0,0-2.395.984L9.417,3.508a1.085,1.085,0,0,0-1.535,0L3.1,8.294a1.085,1.085,0,0,0,0,1.535l2.363,2.363a14.557,14.557,0,0,0-.965,2.381H1.085A1.085,1.085,0,0,0,0,15.657v6.768a1.085,1.085,0,0,0,1.085,1.085H4.612a14.563,14.563,0,0,0,.957,2.224l-2.52,2.519a1.085,1.085,0,0,0,0,1.535l4.786,4.786a1.085,1.085,0,0,0,1.535,0l2.6-2.6a14.57,14.57,0,0,0,2.045.833v3.275A1.085,1.085,0,0,0,15.1,37.164h6.768a1.085,1.085,0,0,0,1.085-1.085V32.812a14.559,14.559,0,0,0,2.21-.912l2.7,2.7a1.085,1.085,0,0,0,1.535,0l4.786-4.786a1.085,1.085,0,0,0,0-1.535L31.507,25.6a14.588,14.588,0,0,0,.885-2.086h3.547a1.085,1.085,0,0,0,1.085-1.085V15.657a1.085,1.085,0,0,0-1.085-1.085Z" transform="translate(0 0)"/><path class="b" d="M126.819,144.2a1.092,1.092,0,0,0,1.177.464l1.922-.486a1.085,1.085,0,0,0-.286-2.137,6.452,6.452,0,0,1,11.5,1.609,1.085,1.085,0,0,0,2.066-.665,8.623,8.623,0,0,0-15.662-1.691,1.085,1.085,0,0,0-1.767,1.255l1.042,1.642Z" transform="translate(-116.515 -126.939)"/><path class="b" d="M158.6,268.913a1.092,1.092,0,0,0-1.193-.487l-1.922.486a1.085,1.085,0,0,0,.265,2.138h.021a6.452,6.452,0,0,1-11.5-1.609,1.085,1.085,0,1,0-2.066.665,8.623,8.623,0,0,0,15.662,1.691,1.085,1.085,0,0,0,1.767-1.255Z" transform="translate(-131.867 -248.819)"/></g></svg>