<svg xmlns="http://www.w3.org/2000/svg" width="37" height="25.939" viewBox="0 0 37 25.939"><defs><style>.a{fill:#fff;}</style></defs><g transform="translate(0 -55.05)"><g transform="translate(0 55.05)"><g transform="translate(0 0)"><path class="a" d="M28.94,55.05H2.1A2.152,2.152,0,0,0,0,57.238V74.071a2.1,2.1,0,0,0,2.1,2.092H3.185V62.435a4.017,4.017,0,0,1,4-4.041H31.019V57.238A2.136,2.136,0,0,0,28.94,55.05Z" transform="translate(0 -55.05)"/></g></g><g transform="translate(25.507 74.024)"><g transform="translate(0 0)"><path class="a" d="M279.771,258.523a1.531,1.531,0,0,0-2.159.191,1.014,1.014,0,0,1-.143.143.957.957,0,0,1-1.347-.143,1.539,1.539,0,1,0-1.175,2.522,1.494,1.494,0,0,0,1.185-.554.948.948,0,0,1,.736-.344.923.923,0,0,1,.736.334,1.326,1.326,0,0,0,.2.2,1.533,1.533,0,1,0,1.968-2.35Z" transform="translate(-273.399 -258.15)"/></g></g><g transform="translate(5.159 60.206)"><path class="a" d="M82.979,110.049H56.127A2.126,2.126,0,0,0,54,112.18v1.4H85.115v-1.4A2.128,2.128,0,0,0,82.979,110.049Z" transform="translate(-54 -110.049)"/></g><g transform="translate(5.613 66.037)"><g transform="translate(0 0)"><rect class="a" width="31.387" height="2"/></g></g><g transform="translate(5.159 69.715)"><g transform="translate(0 0)"><path class="a" d="M54,213.05v9.086a2.163,2.163,0,0,0,2.127,2.188H82.969a2.177,2.177,0,0,0,2.136-2.188V213.05Zm28.66,7.777a3.35,3.35,0,0,1-4.7.927,3.294,3.294,0,0,1-1.893.592,3.454,3.454,0,0,1,0-6.907,3.294,3.294,0,0,1,1.893.592,3.324,3.324,0,0,1,3.794,0A3.5,3.5,0,0,1,82.66,220.827Z" transform="translate(-54 -213.05)"/></g></g></g></svg>