<svg xmlns="http://www.w3.org/2000/svg" width="36.543" height="37" viewBox="0 0 36.543 37"><defs><style>.a{fill:#000;}</style></defs><g transform="translate(-3.2)"><g transform="translate(3.2)"><path class="a" d="M325.56,267.73a.4.4,0,0,1-.457-.457l-1.37-2.893,3.959-1.979,1.218,2.893a.463.463,0,0,1,0,.609l-.457.457a5.372,5.372,0,0,0-1.979,1.218.559.559,0,0,1-.457.152C325.713,267.883,325.713,267.883,325.56,267.73Z" transform="translate(-315.359 -243.672)"/><path class="a" d="M3.809,107.416c.3-.152.761.152.914.457L6.4,111.527c0,.152.152.3,0,.457a7.631,7.631,0,0,0,1.979,6.091,8.15,8.15,0,0,0,5.634,1.979,7.248,7.248,0,0,0,5.177-1.979,2.774,2.774,0,0,0,.761-1.218c.152.152.3.457.609.457h7.613a.719.719,0,0,0,.761-.761V105.894a.719.719,0,0,0-.761-.761H20.558a.719.719,0,0,0-.761.761v9.745a2.161,2.161,0,0,0-1.37-1.218c-.152,0-.152,0-.3-.152s-.457-.3-.761-.609a.559.559,0,0,1-.152-.457c0-.152,0-.152-.152-.3a9.718,9.718,0,0,1-.3-1.066v-5.786a.719.719,0,0,0-.761-.761H11.27l-.609-1.523H28.323a.719.719,0,0,0,.761-.761V96.91a.719.719,0,0,0-.761-.761H7.92c-.152,0-.3,0-.3.152L6.093,92.8c-.152-.152,0-.457,0-.761a.791.791,0,0,1,.609-.3H29.846a3.77,3.77,0,0,1,3.807,3.807v22.84a3.77,3.77,0,0,1-3.807,3.807H7.007A3.77,3.77,0,0,1,3.2,118.379v-9.745A1.19,1.19,0,0,1,3.809,107.416Z" transform="translate(2.891 -85.186)"/><path class="a" d="M223.063,339.514a4.8,4.8,0,0,1,1.37,2.589,2.9,2.9,0,0,0,.761,1.523,4.4,4.4,0,0,0,1.37,1.066c.3.152.457.3.457.609a1.373,1.373,0,0,1-.152.761,5.511,5.511,0,0,1-4.111,1.523,6.853,6.853,0,0,1-4.568-1.523c-1.523-1.523-2.436-4.72-.761-6.4A3.908,3.908,0,0,1,223.063,339.514Z" transform="translate(-205.705 -314.238)"/><path class="a" d="M353.522,0a2.712,2.712,0,0,1,2.436,1.523l6.7,15.835L358.7,19.337,351.238,3.654a2.869,2.869,0,0,1-.3-1.218A2.537,2.537,0,0,1,353.522,0Z" transform="translate(-350.933)"/></g></g></svg>