<svg xmlns="http://www.w3.org/2000/svg" width="37" height="37" viewBox="0 0 37 37"><defs><style>.a{fill:#000;}</style></defs><g transform="translate(0 -9.152)"><g transform="translate(5.25 17.104)"><path class="a" d="M66.649,180a6.563,6.563,0,1,0,6.649,6.562A6.645,6.645,0,0,0,66.649,180Z" transform="translate(-60 -180)"/></g><g transform="translate(21.173 9.152)"><path class="a" d="M249.913,0a7.915,7.915,0,0,0-6.905,11.781l-.963,2.889a.879.879,0,0,0,1.047,1.131l3.266-.816A7.914,7.914,0,1,0,249.913,0Zm.879,11.43a.879.879,0,0,1-1.759,0V7.913a.879.879,0,0,1,1.759,0Zm-.879-5.276a.879.879,0,1,1,.879-.879A.879.879,0,0,1,249.913,6.155Z" transform="translate(-242)"/></g><g transform="translate(0 29.788)"><path class="a" d="M18.786,324.968a9.269,9.269,0,0,1-13.773,0A11.787,11.787,0,0,0,0,334.595v5.425a1.312,1.312,0,0,0,1.312,1.312H22.486A1.312,1.312,0,0,0,23.8,340.02v-5.425A11.787,11.787,0,0,0,18.786,324.968Z" transform="translate(0 -324.968)"/></g></g></svg>